<?xml version="1.0" encoding="utf-8"?>
<!-- Generator: Adobe Illustrator 20.0.0, SVG Export Plug-In . SVG Version: 6.00 Build 0)  -->
<svg version="1.1" id="Ebene_1" xmlns="http://www.w3.org/2000/svg" xmlns:xlink="http://www.w3.org/1999/xlink" x="0px" y="0px"
	 viewBox="0 0 32 32" style="enable-background:new 0 0 32 32;" xml:space="preserve">
<style type="text/css">
	.st0{fill:#1D1D1B;}
</style>
<g>
	<path class="st0" d="M22,2.7H10v9h12V2.7z M20,9.7h-8v-5h8V9.7z"/>
	<path class="st0" d="M27,20.3v-1.8c0-1.9-1.6-3.5-3.5-3.5H17v-3.3h-2V15H8.5C6.6,15,5,16.6,5,18.5v1.8H0v9h12v-9H7v-1.8
		C7,17.7,7.7,17,8.5,17h15c0.8,0,1.5,0.7,1.5,1.5v1.8h-5v9h12v-9H27z M10,27.3H2v-5h8V27.3z M30,27.3h-8v-5h8V27.3z"/>
</g>
</svg>
