<?xml version="1.0" encoding="utf-8"?>
<!-- Generator: Adobe Illustrator 19.2.1, SVG Export Plug-In . SVG Version: 6.00 Build 0)  -->
<svg version="1.1" id="Ebene_1" xmlns="http://www.w3.org/2000/svg" xmlns:xlink="http://www.w3.org/1999/xlink" x="0px" y="0px"
	 viewBox="0 0 22 22" style="enable-background:new 0 0 22 22;" xml:space="preserve">
<path d="M21.5,3.5c0-0.8-0.3-1.6-0.9-2.1c-1.2-1.2-3.1-1.2-4.2,0L3.9,13.9L0.5,20L2,21.5l6.1-3.3L19.6,6.7l1-1
	C21.2,5,21.5,4.3,21.5,3.5z M8.2,16.1l-2.4-2.3l9.5-9.5l2.3,2.3L8.2,16.1z M2.2,19.8L2.2,19.8l2.7-5l2.4,2.3l0,0L2.2,19.8z
	 M19.7,4.7l-1,1l-2.3-2.3l1-1c0.6-0.6,1.7-0.6,2.3,0c0.3,0.3,0.5,0.7,0.5,1.2S20,4.3,19.7,4.7z"/>
</svg>
