<?xml version="1.0" encoding="utf-8"?>
<!-- Generator: Adobe Illustrator 20.1.0, SVG Export Plug-In . SVG Version: 6.00 Build 0)  -->
<svg version="1.1" id="Ebene_1" xmlns="http://www.w3.org/2000/svg" xmlns:xlink="http://www.w3.org/1999/xlink" x="0px" y="0px"
	 viewBox="0 0 32 32" style="enable-background:new 0 0 32 32;" xml:space="preserve">
<g>
	<path d="M16,7.7c2,0,3.5-1.6,3.5-3.5S18,0.6,16,0.6c-1.9,0-3.5,1.6-3.5,3.5S14.1,7.7,16,7.7z M16,2.6c0.8,0,1.5,0.7,1.5,1.5
		c0,0.8-0.7,1.5-1.5,1.5c-0.8,0-1.5-0.7-1.5-1.5C14.5,3.3,15.2,2.6,16,2.6z"/>
	<path d="M17.4,8.7h-2.7c-2.8,0-5.1,2.3-5.1,5.1v5.6h2v-5.6c0-1.7,1.4-3.1,3.1-3.1h2.7c1.7,0,3.1,1.4,3.1,3.1v5.6h2v-5.6
		C22.5,11.1,20.2,8.7,17.4,8.7z"/>
	<rect x="12.9" y="17.6" width="2" height="13.8"/>
	<rect x="17.1" y="17.6" width="2" height="13.8"/>
</g>
</svg>
