<?xml version="1.0" encoding="utf-8"?>
<!-- Generator: Adobe Illustrator 20.1.0, SVG Export Plug-In . SVG Version: 6.00 Build 0)  -->
<svg version="1.1" id="Ebene_1" xmlns="http://www.w3.org/2000/svg" xmlns:xlink="http://www.w3.org/1999/xlink" x="0px" y="0px"
	 viewBox="0 0 32 32" style="enable-background:new 0 0 32 32;" xml:space="preserve">
<g>
	<path d="M23,28c0,1.1-0.9,2-2,2H4V2h19v8h2V0H2v32h19c2.2,0,4-1.8,4-4v-3h-2V28z"/>
	<path d="M8.9,13v9h2v-3.3h1.5c1.6,0,2.9-1.3,2.9-2.9S14,13,12.4,13H8.9z M13.3,15.9c0,0.5-0.4,0.9-0.9,0.9h-1.5V15h1.5
		C12.9,15,13.3,15.4,13.3,15.9z"/>
	<path d="M18.8,13h-2.1v8.9h2.1c2.4,0,4.4-2,4.4-4.4C23.3,15,21.3,13,18.8,13z M18.9,19.9L18.9,19.9L18.8,15h0.1
		c1.4,0,2.5,1.1,2.5,2.5C21.3,18.8,20.2,19.9,18.9,19.9z"/>
	<polygon points="31,15 31,13 24.8,13 24.8,22 26.8,22 26.8,18.6 29.7,18.6 29.7,16.6 26.8,16.6 26.8,15 	"/>
</g>
</svg>
