<?xml version="1.0" encoding="utf-8"?>
<!-- Generator: Adobe Illustrator 19.2.1, SVG Export Plug-In . SVG Version: 6.00 Build 0)  -->
<svg version="1.1" id="Ebene_1" xmlns="http://www.w3.org/2000/svg" xmlns:xlink="http://www.w3.org/1999/xlink" x="0px" y="0px"
	 viewBox="0 0 32 32" style="enable-background:new 0 0 32 32;" xml:space="preserve">
<g>
	<path d="M22.5,31.5c-4.2,0-9.7-2.7-14.5-7.6C1,17-1.5,8.5,2.2,4.8l4.7-4.7l7.6,7.6l-3.9,3.9c2.9,4.3,5.4,6.8,9.8,9.9l3.8-3.8
		l7.6,7.5l-4.7,4.7C26,31,24.4,31.5,22.5,31.5z M6.9,2.9L3.6,6.2C0.8,9.1,3.4,16.5,9.5,22.5c6,6,13.5,8.7,16.3,5.8l3.3-3.3l-4.8-4.7
		L20.7,24L20,23.5c-5.3-3.7-8.1-6.5-11.5-11.6L8,11.3l3.6-3.6L6.9,2.9z"/>
</g>
</svg>
