<?xml version="1.0" encoding="utf-8"?>
<!-- Generator: Adobe Illustrator 19.2.1, SVG Export Plug-In . SVG Version: 6.00 Build 0)  -->
<svg version="1.1" id="Ebene_1" xmlns="http://www.w3.org/2000/svg" xmlns:xlink="http://www.w3.org/1999/xlink" x="0px" y="0px"
	 viewBox="0 0 32 32" style="enable-background:new 0 0 32 32;" xml:space="preserve">
<g>
	<path d="M4.4,12h2C6.4,9,9,6.4,12,6.4v-2C8,4.4,4.4,8,4.4,12z"/>
	<path d="M31.8,30.4L21.2,19.8c1.8-2.1,2.8-4.8,2.8-7.7c0-6.6-5.4-12-12-12s-12,5.4-12,12s5.4,12,12,12c2.9,0,5.6-1.1,7.7-2.8
		l10.6,10.6L31.8,30.4z M12.1,22.1c-5.5,0-10-4.5-10-10c0-5.5,4.5-10,10-10c5.5,0,10,4.5,10,10C22.1,17.6,17.6,22.1,12.1,22.1z"/>
</g>
</svg>
