<?xml version="1.0" encoding="utf-8"?>
<!-- Generator: Adobe Illustrator 20.1.0, SVG Export Plug-In . SVG Version: 6.00 Build 0)  -->
<svg version="1.1" id="Ebene_1" xmlns="http://www.w3.org/2000/svg" xmlns:xlink="http://www.w3.org/1999/xlink" x="0px" y="0px"
	 viewBox="0 0 32 32" style="enable-background:new 0 0 32 32;" xml:space="preserve">
<path d="M29.2,21.2c0.2-1,0.3-2,0.3-3c0-5.4-3.3-10.3-8.2-12.4c0,0,0-0.1,0-0.1c0-2.9-2.4-5.3-5.3-5.3c-2.9,0-5.3,2.4-5.3,5.3
	c0,0,0,0.1,0,0.1c-4.9,2.1-8.2,7-8.2,12.4c0,1,0.1,2,0.3,3c-1.4,1-2.3,2.6-2.3,4.4c0,2.9,2.4,5.3,5.3,5.3c1.2,0,2.3-0.4,3.2-1.1
	c2.1,1.3,4.5,1.9,7,1.9c2.5,0,4.9-0.7,7-1.9c0.9,0.7,2,1.1,3.2,1.1c2.9,0,5.3-2.4,5.3-5.3C31.5,23.7,30.6,22.1,29.2,21.2z M16,2.3
	c1.8,0,3.3,1.5,3.3,3.3C19.3,7.5,17.8,9,16,9c-1.8,0-3.3-1.5-3.3-3.3C12.7,3.8,14.2,2.3,16,2.3z M5.8,28.9c-1.8,0-3.3-1.5-3.3-3.3
	s1.5-3.3,3.3-3.3c1.8,0,3.3,1.5,3.3,3.3S7.7,28.9,5.8,28.9z M10.4,28.3c0.5-0.8,0.8-1.7,0.8-2.7c0-2.9-2.4-5.3-5.3-5.3
	c-0.4,0-0.8,0.1-1.2,0.1c-0.1-0.7-0.2-1.4-0.2-2.2c0-4.5,2.6-8.6,6.6-10.4C11.9,9.6,13.8,11,16,11c2.2,0,4.1-1.3,4.9-3.2
	c4,1.9,6.6,6,6.6,10.4c0,0.7-0.1,1.4-0.2,2.2c-0.4-0.1-0.8-0.1-1.2-0.1c-2.9,0-5.3,2.4-5.3,5.3c0,1,0.3,1.9,0.8,2.7
	c-1.7,0.9-3.6,1.4-5.6,1.4C14,29.7,12.1,29.2,10.4,28.3z M26.2,28.9c-1.8,0-3.3-1.5-3.3-3.3s1.5-3.3,3.3-3.3s3.3,1.5,3.3,3.3
	S28,28.9,26.2,28.9z"/>
</svg>
