<?xml version="1.0" encoding="utf-8"?>
<!-- Generator: Adobe Illustrator 20.0.0, SVG Export Plug-In . SVG Version: 6.00 Build 0)  -->
<svg version="1.1" id="Ebene_1" xmlns="http://www.w3.org/2000/svg" xmlns:xlink="http://www.w3.org/1999/xlink" x="0px" y="0px"
	 viewBox="0 0 32 32" style="enable-background:new 0 0 32 32;" xml:space="preserve">
<g id="bbxZkP_1_">
</g>
<path d="M29.8,8.4c-0.7-0.7-1.6-1.1-2.5-1.2c0.8-1.7,0.6-3.7-0.8-5.1l-1.8-1.8l-1.4,1.4l1.8,1.8C26,4.4,26,6,25,6.9l-0.4,0.4
	c-0.2-0.8-0.6-1.6-1.2-2.2l-0.9-0.9l-1.4,1.4l0.9,0.9C23,7.5,23,9,22,10l-0.2,0.2l-0.3-0.3c-1.1-1.1-2.6-1.6-4.1-1.5
	c-1.6,0.1-3,0.9-4,2.3L2.1,26.4c-1,1.4-0.9,3.4,0.3,4.6c0.7,0.7,1.6,1,2.5,1c0.7,0,1.5-0.2,2.1-0.7L22.8,20c1.3-0.9,2.1-2.4,2.3-4
	c0.1-1.5-0.4-3.1-1.5-4.1l-0.3-0.3l0.2-0.2L25,9.8c1-1,2.5-1,3.4-0.1l0.5,0.5l1.4-1.4L29.8,8.4z M21.6,18.3l-2.2,1.6l-3.7-3.7
	l-1.4,1.4l3.4,3.4L5.8,29.7c-0.6,0.5-1.5,0.4-2-0.1s-0.6-1.4-0.1-2L6.9,23l2,2l1.4-1.4l-2.2-2.2l6.9-9.6c0.6-0.8,1.5-1.3,2.5-1.4
	c0.1,0,0.2,0,0.3,0c0.9,0,1.7,0.3,2.3,0.9l1.9,1.9c0.7,0.7,1,1.6,0.9,2.6C22.9,16.8,22.4,17.7,21.6,18.3z"/>
</svg>
