<?xml version="1.0" encoding="utf-8"?>
<!-- Generator: Adobe Illustrator 20.0.0, SVG Export Plug-In . SVG Version: 6.00 Build 0)  -->
<svg version="1.1" id="Ebene_1" xmlns="http://www.w3.org/2000/svg" xmlns:xlink="http://www.w3.org/1999/xlink" x="0px" y="0px"
	 viewBox="0 0 32 32" style="enable-background:new 0 0 32 32;" xml:space="preserve">
<g>
	<rect x="9.8" y="16.2" width="2" height="1.9"/>
	<rect x="15" y="16.2" width="2" height="1.9"/>
	<rect x="20.2" y="16.2" width="2" height="1.9"/>
	<rect x="9.8" y="21.4" width="2" height="1.9"/>
	<rect x="15" y="21.4" width="2" height="1.9"/>
	<rect x="20.2" y="21.4" width="2" height="1.9"/>
	<path d="M22.4,1.7V0h-2v1.7h-8.7V0h-2v1.7H1.4v6v2V32h25.3c2.2,0,4-1.8,4-4V9.8v-2v-6H22.4z M28.6,28c0,1.1-0.9,2-2,2H3.4V9.8h25.3
		V28z M3.4,7.8v-4h6.3v1.7h2V3.7h8.7v1.7h2V3.7h6.3v4H3.4z"/>
</g>
</svg>
