<?xml version="1.0" encoding="utf-8"?>
<!-- Generator: Adobe Illustrator 20.0.0, SVG Export Plug-In . SVG Version: 6.00 Build 0)  -->
<svg version="1.1" id="Ebene_1" xmlns="http://www.w3.org/2000/svg" xmlns:xlink="http://www.w3.org/1999/xlink" x="0px" y="0px"
	 viewBox="0 0 32 32" style="enable-background:new 0 0 32 32;" xml:space="preserve">
<g>
	<path d="M0,31.6V5.7c0-3,2.5-5.5,5.5-5.5h20.9c3,0,5.5,2.4,5.6,5.5v14.2c-0.1,3.1-2.6,5.5-5.6,5.5H9.6L0,31.6z M5.5,2.2
		C3.6,2.2,2,3.8,2,5.7v22.2l7-4.5h17.4c1.9,0,3.5-1.6,3.6-3.6V5.7c-0.1-2-1.7-3.5-3.6-3.5H5.5z"/>
</g>
<g>
	<rect x="7.6" y="8.9" width="16.8" height="2"/>
</g>
<g>
	<rect x="7.6" y="14.8" width="12" height="2"/>
</g>
</svg>
