<?xml version="1.0" encoding="utf-8"?>
<!-- Generator: Adobe Illustrator 20.0.0, SVG Export Plug-In . SVG Version: 6.00 Build 0)  -->
<svg version="1.1" id="Ebene_1" xmlns="http://www.w3.org/2000/svg" xmlns:xlink="http://www.w3.org/1999/xlink" x="0px" y="0px"
	 viewBox="0 0 32 32" style="enable-background:new 0 0 32 32;" xml:space="preserve">
<g>
	<rect x="6.3" y="12.7" width="13.6" height="2"/>
	<rect x="6.3" y="17.5" width="9.8" height="2"/>
	<path d="M27.3,0.2H10.6C8.1,0.2,6,2.3,6,4.9v0.8H4.7C2.1,5.7,0,7.8,0,10.4v21.4l7.9-5.2h13.4c2.6,0,4.7-2.1,4.7-4.7l0-0.8h1.3
		c2.6,0,4.7-2.1,4.7-4.7l0-11.5C32,2.3,29.9,0.2,27.3,0.2z M24.1,21.9c0,1.5-1.2,2.7-2.7,2.7h-14L2,28.1V10.4c0-1.5,1.3-2.7,2.7-2.7
		h16.6c1.5,0,2.7,1.2,2.7,2.7L24.1,21.9z M30,16.4c0,1.5-1.2,2.7-2.7,2.7h-1.3l0-8.7c0-2.6-2.1-4.7-4.7-4.7H8V4.9
		c0-1.5,1.2-2.7,2.7-2.7h16.7c1.5,0,2.7,1.2,2.7,2.7L30,16.4z"/>
</g>
</svg>
