<?xml version="1.0" encoding="utf-8"?>
<!-- Generator: Adobe Illustrator 20.1.0, SVG Export Plug-In . SVG Version: 6.00 Build 0)  -->
<svg version="1.1" id="Ebene_1" xmlns="http://www.w3.org/2000/svg" xmlns:xlink="http://www.w3.org/1999/xlink" x="0px" y="0px"
	 viewBox="0 0 32 32" style="enable-background:new 0 0 32 32;" xml:space="preserve">
<g id="bbxZkP_1_">
</g>
<g>
	<path d="M32,15.6L23.6,5.5H1.2v2h21.4l7.4,8.9v5.3h-1.9c-0.4-1.7-1.9-2.9-3.7-2.9S21,20,20.6,21.7h-0.1h-7.8
		c-0.4-1.7-1.9-2.9-3.7-2.9S5.8,20,5.3,21.7h-2v-4h-2v6h4c0.5,1.6,1.9,2.8,3.7,2.8s3.3-1.2,3.7-2.8h7.8h0.1c0.4,1.6,1.9,2.8,3.7,2.8
		s3.3-1.2,3.7-2.8h4V15.6z M9.1,24.5c-1,0-1.9-0.8-1.9-1.9s0.8-1.9,1.9-1.9s1.9,0.8,1.9,1.9S10.1,24.5,9.1,24.5z M24.3,24.5
		c-1,0-1.9-0.8-1.9-1.9s0.8-1.9,1.9-1.9s1.9,0.8,1.9,1.9S25.4,24.5,24.3,24.5z"/>
	<rect x="1.2" y="9.5" width="10.4" height="2"/>
	<rect y="13.6" width="11.6" height="2"/>
</g>
</svg>
