<?xml version="1.0" encoding="utf-8"?>
<!-- Generator: Adobe Illustrator 19.2.1, SVG Export Plug-In . SVG Version: 6.00 Build 0)  -->
<svg version="1.1" id="Ebene_1" xmlns="http://www.w3.org/2000/svg" xmlns:xlink="http://www.w3.org/1999/xlink" x="0px" y="0px"
	 viewBox="0 0 32 32" style="enable-background:new 0 0 32 32;" xml:space="preserve">
<g>
	<path d="M16,31.8L2.3,13.9c0-0.1-1.7-2.1-1.7-5.1c0-4.8,3.9-8.6,8.6-8.6c2.6,0,5,1.2,6.7,3.1c1.6-2,4.1-3.1,6.6-3.1
		c4.8,0,8.6,3.9,8.6,8.6c0,2.9-1.6,5-1.7,5.1L16,31.8z M9.3,2.1c-3.7,0-6.6,3-6.6,6.6c0,2.3,1.2,3.9,1.2,3.9L16,28.4l12-15.8
		c0,0,1.3-1.7,1.3-3.9c0-3.7-3-6.6-6.6-6.6c-2.4,0-4.6,1.3-5.8,3.4L16,7l-0.9-1.5C13.9,3.4,11.7,2.1,9.3,2.1z"/>
</g>
</svg>
