<?xml version="1.0" encoding="utf-8"?>
<!-- Generator: Adobe Illustrator 19.2.1, SVG Export Plug-In . SVG Version: 6.00 Build 0)  -->
<svg version="1.1" id="Ebene_1" xmlns="http://www.w3.org/2000/svg" xmlns:xlink="http://www.w3.org/1999/xlink" x="0px" y="0px"
	 viewBox="0 0 32 32" style="enable-background:new 0 0 32 32;" xml:space="preserve">
<g>
	<rect x="4.2" y="10.1" width="4.3" height="2"/>
	<rect x="4.2" y="14.3" width="8.6" height="2"/>
	<rect x="4.2" y="18.6" width="8.6" height="2"/>
	<path d="M19,4.8c-1.2,0-2.3,0.5-3,1.4c-0.7-0.8-1.8-1.4-3-1.4H0v21.2h13c1.1,0,2,0.9,2,2h2c0-1.1,0.9-2,2-2h13V4.8H19z M15,24.5
		c-0.6-0.3-1.3-0.5-2-0.5H2V6.8h11c1.1,0,2,0.9,2,2V24.5z M30,23.9H19c-0.7,0-1.4,0.2-2,0.5V8.8c0-1.1,0.9-2,2-2h11V23.9z"/>
	<rect x="19.2" y="14.3" width="8.6" height="2"/>
	<rect x="19.2" y="10" width="8.6" height="2"/>
	<rect x="19.2" y="18.6" width="8.6" height="2"/>
</g>
</svg>
