<?xml version="1.0" encoding="utf-8"?>
<!-- Generator: Adobe Illustrator 21.0.2, SVG Export Plug-In . SVG Version: 6.00 Build 0)  -->
<svg version="1.1" id="Ebene_1" xmlns="http://www.w3.org/2000/svg" xmlns:xlink="http://www.w3.org/1999/xlink" x="0px" y="0px"
	 viewBox="0 0 32 32" style="enable-background:new 0 0 0 0;" xml:space="preserve" fill="#4AB54F">
<path d="M27.1,23.4H9.6L9,20.3c3.7,0,14.6,0,18.1,0c1.5,0,2.7-0.5,3.6-1.4c1.5-1.5,1.3-3.7,1.3-3.8V3.8H5.5C4.8,2,2.9,0.9,0.8,1.2
	l0.3,2C2.4,3,3.6,3.7,3.8,5l3.8,18.7c-1.5,0.5-2.5,1.9-2.5,3.5c0,2,1.7,3.7,3.7,3.7s3.7-1.7,3.7-3.7c0-0.6-0.2-1.2-0.4-1.7h11.7
	c-0.3,0.5-0.4,1.1-0.4,1.7c0,2,1.7,3.7,3.7,3.7s3.7-1.7,3.7-3.7C30.8,25.1,29.1,23.5,27.1,23.4z M30,5.8l0,9.4c0,0,0.1,1.5-0.8,2.4
	c-0.5,0.5-1.2,0.8-2.1,0.8c-3.6,0-15.3,0-18.5,0L6,5.8H30z M8.8,28.9c-0.9,0-1.7-0.8-1.7-1.7s0.8-1.7,1.7-1.7c0.9,0,1.7,0.8,1.7,1.7
	S9.7,28.9,8.8,28.9z M27.1,28.9c-0.9,0-1.7-0.8-1.7-1.7s0.8-1.7,1.7-1.7s1.7,0.8,1.7,1.7S28,28.9,27.1,28.9z"/>
</svg>
