<?xml version="1.0" encoding="utf-8"?>
<!-- Generator: Adobe Illustrator 19.2.1, SVG Export Plug-In . SVG Version: 6.00 Build 0)  -->
<svg version="1.1" id="Ebene_1" xmlns="http://www.w3.org/2000/svg" xmlns:xlink="http://www.w3.org/1999/xlink" x="0px" y="0px"
	 viewBox="0 0 32 32" style="enable-background:new 0 0 32 32;" xml:space="preserve">
<g>
	<path d="M16,10.7c2.9,0,5.3,2.4,5.3,5.3S19,21.4,16,21.4c-2.9,0-5.3-2.4-5.3-5.3S13.1,10.7,16,10.7 M16,8.7C12,8.7,8.7,12,8.7,16
		c0,4.1,3.3,7.3,7.3,7.3c4.1,0,7.3-3.3,7.3-7.3C23.4,12,20.1,8.7,16,8.7L16,8.7z"/>
</g>
<g>
	<rect y="15" width="6.4" height="2"/>
</g>
<g>
	<rect x="25.6" y="15" width="6.4" height="2"/>
</g>
<g>
	<rect x="5.9" y="3.8" transform="matrix(0.7071 -0.7071 0.7071 0.7071 -2.8747 6.9402)" width="2" height="6.4"/>
</g>
<g>
	<rect x="24.1" y="21.9" transform="matrix(0.7071 -0.7071 0.7071 0.7071 -10.3802 25.0601)" width="2" height="6.4"/>
</g>
<g>
	<rect x="15" width="2" height="6.4"/>
</g>
<g>
	<rect x="15" y="25.6" width="2" height="6.4"/>
</g>
<g>
	<rect x="21.9" y="5.9" transform="matrix(0.7071 -0.7071 0.7071 0.7071 2.4325 19.7529)" width="6.4" height="2"/>
</g>
<g>
	<rect x="3.8" y="24.1" transform="matrix(0.7071 -0.7071 0.7071 0.7071 -15.6875 12.247)" width="6.4" height="2"/>
</g>
</svg>
