<?xml version="1.0" encoding="utf-8"?>
<!-- Generator: Adobe Illustrator 20.1.0, SVG Export Plug-In . SVG Version: 6.00 Build 0)  -->
<svg version="1.1" id="Ebene_1" xmlns="http://www.w3.org/2000/svg" xmlns:xlink="http://www.w3.org/1999/xlink" x="0px" y="0px"
	 viewBox="0 0 32 32" style="enable-background:new 0 0 32 32;" xml:space="preserve">
<style type="text/css">
	.st0{fill:#1D1D1B;}
</style>
<g>
	<g>
		<path class="st0" d="M9.1,19.3l-1.4-1.4c2.2-2.2,5.2-3.4,8.3-3.4c3.1,0,6.1,1.2,8.3,3.4l-1.4,1.4c-1.8-1.8-4.3-2.9-6.9-2.9
			S11,17.4,9.1,19.3z"/>
	</g>
	<g>
		<path class="st0" d="M16,28.1c-1,0-2.1-0.4-2.9-1.2c-1.6-1.6-1.6-4.1,0-5.7c1.6-1.6,4.1-1.6,5.7,0c1.6,1.6,1.6,4.1,0,5.7
			C18.1,27.7,17,28.1,16,28.1z M16,22c-0.5,0-1.1,0.2-1.5,0.6c-0.8,0.8-0.8,2.1,0,2.9c0.8,0.8,2.1,0.8,2.9,0c0.8-0.8,0.8-2.1,0-2.9
			C17,22.2,16.5,22,16,22z"/>
	</g>
	<g>
		<path class="st0" d="M5.4,15.6L4,14.1c6.6-6.6,17.4-6.6,24,0l-1.4,1.4C20.8,9.7,11.2,9.7,5.4,15.6z"/>
	</g>
	<g>
		<path class="st0" d="M1.7,11.9l-1.4-1.4C9,1.8,23,1.8,31.7,10.4l-1.4,1.4C22.4,4,9.6,4,1.7,11.9z"/>
	</g>
</g>
</svg>
