<?xml version="1.0" encoding="utf-8"?>
<!-- Generator: Adobe Illustrator 20.1.0, SVG Export Plug-In . SVG Version: 6.00 Build 0)  -->
<svg version="1.1" id="Logo_x5F_gross_x5F_cymk" xmlns="http://www.w3.org/2000/svg" xmlns:xlink="http://www.w3.org/1999/xlink"
	 x="0px" y="0px" viewBox="0 0 99.2 99.2" style="enable-background:new 0 0 99.2 99.2;" xml:space="preserve">
<style type="text/css">
	.st0{fill:#FFFFFF;}
	.st1{fill:#E3000F;}
</style>
<g>
	<rect class="st0" width="99.2" height="99.2"/>
</g>
<path class="st1" d="M4.3,4.3V95H95V4.3H4.3z M90.7,90.7H8.5V8.5h82.2V90.7z"/>
<g>
	<rect x="32.6" y="40.2" class="st1" width="16.6" height="16.6"/>
	<rect x="32.6" y="20.8" class="st1" width="16.6" height="16.6"/>
	<polygon class="st1" points="52,56.8 68.6,56.8 52,40.2 	"/>
	<polygon class="st1" points="52,20.8 52,37.4 68.6,20.8 	"/>
	<rect x="51.9" y="66.2" class="st1" width="2.4" height="12"/>
	<path class="st1" d="M81.6,66.2v4.9c-0.4-0.4-1.3-1.1-2.5-1.1c-2.3,0-3.8,1.9-3.8,4.2s1.6,4.1,3.8,4.1c1.3,0,2.1-0.6,2.5-1.1v0.9
		h2.3v-12L81.6,66.2L81.6,66.2z M81.6,75.6c-0.3,0.4-0.9,0.9-1.8,0.9c-1.2,0-2.1-0.9-2.1-2.2c0-1.3,0.9-2.2,2.1-2.2
		c0.9,0,1.5,0.5,1.8,0.9V75.6z"/>
	<path class="st1" d="M62,71.1c-0.5-0.5-1.3-1-2.5-1c-2.2,0-3.8,1.9-3.8,4.2c0,2.3,1.5,4.1,3.8,4.1c1.2,0,2-0.6,2.5-1v0.8h2.3v-8H62
		V71.1z M62,75.7c-0.3,0.4-0.9,0.8-1.7,0.8c-1.2,0-2.1-0.9-2.1-2.2c0-1.3,0.9-2.2,2.1-2.2c0.8,0,1.4,0.4,1.7,0.8V75.7z"/>
	<path class="st1" d="M70.9,70.1c-1.3,0-2.1,0.7-2.5,1.1v-1H66v8h2.3V73c0.3-0.4,0.8-0.9,1.7-0.9c1,0,1.5,0.6,1.5,1.7v4.5h2.4v-4.9
		C73.9,71.4,72.9,70.1,70.9,70.1z"/>
	<path class="st1" d="M40.6,75.5c-0.3,0.4-0.9,0.9-1.7,0.9c-1,0-1.6-0.6-1.6-1.7v-4.5H35v4.9c0,1.9,1.1,3.2,3.1,3.2
		c1.3,0,2.1-0.7,2.6-1.1v1H43v-8h-2.3L40.6,75.5L40.6,75.5z"/>
	<path class="st1" d="M31,71.1c-0.5-0.5-1.3-1-2.5-1c-2.2,0-3.8,1.9-3.8,4.2c0,2.3,1.5,4.1,3.8,4.1c1.2,0,2-0.6,2.5-1v0.8h2.3v-8H31
		V71.1z M31,75.7c-0.3,0.4-0.9,0.8-1.7,0.8c-1.2,0-2.1-0.9-2.1-2.2c0-1.3,0.9-2.2,2.1-2.2c0.8,0,1.4,0.4,1.7,0.8V75.7z"/>
	<polygon class="st1" points="25,66.2 22,66.2 18,71.7 18,66.2 15.3,66.2 15.3,78.3 18,78.3 18,72.8 22,78.3 25.1,78.3 20.5,72.1 	
		"/>
	<path class="st1" d="M49.1,68c0.8,0,1.3,0.3,1.3,0.3l0.4-1.8c0,0-0.6-0.5-2.1-0.5c-2,0-3.2,1.1-3.2,3.2v0.9h-1.2V72h1.2v6.1h2.4V72
		h2.7v-1.9h-2.7v-0.7C47.8,68.5,48.3,68,49.1,68z"/>
</g>
</svg>
