<?xml version="1.0" standalone="no"?>
<!DOCTYPE svg PUBLIC "-//W3C//DTD SVG 1.1//EN" "http://www.w3.org/Graphics/SVG/1.1/DTD/svg11.dtd" >
<svg xmlns="http://www.w3.org/2000/svg" xmlns:xlink="http://www.w3.org/1999/xlink" version="1.1">
<metadata>
Created by FontForge 20160402 at Wed Jun 29 19:31:03 2016
 By PreussType | Ingo Preuss
Copyright (c) 2016 by Hubert Jocham. All rights reserved.
</metadata>
<defs>
<font id="Kaufland-Regular" horiz-adv-x="1143" >
  <font-face 
    font-family="Kaufland Regular"
    font-weight="400"
    font-stretch="normal"
    units-per-em="2048"
    panose-1="2 11 5 3 4 0 0 2 0 3"
    ascent="1638"
    descent="-410"
    x-height="928"
    cap-height="1434"
    bbox="-1489 -689.483 2286 3112.69"
    underline-thickness="102"
    underline-position="-205"
    unicode-range="U+0020-FB02"
  />
<missing-glyph horiz-adv-x="1024" 
d="M840 -410h-650v2048h650v-2048zM344 1501v-68h133v-76h-135v-67h340v67h-135v76h135v68h-338zM342 1237v-213h340v69h-135v144h-205zM477 1093h-67v74h67v-74zM342 968v-67h135v-76h-135v-68h205v144h135v67h-340zM614 845v-135h-272v-69h340v204h-68zM477 596v-115h70
v47h67v-96h-204v164h-68v-232h340v232h-205zM342 241v-231h340v231h-340zM614 77h-204v97h204v-97zM342 -37v-68h143l-143 -96v-68h340v68h-209l143 96h66v68h-340z" />
    <glyph glyph-name="uniFB01" unicode="fi" horiz-adv-x="1272" 
d="M80 0zM404 928h364v-118h-364v-810h-138v810h-186v118h186v166q0 115 39.5 196t111.5 122.5t168 41.5q65 0 111.5 -12t72.5 -25.5t26 -15.5l-37 -111q0 1 -22 12t-58 20.5t-80 9.5q-91 0 -142.5 -61t-51.5 -182v-161zM989.5 1147.5q-25.5 24.5 -25.5 61.5q0 38 25 63
t65 25q41 0 65.5 -24.5t24.5 -63.5q0 -37 -24.5 -61.5t-64.5 -24.5t-65.5 24.5zM984 928h140v-928h-140v928z" />
    <glyph glyph-name="uniFB02" unicode="fl" horiz-adv-x="1272" 
d="M80 0zM404 928h364v-118h-364v-810h-138v810h-186v118h186v166q0 115 39.5 196t111.5 122.5t168 41.5q65 0 111.5 -12t72.5 -25.5t26 -15.5l-37 -111q0 1 -22 12t-58 20.5t-80 9.5q-91 0 -142.5 -61t-51.5 -182v-161zM984 1434h141v-1434h-141v1434z" />
    <glyph glyph-name=".notdef" horiz-adv-x="1024" 
d="M840 -410h-650v2048h650v-2048zM344 1501v-68h133v-76h-135v-67h340v67h-135v76h135v68h-338zM342 1237v-213h340v69h-135v144h-205zM477 1093h-67v74h67v-74zM342 968v-67h135v-76h-135v-68h205v144h135v67h-340zM614 845v-135h-272v-69h340v204h-68zM477 596v-115h70
v47h67v-96h-204v164h-68v-232h340v232h-205zM342 241v-231h340v231h-340zM614 77h-204v97h204v-97zM342 -37v-68h143l-143 -96v-68h340v68h-209l143 96h66v68h-340z" />
    <glyph glyph-name="space" unicode=" " horiz-adv-x="532" 
 />
    <glyph glyph-name="A" unicode="A" horiz-adv-x="1481" 
d="M1052 499h-624l-208 -499h-150l606 1434h148l587 -1434h-159zM1002 624l-257 638l-265 -638h522z" />
    <glyph glyph-name="Aacute" unicode="&#xc1;" horiz-adv-x="1481" 
d="M70 0zM1052 499h-624l-208 -499h-150l606 1434h148l587 -1434h-159zM1002 624l-257 638l-265 -638h522zM561 1658l374 120v-129l-374 -110v119z" />
    <glyph glyph-name="Abreve" unicode="&#x102;" horiz-adv-x="1481" 
d="M70 0zM1052 499h-624l-208 -499h-150l606 1434h148l587 -1434h-159zM1002 624l-257 638l-265 -638h522zM593 1574.5q-66 29.5 -103.5 64t-37.5 39.5v122q0 -5 40 -43.5t106.5 -71t152.5 -32.5t152 32.5t106 71t40 43.5v-122q0 -5 -38.5 -39.5t-105 -64t-157.5 -29.5
q-89 0 -155 29.5z" />
    <glyph glyph-name="Acircumflex" unicode="&#xc2;" horiz-adv-x="1481" 
d="M70 0zM1052 499h-624l-208 -499h-150l606 1434h148l587 -1434h-159zM1002 624l-257 638l-265 -638h522zM470 1649l281 145l280 -145v-115l-280 132l-281 -132v115z" />
    <glyph glyph-name="Adieresis" unicode="&#xc4;" horiz-adv-x="1481" 
d="M70 0zM1052 499h-624l-208 -499h-150l606 1434h148l587 -1434h-159zM1002 624l-257 638l-265 -638h522zM532.5 1580.5q-24.5 24.5 -24.5 61.5q0 38 24.5 62.5t63.5 24.5t63.5 -24.5t24.5 -62.5q0 -37 -24.5 -61.5t-63.5 -24.5t-63.5 24.5zM838.5 1580.5
q-24.5 24.5 -24.5 61.5q0 38 24 62.5t63 24.5t63.5 -24.5t24.5 -62.5q0 -37 -24.5 -61.5t-62.5 -24.5q-39 0 -63.5 24.5z" />
    <glyph glyph-name="Agrave" unicode="&#xc0;" horiz-adv-x="1481" 
d="M70 0zM1052 499h-624l-208 -499h-150l606 1434h148l587 -1434h-159zM1002 624l-257 638l-265 -638h522zM542 1649v129l374 -120v-119z" />
    <glyph glyph-name="Amacron" unicode="&#x100;" horiz-adv-x="1481" 
d="M70 0zM1052 499h-624l-208 -499h-150l606 1434h148l587 -1434h-159zM1002 624l-257 638l-265 -638h522zM501 1688h498v-113h-498v113z" />
    <glyph glyph-name="Aogonek" unicode="&#x104;" horiz-adv-x="1481" 
d="M1376 -318q36 10 60.5 22t24.5 13v-95q0 -2 -22.5 -15.5t-63 -25t-97.5 -11.5q-96 0 -153.5 46.5t-57.5 128.5q0 87 61 154t149 101h-25l-200 499h-624l-208 -499h-150l606 1434h148l587 -1434q-93 -44 -158 -103.5t-65 -130.5q0 -43 27 -68.5t84 -25.5q41 0 77 10z
M1002 624l-257 638l-265 -638h522z" />
    <glyph glyph-name="Aring" unicode="&#xc5;" horiz-adv-x="1481" 
d="M70 0zM1052 499h-624l-208 -499h-150l606 1434h148l587 -1434h-159zM1002 624l-257 638l-265 -638h522zM649 1516q-46 23 -71.5 64.5t-25.5 95.5q0 56 25.5 98.5t71.5 66t104 23.5q87 0 141 -51.5t54 -136.5q0 -54 -24.5 -95.5t-69 -64.5t-101.5 -23q-58 0 -104 23z
M821 1608q27 27 27 70t-27 70.5t-69 27.5q-43 0 -71 -27.5t-28 -70.5t28 -70t71 -27q42 0 69 27z" />
    <glyph glyph-name="Atilde" unicode="&#xc3;" horiz-adv-x="1481" 
d="M70 0zM1052 499h-624l-208 -499h-150l606 1434h148l587 -1434h-159zM1002 624l-257 638l-265 -638h522zM808 1553.5q-35 12.5 -78 37.5q-37 21 -63.5 31.5t-62.5 10.5q-42 0 -76 -18t-55 -39t-21 -24v122q0 3 21.5 22t57.5 35.5t82 16.5q51 0 87 -13t79 -38
q37 -21 63 -31t59 -10q44 0 76.5 17.5t51 37.5t18.5 23v-119q0 -3 -19 -22t-53.5 -35.5t-81.5 -16.5q-50 0 -85 12.5z" />
    <glyph glyph-name="AE" unicode="&#xc6;" horiz-adv-x="2022" 
d="M1893 131v-131h-894v663h-379l-385 -663h-165l848 1433l81 1h873v-132h-723v-505h618v-129h-618v-537h744zM999 791v524l-305 -524h305z" />
    <glyph glyph-name="B" unicode="B" horiz-adv-x="1273" 
d="M1066.5 622.5q79.5 -91.5 79.5 -228.5q0 -113 -55 -202.5t-158 -140.5t-241 -51h-497v1434h442q131 0 227 -45.5t147 -127.5t51 -191q0 -112 -55.5 -194.5t-152.5 -127.5q133 -34 212.5 -125.5zM345 1311v-519h283q88 0 153.5 34t101 95t35.5 139q0 121 -73 186t-220 65
h-280zM915.5 197q80.5 73 80.5 201q0 82 -38.5 145t-109.5 97.5t-164 34.5h-339v-551h338q152 0 232.5 73z" />
    <glyph glyph-name="C" unicode="C" horiz-adv-x="1326" 
d="M467.5 76.5q-162.5 96.5 -251.5 265t-89 375.5q0 211 91.5 379t253.5 263t367 95q113 0 197.5 -21t133.5 -45.5t49 -28.5l-58 -122q0 3 -40.5 23t-110.5 37.5t-166 17.5q-164 0 -292.5 -76t-200 -211.5t-71.5 -308.5q0 -175 71.5 -311.5t200 -212.5t293.5 -76
q95 0 165.5 17.5t111 37.5t40.5 23l58 -121q0 -4 -49 -28.5t-133.5 -46t-197.5 -21.5q-210 0 -372.5 96.5z" />
    <glyph glyph-name="Cacute" unicode="&#x106;" horiz-adv-x="1326" 
d="M127 0zM467.5 76.5q-162.5 96.5 -251.5 265t-89 375.5q0 211 91.5 379t253.5 263t367 95q113 0 197.5 -21t133.5 -45.5t49 -28.5l-58 -122q0 3 -40.5 23t-110.5 37.5t-166 17.5q-164 0 -292.5 -76t-200 -211.5t-71.5 -308.5q0 -175 71.5 -311.5t200 -212.5t293.5 -76
q95 0 165.5 17.5t111 37.5t40.5 23l58 -121q0 -4 -49 -28.5t-133.5 -46t-197.5 -21.5q-210 0 -372.5 96.5zM647 1658l374 120v-129l-374 -110v119z" />
    <glyph glyph-name="Ccaron" unicode="&#x10c;" horiz-adv-x="1326" 
d="M127 0zM467.5 76.5q-162.5 96.5 -251.5 265t-89 375.5q0 211 91.5 379t253.5 263t367 95q113 0 197.5 -21t133.5 -45.5t49 -28.5l-58 -122q0 3 -40.5 23t-110.5 37.5t-166 17.5q-164 0 -292.5 -76t-200 -211.5t-71.5 -308.5q0 -175 71.5 -311.5t200 -212.5t293.5 -76
q95 0 165.5 17.5t111 37.5t40.5 23l58 -121q0 -4 -49 -28.5t-133.5 -46t-197.5 -21.5q-210 0 -372.5 96.5zM556 1671v115l281 -133l280 133v-115l-280 -146z" />
    <glyph glyph-name="Ccedilla" unicode="&#xc7;" horiz-adv-x="1326" 
d="M998 -157.5q46 -33.5 46 -101.5q0 -79 -64.5 -125t-170.5 -46q-64 0 -116 13t-84.5 28t-32.5 17v101q0 -2 35.5 -19.5t87 -32t107.5 -14.5q59 0 92.5 19t33.5 55q0 35 -29.5 50t-99.5 25l-123 18l101 152q-195 14 -343.5 113t-229.5 261.5t-81 360.5q0 211 91.5 379
t253.5 263t367 95q113 0 197.5 -21t133.5 -45.5t49 -28.5l-58 -122q0 3 -40.5 23t-110.5 37.5t-166 17.5q-164 0 -292.5 -76t-200 -211.5t-71.5 -308.5q0 -175 71.5 -311.5t200 -212.5t293.5 -76q95 0 165.5 17.5t111 37.5t40.5 23l58 -121q0 -3 -45 -26.5t-122.5 -44.5
t-181.5 -25l-54 -83l49 -8q86 -13 132 -46.5z" />
    <glyph glyph-name="Cdotaccent" unicode="&#x10a;" horiz-adv-x="1326" 
d="M127 0zM467.5 76.5q-162.5 96.5 -251.5 265t-89 375.5q0 211 91.5 379t253.5 263t367 95q113 0 197.5 -21t133.5 -45.5t49 -28.5l-58 -122q0 3 -40.5 23t-110.5 37.5t-166 17.5q-164 0 -292.5 -76t-200 -211.5t-71.5 -308.5q0 -175 71.5 -311.5t200 -212.5t293.5 -76
q95 0 165.5 17.5t111 37.5t40.5 23l58 -121q0 -4 -49 -28.5t-133.5 -46t-197.5 -21.5q-210 0 -372.5 96.5zM768.5 1579.5q-25.5 24.5 -25.5 61.5q0 38 25.5 63t65.5 25q41 0 65.5 -24.5t24.5 -63.5q0 -37 -25 -61.5t-65 -24.5t-65.5 24.5z" />
    <glyph glyph-name="D" unicode="D" horiz-adv-x="1513" 
d="M195 1434h471q216 0 379 -91t252 -253.5t89 -371.5q0 -213 -92 -376t-256.5 -252.5t-376.5 -89.5h-466v1434zM665 127q169 0 298 73t200 207t71 312q0 177 -71 309.5t-200 204.5t-299 72h-319v-1178h320z" />
    <glyph glyph-name="Eth" unicode="&#xd0;" horiz-adv-x="1513" 
d="M1045 1343q163 -91 252 -253.5t89 -371.5q0 -213 -92 -376t-256.5 -252.5t-376.5 -89.5h-466v669h-164v128h164v637h471q216 0 379 -91zM963 200q129 73 200 207t71 312q0 177 -71 309.5t-200 204.5t-299 72h-319v-508h424v-128h-424v-542h320q169 0 298 73z" />
    <glyph glyph-name="Dcaron" unicode="&#x10e;" horiz-adv-x="1513" 
d="M195 0zM195 1434h471q216 0 379 -91t252 -253.5t89 -371.5q0 -213 -92 -376t-256.5 -252.5t-376.5 -89.5h-466v1434zM665 127q169 0 298 73t200 207t71 312q0 177 -71 309.5t-200 204.5t-299 72h-319v-1178h320zM438 1671v115l281 -133l280 133v-115l-280 -146z" />
    <glyph glyph-name="Dcroat" unicode="&#x110;" horiz-adv-x="1513" 
d="M31 0zM1045 1343q163 -91 252 -253.5t89 -371.5q0 -213 -92 -376t-256.5 -252.5t-376.5 -89.5h-466v669h-164v128h164v637h471q216 0 379 -91zM963 200q129 73 200 207t71 312q0 177 -71 309.5t-200 204.5t-299 72h-319v-508h424v-128h-424v-542h320q169 0 298 73z" />
    <glyph glyph-name="E" unicode="E" horiz-adv-x="1216" 
d="M1088 132v-132h-893v1434h873v-132h-723v-505h617v-127h-617v-538h743z" />
    <glyph glyph-name="Eacute" unicode="&#xc9;" horiz-adv-x="1216" 
d="M195 0zM1088 132v-132h-893v1434h873v-132h-723v-505h617v-127h-617v-538h743zM450 1658l374 120v-129l-374 -110v119z" />
    <glyph glyph-name="Ecaron" unicode="&#x11a;" horiz-adv-x="1216" 
d="M195 0zM1088 132v-132h-893v1434h873v-132h-723v-505h617v-127h-617v-538h743zM359 1671v115l281 -133l280 133v-115l-280 -146z" />
    <glyph glyph-name="Ecircumflex" unicode="&#xca;" horiz-adv-x="1216" 
d="M195 0zM1088 132v-132h-893v1434h873v-132h-723v-505h617v-127h-617v-538h743zM359 1649l281 145l280 -145v-115l-280 132l-281 -132v115z" />
    <glyph glyph-name="Edieresis" unicode="&#xcb;" horiz-adv-x="1216" 
d="M195 0zM1088 132v-132h-893v1434h873v-132h-723v-505h617v-127h-617v-538h743zM421.5 1580.5q-24.5 24.5 -24.5 61.5q0 38 24.5 62.5t63.5 24.5t63.5 -24.5t24.5 -62.5q0 -37 -24.5 -61.5t-63.5 -24.5t-63.5 24.5zM727.5 1580.5q-24.5 24.5 -24.5 61.5q0 38 24 62.5
t63 24.5t63.5 -24.5t24.5 -62.5q0 -37 -24.5 -61.5t-62.5 -24.5q-39 0 -63.5 24.5z" />
    <glyph glyph-name="Edotaccent" unicode="&#x116;" horiz-adv-x="1216" 
d="M195 0zM1088 132v-132h-893v1434h873v-132h-723v-505h617v-127h-617v-538h743zM571.5 1579.5q-25.5 24.5 -25.5 61.5q0 38 25.5 63t65.5 25q41 0 65.5 -24.5t24.5 -63.5q0 -37 -25 -61.5t-65 -24.5t-65.5 24.5z" />
    <glyph glyph-name="Egrave" unicode="&#xc8;" horiz-adv-x="1216" 
d="M195 0zM1088 132v-132h-893v1434h873v-132h-723v-505h617v-127h-617v-538h743zM431 1649v129l374 -120v-119z" />
    <glyph glyph-name="Emacron" unicode="&#x112;" horiz-adv-x="1216" 
d="M195 0zM1088 132v-132h-893v1434h873v-132h-723v-505h617v-127h-617v-538h743zM390 1688h498v-113h-498v113z" />
    <glyph glyph-name="Eogonek" unicode="&#x118;" horiz-adv-x="1216" 
d="M1053 -318q36 10 60.5 22t24.5 13v-95q0 -2 -22.5 -15.5t-63 -25t-97.5 -11.5q-96 0 -153.5 46.5t-57.5 128.5q0 87 61 154t149 101h-759v1434h873v-132h-723v-505h617v-127h-617v-538h743v-132q-93 -44 -158 -103.5t-65 -130.5q0 -43 27 -68.5t84 -25.5q41 0 77 10z" />
    <glyph glyph-name="F" unicode="F" horiz-adv-x="1160" 
d="M345 1302v-526h620v-128h-620v-648h-150v1434h855v-132h-705z" />
    <glyph glyph-name="G" unicode="G" horiz-adv-x="1518" 
d="M474.5 76q-165.5 96 -256.5 263.5t-91 375.5q0 210 91 378.5t254 264.5t369 96q97 0 191.5 -20.5t170 -55t119.5 -77.5l-67 -112q0 5 -51.5 39t-142 63.5t-214.5 29.5q-168 0 -297.5 -78t-200.5 -216t-71 -312q0 -178 73.5 -317t205 -216t300.5 -77q108 0 187 20
t124 43.5t45 26.5v473h-381v121h520v-647q0 -6 -65 -48t-175.5 -78t-257.5 -36q-214 0 -379.5 96z" />
    <glyph glyph-name="Gbreve" unicode="&#x11e;" horiz-adv-x="1518" 
d="M127 0zM474.5 76q-165.5 96 -256.5 263.5t-91 375.5q0 210 91 378.5t254 264.5t369 96q97 0 191.5 -20.5t170 -55t119.5 -77.5l-67 -112q0 5 -51.5 39t-142 63.5t-214.5 29.5q-168 0 -297.5 -78t-200.5 -216t-71 -312q0 -178 73.5 -317t205 -216t300.5 -77q108 0 187 20
t124 43.5t45 26.5v473h-381v121h520v-647q0 -6 -65 -48t-175.5 -78t-257.5 -36q-214 0 -379.5 96zM683 1574.5q-66 29.5 -103.5 64t-37.5 39.5v122q0 -5 40 -43.5t106.5 -71t152.5 -32.5t152 32.5t106 71t40 43.5v-122q0 -5 -38.5 -39.5t-105 -64t-157.5 -29.5
q-89 0 -155 29.5z" />
    <glyph glyph-name="Gcommaaccent" unicode="&#x122;" horiz-adv-x="1518" 
d="M127 0zM474.5 76q-165.5 96 -256.5 263.5t-91 375.5q0 210 91 378.5t254 264.5t369 96q97 0 191.5 -20.5t170 -55t119.5 -77.5l-67 -112q0 5 -51.5 39t-142 63.5t-214.5 29.5q-168 0 -297.5 -78t-200.5 -216t-71 -312q0 -178 73.5 -317t205 -216t300.5 -77q108 0 187 20
t124 43.5t45 26.5v473h-381v121h520v-647q0 -6 -65 -48t-175.5 -78t-257.5 -36q-214 0 -379.5 96zM783 -90h137l-88 -340h-130z" />
    <glyph glyph-name="Gdotaccent" unicode="&#x120;" horiz-adv-x="1518" 
d="M127 0zM474.5 76q-165.5 96 -256.5 263.5t-91 375.5q0 210 91 378.5t254 264.5t369 96q97 0 191.5 -20.5t170 -55t119.5 -77.5l-67 -112q0 5 -51.5 39t-142 63.5t-214.5 29.5q-168 0 -297.5 -78t-200.5 -216t-71 -312q0 -178 73.5 -317t205 -216t300.5 -77q108 0 187 20
t124 43.5t45 26.5v473h-381v121h520v-647q0 -6 -65 -48t-175.5 -78t-257.5 -36q-214 0 -379.5 96zM772.5 1579.5q-25.5 24.5 -25.5 61.5q0 38 25.5 63t65.5 25q41 0 65.5 -24.5t24.5 -63.5q0 -37 -25 -61.5t-65 -24.5t-65.5 24.5z" />
    <glyph glyph-name="H" unicode="H" horiz-adv-x="1519" 
d="M1324 1434v-1434h-150v671h-829v-671h-150v1434h150v-632h829v632h150z" />
    <glyph glyph-name="Hbar" unicode="&#x126;" horiz-adv-x="1519" 
d="M1452 1028h-128v-1028h-150v671h-829v-671h-150v1028h-130v113h130v293h150v-293h829v293h150v-293h128v-113zM1174 1028h-829v-226h829v226z" />
    <glyph glyph-name="I" unicode="I" horiz-adv-x="540" 
d="M195 1434h150v-1434h-150v1434z" />
    <glyph glyph-name="Iacute" unicode="&#xcd;" horiz-adv-x="540" 
d="M82 0zM195 1434h150v-1434h-150v1434zM82 1658l374 120v-129l-374 -110v119z" />
    <glyph glyph-name="Icircumflex" unicode="&#xce;" horiz-adv-x="540" 
d="M0 0zM195 1434h150v-1434h-150v1434zM-9 1649l281 145l280 -145v-115l-280 132l-281 -132v115z" />
    <glyph glyph-name="Idieresis" unicode="&#xcf;" horiz-adv-x="540" 
d="M29 0zM195 1434h150v-1434h-150v1434zM53.5 1580.5q-24.5 24.5 -24.5 61.5q0 38 24.5 62.5t63.5 24.5t63.5 -24.5t24.5 -62.5q0 -37 -24.5 -61.5t-63.5 -24.5t-63.5 24.5zM359.5 1580.5q-24.5 24.5 -24.5 61.5q0 38 24 62.5t63 24.5t63.5 -24.5t24.5 -62.5
q0 -37 -24.5 -61.5t-62.5 -24.5q-39 0 -63.5 24.5z" />
    <glyph glyph-name="Idotaccent" unicode="&#x130;" horiz-adv-x="540" 
d="M178 0zM195 1434h150v-1434h-150v1434zM203.5 1579.5q-25.5 24.5 -25.5 61.5q0 38 25.5 63t65.5 25q41 0 65.5 -24.5t24.5 -63.5q0 -37 -25 -61.5t-65 -24.5t-65.5 24.5z" />
    <glyph glyph-name="Igrave" unicode="&#xcc;" horiz-adv-x="540" 
d="M63 0zM195 1434h150v-1434h-150v1434zM63 1649v129l374 -120v-119z" />
    <glyph glyph-name="Imacron" unicode="&#x12a;" horiz-adv-x="540" 
d="M22 0zM195 1434h150v-1434h-150v1434zM22 1688h498v-113h-498v113z" />
    <glyph glyph-name="Iogonek" unicode="&#x12e;" horiz-adv-x="540" 
d="M311 -318q36 10 60.5 22t24.5 13v-95q0 -2 -22.5 -15.5t-63 -25t-97.5 -11.5q-96 0 -153.5 46.5t-57.5 128.5q0 87 61 154t149 101h-17v1434h150v-1432l1 -2q-93 -44 -158 -103.5t-65 -130.5q0 -43 27 -68.5t84 -25.5q41 0 77 10z" />
    <glyph glyph-name="J" unicode="J" horiz-adv-x="671" 
d="M99.5 -19q-20.5 3 -26.5 4l13 128q4 -1 17 -2.5t27 -1.5q93 0 144.5 58t51.5 183v1084h150v-1091q0 -182 -91 -273.5t-244 -91.5q-21 0 -41.5 3z" />
    <glyph glyph-name="K" unicode="K" horiz-adv-x="1262" 
d="M1004 0l-661 674v-674h-148v1434h148v-664l649 664h183l-698 -701l715 -733h-188z" />
    <glyph glyph-name="Kcommaaccent" unicode="&#x136;" horiz-adv-x="1262" 
d="M195 0zM1004 0l-661 674v-674h-148v1434h148v-664l649 664h183l-698 -701l715 -733h-188zM590 -90h137l-88 -340h-130z" />
    <glyph glyph-name="L" unicode="L" horiz-adv-x="1147" 
d="M195 1434h150v-1306h702v-128h-852v1434z" />
    <glyph glyph-name="Lacute" unicode="&#x139;" horiz-adv-x="1147" 
d="M195 0zM195 1434h150v-1306h702v-128h-852v1434zM268 1658l374 120v-129l-374 -110v119z" />
    <glyph glyph-name="Lcaron" unicode="&#x13d;" horiz-adv-x="1147" 
d="M195 0zM195 1434h150v-1306h702v-128h-852v1434zM610 1434h115l-48 -406h-67v406z" />
    <glyph glyph-name="Lcommaaccent" unicode="&#x13b;" horiz-adv-x="1147" 
d="M195 0zM195 1434h150v-1306h702v-128h-852v1434zM547 -90h137l-88 -340h-130z" />
    <glyph glyph-name="Ldot" unicode="&#x13f;" horiz-adv-x="1147" 
d="M195 1434h150v-1306h702v-128h-852v1434zM627 526q-25 25 -25 62q0 39 25 64t65 25t64.5 -25t24.5 -64q0 -37 -25 -62t-64 -25q-40 0 -65 25z" />
    <glyph glyph-name="Lslash" unicode="&#x141;" horiz-adv-x="1147" 
d="M1047 128v-128h-852v520l-166 -96v137l166 97v776h150v-688l421 247v-145l-421 -242v-478h702z" />
    <glyph glyph-name="M" unicode="M" horiz-adv-x="1720" 
d="M1526 0h-142v1267l-479 -882h-113l-460 882v-1267h-137v1434h195l464 -888l478 888h194v-1434z" />
    <glyph glyph-name="N" unicode="N" horiz-adv-x="1560" 
d="M1365 1434v-1434h-141l-891 1212v-1212h-138v1434h142l890 -1209v1209h138z" />
    <glyph glyph-name="Nacute" unicode="&#x143;" horiz-adv-x="1560" 
d="M195 0zM1365 1434v-1434h-141l-891 1212v-1212h-138v1434h142l890 -1209v1209h138zM605 1658l374 120v-129l-374 -110v119z" />
    <glyph glyph-name="Ncaron" unicode="&#x147;" horiz-adv-x="1560" 
d="M195 0zM1365 1434v-1434h-141l-891 1212v-1212h-138v1434h142l890 -1209v1209h138zM514 1671v115l281 -133l280 133v-115l-280 -146z" />
    <glyph glyph-name="Ncommaaccent" unicode="&#x145;" horiz-adv-x="1560" 
d="M195 0zM1365 1434v-1434h-141l-891 1212v-1212h-138v1434h142l890 -1209v1209h138zM732 -90h137l-88 -340h-130z" />
    <glyph glyph-name="Eng" unicode="&#x14a;" horiz-adv-x="1559" 
d="M1365 1434v-1520q0 -114 -40.5 -191.5t-113 -115t-167.5 -37.5q-16 0 -31.5 1.5t-20.5 2.5l12 117q3 0 12.5 -1t21.5 -1q188 0 188 226v85l-893 1202v-1202h-138v1434h144l887 -1198v1198h139z" />
    <glyph glyph-name="Ntilde" unicode="&#xd1;" horiz-adv-x="1560" 
d="M195 0zM1365 1434v-1434h-141l-891 1212v-1212h-138v1434h142l890 -1209v1209h138zM852 1553.5q-35 12.5 -78 37.5q-37 21 -63.5 31.5t-62.5 10.5q-42 0 -76 -18t-55 -39t-21 -24v122q0 3 21.5 22t57.5 35.5t82 16.5q51 0 87 -13t79 -38q37 -21 63 -31t59 -10
q44 0 76.5 17.5t51 37.5t18.5 23v-119q0 -3 -19 -22t-53.5 -35.5t-81.5 -16.5q-50 0 -85 12.5z" />
    <glyph glyph-name="O" unicode="O" horiz-adv-x="1685" 
d="M469.5 76.5q-162.5 96.5 -252.5 264.5t-90 375q0 211 92.5 379t255.5 263.5t367 95.5q209 0 372 -96t253.5 -264t90.5 -375q0 -211 -92.5 -379.5t-255.5 -264t-368 -95.5q-210 0 -372.5 96.5zM1132.5 192.5q128.5 76.5 200.5 213.5t72 312q0 174 -72.5 311t-200.5 214
t-290 77q-163 0 -291 -77t-199.5 -214t-71.5 -311q0 -175 71.5 -312t199.5 -213.5t291 -76.5q162 0 290.5 76.5z" />
    <glyph glyph-name="Oacute" unicode="&#xd3;" horiz-adv-x="1685" 
d="M127 0zM469.5 76.5q-162.5 96.5 -252.5 264.5t-90 375q0 211 92.5 379t255.5 263.5t367 95.5q209 0 372 -96t253.5 -264t90.5 -375q0 -211 -92.5 -379.5t-255.5 -264t-368 -95.5q-210 0 -372.5 96.5zM1132.5 192.5q128.5 76.5 200.5 213.5t72 312q0 174 -72.5 311
t-200.5 214t-290 77q-163 0 -291 -77t-199.5 -214t-71.5 -311q0 -175 71.5 -312t199.5 -213.5t291 -76.5q162 0 290.5 76.5zM654 1658l374 120v-129l-374 -110v119z" />
    <glyph glyph-name="Ocircumflex" unicode="&#xd4;" horiz-adv-x="1685" 
d="M127 0zM469.5 76.5q-162.5 96.5 -252.5 264.5t-90 375q0 211 92.5 379t255.5 263.5t367 95.5q209 0 372 -96t253.5 -264t90.5 -375q0 -211 -92.5 -379.5t-255.5 -264t-368 -95.5q-210 0 -372.5 96.5zM1132.5 192.5q128.5 76.5 200.5 213.5t72 312q0 174 -72.5 311
t-200.5 214t-290 77q-163 0 -291 -77t-199.5 -214t-71.5 -311q0 -175 71.5 -312t199.5 -213.5t291 -76.5q162 0 290.5 76.5zM563 1649l281 145l280 -145v-115l-280 132l-281 -132v115z" />
    <glyph glyph-name="Odieresis" unicode="&#xd6;" horiz-adv-x="1685" 
d="M127 0zM469.5 76.5q-162.5 96.5 -252.5 264.5t-90 375q0 211 92.5 379t255.5 263.5t367 95.5q209 0 372 -96t253.5 -264t90.5 -375q0 -211 -92.5 -379.5t-255.5 -264t-368 -95.5q-210 0 -372.5 96.5zM1132.5 192.5q128.5 76.5 200.5 213.5t72 312q0 174 -72.5 311
t-200.5 214t-290 77q-163 0 -291 -77t-199.5 -214t-71.5 -311q0 -175 71.5 -312t199.5 -213.5t291 -76.5q162 0 290.5 76.5zM625.5 1580.5q-24.5 24.5 -24.5 61.5q0 38 24.5 62.5t63.5 24.5t63.5 -24.5t24.5 -62.5q0 -37 -24.5 -61.5t-63.5 -24.5t-63.5 24.5zM931.5 1580.5
q-24.5 24.5 -24.5 61.5q0 38 24 62.5t63 24.5t63.5 -24.5t24.5 -62.5q0 -37 -24.5 -61.5t-62.5 -24.5q-39 0 -63.5 24.5z" />
    <glyph glyph-name="Ograve" unicode="&#xd2;" horiz-adv-x="1685" 
d="M127 0zM469.5 76.5q-162.5 96.5 -252.5 264.5t-90 375q0 211 92.5 379t255.5 263.5t367 95.5q209 0 372 -96t253.5 -264t90.5 -375q0 -211 -92.5 -379.5t-255.5 -264t-368 -95.5q-210 0 -372.5 96.5zM1132.5 192.5q128.5 76.5 200.5 213.5t72 312q0 174 -72.5 311
t-200.5 214t-290 77q-163 0 -291 -77t-199.5 -214t-71.5 -311q0 -175 71.5 -312t199.5 -213.5t291 -76.5q162 0 290.5 76.5zM635 1649v129l374 -120v-119z" />
    <glyph glyph-name="Ohungarumlaut" unicode="&#x150;" horiz-adv-x="1685" 
d="M127 0zM469.5 76.5q-162.5 96.5 -252.5 264.5t-90 375q0 211 92.5 379t255.5 263.5t367 95.5q209 0 372 -96t253.5 -264t90.5 -375q0 -211 -92.5 -379.5t-255.5 -264t-368 -95.5q-210 0 -372.5 96.5zM1132.5 192.5q128.5 76.5 200.5 213.5t72 312q0 174 -72.5 311
t-200.5 214t-290 77q-163 0 -291 -77t-199.5 -214t-71.5 -311q0 -175 71.5 -312t199.5 -213.5t291 -76.5q162 0 290.5 76.5zM821 1748h144l-164 -204h-128zM1107 1748h154l-221 -204h-124z" />
    <glyph glyph-name="Omacron" unicode="&#x14c;" horiz-adv-x="1685" 
d="M127 0zM469.5 76.5q-162.5 96.5 -252.5 264.5t-90 375q0 211 92.5 379t255.5 263.5t367 95.5q209 0 372 -96t253.5 -264t90.5 -375q0 -211 -92.5 -379.5t-255.5 -264t-368 -95.5q-210 0 -372.5 96.5zM1132.5 192.5q128.5 76.5 200.5 213.5t72 312q0 174 -72.5 311
t-200.5 214t-290 77q-163 0 -291 -77t-199.5 -214t-71.5 -311q0 -175 71.5 -312t199.5 -213.5t291 -76.5q162 0 290.5 76.5zM594 1688h498v-113h-498v113z" />
    <glyph glyph-name="Oslash" unicode="&#xd8;" horiz-adv-x="1685" 
d="M1481 1069q77 -158 77 -350q0 -211 -92.5 -379.5t-255.5 -264t-368 -95.5q-153 0 -286 54l-96 -175h-140l127 232q-151 96 -235.5 260.5t-84.5 364.5q0 211 92.5 379t255.5 263.5t367 95.5q172 0 317 -67l103 188h140l-137 -250q139 -98 216 -256zM342 425
q62 -130 174 -209l576 1049q-116 55 -250 55q-163 0 -291 -77t-199.5 -214t-71.5 -311q0 -163 62 -293zM1132.5 192.5q128.5 76.5 200.5 213.5t72 312q0 151 -55 275.5t-155 205.5l-572 -1042q100 -41 219 -41q162 0 290.5 76.5z" />
    <glyph glyph-name="Otilde" unicode="&#xd5;" horiz-adv-x="1685" 
d="M127 0zM469.5 76.5q-162.5 96.5 -252.5 264.5t-90 375q0 211 92.5 379t255.5 263.5t367 95.5q209 0 372 -96t253.5 -264t90.5 -375q0 -211 -92.5 -379.5t-255.5 -264t-368 -95.5q-210 0 -372.5 96.5zM1132.5 192.5q128.5 76.5 200.5 213.5t72 312q0 174 -72.5 311
t-200.5 214t-290 77q-163 0 -291 -77t-199.5 -214t-71.5 -311q0 -175 71.5 -312t199.5 -213.5t291 -76.5q162 0 290.5 76.5zM901 1553.5q-35 12.5 -78 37.5q-37 21 -63.5 31.5t-62.5 10.5q-42 0 -76 -18t-55 -39t-21 -24v122q0 3 21.5 22t57.5 35.5t82 16.5q51 0 87 -13
t79 -38q37 -21 63 -31t59 -10q44 0 76.5 17.5t51 37.5t18.5 23v-119q0 -3 -19 -22t-53.5 -35.5t-81.5 -16.5q-50 0 -85 12.5z" />
    <glyph glyph-name="OE" unicode="&#x152;" horiz-adv-x="2328" 
d="M2199 132v-132h-894v169q-92 -86 -213.5 -137.5t-264.5 -51.5q-204 0 -363.5 97t-248 265t-88.5 374q0 209 90.5 377.5t250 264.5t359.5 96q143 0 264 -52t214 -137v169h873v-134h-725v-503h620v-127h-620v-538h746zM1110.5 176q117.5 59 194.5 155v774
q-77 96 -194.5 155t-258.5 59q-163 0 -291 -77t-199.5 -213.5t-71.5 -309.5q0 -174 71.5 -311t199.5 -214t291 -77q141 0 258.5 59z" />
    <glyph glyph-name="P" unicode="P" horiz-adv-x="1235" 
d="M917 1383.5q101 -50.5 155.5 -140.5t54.5 -206q0 -123 -58.5 -216t-160.5 -143.5t-229 -50.5h-334v-627h-150v1434h485q136 0 237 -50.5zM829 788q70 35 107.5 98t37.5 146q0 128 -79 200.5t-231 72.5h-319v-552h321q93 0 163 35z" />
    <glyph glyph-name="Thorn" unicode="&#xde;" horiz-adv-x="1235" 
d="M917 1100.5q101 -50.5 155.5 -140.5t54.5 -206q0 -122 -58.5 -214.5t-160.5 -142t-229 -49.5h-339v-348h-145v1434h145v-283h340q136 0 237 -50.5zM837 506q70 35 107.5 98t37.5 145q0 129 -79 203.5t-231 74.5h-332v-556h334q93 0 163 35z" />
    <glyph glyph-name="Q" unicode="Q" horiz-adv-x="1685" 
d="M1483 389q-75 -154 -208 -252l206 -262h-162l-153 196q-148 -71 -324 -71q-210 0 -372.5 95.5t-252.5 261t-90 369.5q0 208 92.5 374t255.5 260t367 94q209 0 372 -95t253.5 -260.5t90.5 -369.5q0 -186 -75 -340zM1079 183l-232 298h158l183 -233q103 80 160.5 204
t57.5 277q0 170 -72.5 305.5t-201 211.5t-290.5 76q-163 0 -291.5 -76.5t-200 -211.5t-71.5 -306q0 -172 72 -307t200 -211t291 -76q130 0 237 49z" />
    <glyph glyph-name="R" unicode="R" horiz-adv-x="1246" 
d="M587 632h-265v-632h-146v1434h490q135 0 236 -50t155.5 -139.5t54.5 -204.5q0 -110 -48 -195t-133 -136.5t-194 -64.5l417 -644h-164zM322 755l337 -1q93 0 163 35t107.5 98t37.5 145q0 129 -79 203t-231 74h-335v-554z" />
    <glyph glyph-name="Racute" unicode="&#x154;" horiz-adv-x="1246" 
d="M176 0zM587 632h-265v-632h-146v1434h490q135 0 236 -50t155.5 -139.5t54.5 -204.5q0 -110 -48 -195t-133 -136.5t-194 -64.5l417 -644h-164zM322 755l337 -1q93 0 163 35t107.5 98t37.5 145q0 129 -79 203t-231 74h-335v-554zM433 1658l374 120v-129l-374 -110v119z" />
    <glyph glyph-name="Rcaron" unicode="&#x158;" horiz-adv-x="1246" 
d="M176 0zM587 632h-265v-632h-146v1434h490q135 0 236 -50t155.5 -139.5t54.5 -204.5q0 -110 -48 -195t-133 -136.5t-194 -64.5l417 -644h-164zM322 755l337 -1q93 0 163 35t107.5 98t37.5 145q0 129 -79 203t-231 74h-335v-554zM342 1671v115l281 -133l280 133v-115
l-280 -146z" />
    <glyph glyph-name="Rcommaaccent" unicode="&#x156;" horiz-adv-x="1246" 
d="M176 0zM587 632h-265v-632h-146v1434h490q135 0 236 -50t155.5 -139.5t54.5 -204.5q0 -110 -48 -195t-133 -136.5t-194 -64.5l417 -644h-164zM322 755l337 -1q93 0 163 35t107.5 98t37.5 145q0 129 -79 203t-231 74h-335v-554zM578 -90h137l-88 -340h-130z" />
    <glyph glyph-name="S" unicode="S" horiz-adv-x="1165" 
d="M341 16.5q-104 36.5 -164 79t-60 48.5l66 114q0 -6 50.5 -43.5t139 -69.5t207.5 -32q145 0 229.5 70.5t84.5 203.5q0 79 -37.5 130.5t-103 82t-163.5 53.5l-59 14q-110 26 -190.5 67t-131 117.5t-50.5 197.5q0 119 55.5 211t157.5 143t237 51q128 0 223 -31.5t150 -68
t55 -41.5l-59 -111q0 4 -47 35.5t-128 58.5t-189 27q-147 0 -224.5 -71t-77.5 -199q0 -78 36 -129.5t98.5 -81.5t154.5 -51l60 -14q114 -27 197.5 -68.5t136.5 -119t53 -198.5q0 -122 -56 -215t-160.5 -144.5t-245.5 -51.5t-245 36.5z" />
    <glyph glyph-name="Sacute" unicode="&#x15a;" horiz-adv-x="1165" 
d="M117 0zM341 16.5q-104 36.5 -164 79t-60 48.5l66 114q0 -6 50.5 -43.5t139 -69.5t207.5 -32q145 0 229.5 70.5t84.5 203.5q0 79 -37.5 130.5t-103 82t-163.5 53.5l-59 14q-110 26 -190.5 67t-131 117.5t-50.5 197.5q0 119 55.5 211t157.5 143t237 51q128 0 223 -31.5
t150 -68t55 -41.5l-59 -111q0 4 -47 35.5t-128 58.5t-189 27q-147 0 -224.5 -71t-77.5 -199q0 -78 36 -129.5t98.5 -81.5t154.5 -51l60 -14q114 -27 197.5 -68.5t136.5 -119t53 -198.5q0 -122 -56 -215t-160.5 -144.5t-245.5 -51.5t-245 36.5zM457 1658l374 120v-129
l-374 -110v119z" />
    <glyph glyph-name="Scaron" unicode="&#x160;" horiz-adv-x="1165" 
d="M117 0zM341 16.5q-104 36.5 -164 79t-60 48.5l66 114q0 -6 50.5 -43.5t139 -69.5t207.5 -32q145 0 229.5 70.5t84.5 203.5q0 79 -37.5 130.5t-103 82t-163.5 53.5l-59 14q-110 26 -190.5 67t-131 117.5t-50.5 197.5q0 119 55.5 211t157.5 143t237 51q128 0 223 -31.5
t150 -68t55 -41.5l-59 -111q0 4 -47 35.5t-128 58.5t-189 27q-147 0 -224.5 -71t-77.5 -199q0 -78 36 -129.5t98.5 -81.5t154.5 -51l60 -14q114 -27 197.5 -68.5t136.5 -119t53 -198.5q0 -122 -56 -215t-160.5 -144.5t-245.5 -51.5t-245 36.5zM366 1671v115l281 -133
l280 133v-115l-280 -146z" />
    <glyph glyph-name="Scedilla" unicode="&#x15e;" horiz-adv-x="1165" 
d="M997.5 186q-50.5 -90 -145 -143.5t-222.5 -61.5l-55 -84l49 -8q86 -13 132 -46.5t46 -101.5q0 -79 -64.5 -125t-170.5 -46q-64 0 -116 13t-84.5 28t-32.5 17v101q0 -2 35.5 -19.5t87 -32t107.5 -14.5q59 0 92.5 19.5t33.5 54.5t-29.5 50t-99.5 25l-123 18l101 151
q-127 7 -220.5 43t-147.5 75.5t-54 44.5l66 114q0 -6 50.5 -43.5t139 -69.5t207.5 -32q145 0 229.5 70.5t84.5 203.5q0 79 -37.5 130.5t-103 82t-163.5 53.5l-59 14q-110 26 -190.5 67t-131 117.5t-50.5 197.5q0 119 55.5 211t157.5 143t237 51q128 0 223 -31.5t150 -68
t55 -41.5l-59 -111q0 4 -47 35.5t-128 58.5t-189 27q-147 0 -224.5 -71t-77.5 -199q0 -78 36 -129.5t98.5 -81.5t154.5 -51l60 -14q114 -27 197.5 -68.5t136.5 -119t53 -198.5q0 -115 -50.5 -205z" />
    <glyph glyph-name="Scommaaccent" unicode="&#x218;" horiz-adv-x="1165" 
d="M117 0zM341 16.5q-104 36.5 -164 79t-60 48.5l66 114q0 -6 50.5 -43.5t139 -69.5t207.5 -32q145 0 229.5 70.5t84.5 203.5q0 79 -37.5 130.5t-103 82t-163.5 53.5l-59 14q-110 26 -190.5 67t-131 117.5t-50.5 197.5q0 119 55.5 211t157.5 143t237 51q128 0 223 -31.5
t150 -68t55 -41.5l-59 -111q0 4 -47 35.5t-128 58.5t-189 27q-147 0 -224.5 -71t-77.5 -199q0 -78 36 -129.5t98.5 -81.5t154.5 -51l60 -14q114 -27 197.5 -68.5t136.5 -119t53 -198.5q0 -122 -56 -215t-160.5 -144.5t-245.5 -51.5t-245 36.5zM524 -90h137l-88 -340h-130z
" />
    <glyph glyph-name="T" unicode="T" horiz-adv-x="1262" 
d="M554 1299h-444v135h1042v-135h-445v-1299h-153v1299z" />
    <glyph glyph-name="Tbar" unicode="&#x166;" horiz-adv-x="1262" 
d="M707 1299v-515h350v-120h-350v-664h-153v664h-345v120h345v515h-444v135h1042v-135h-445z" />
    <glyph glyph-name="Tcaron" unicode="&#x164;" horiz-adv-x="1262" 
d="M110 0zM554 1299h-444v135h1042v-135h-445v-1299h-153v1299zM349 1671v115l281 -133l280 133v-115l-280 -146z" />
    <glyph glyph-name="Tcommaaccent" unicode="&#x162;" horiz-adv-x="1262" 
d="M677 0l-67 -103l49 -8q86 -13 132 -46.5t46 -101.5q0 -79 -64.5 -125t-170.5 -46q-64 0 -116 13t-84.5 28t-32.5 17v101q0 -2 35.5 -19.5t87 -32t107.5 -14.5q59 0 92.5 19.5t33.5 54.5t-29.5 50t-99.5 25l-123 18l113 170h-32v1299h-444v135h1042v-135h-445v-1299h-30z
" />
    <glyph glyph-name="uni021A" unicode="&#x21a;" horiz-adv-x="1262" 
d="M110 0zM554 1299h-444v135h1042v-135h-445v-1299h-153v1299zM559 -90h137l-88 -340h-130z" />
    <glyph glyph-name="U" unicode="U" horiz-adv-x="1476" 
d="M444 51q-128 73 -198 200t-70 285v898h148v-893q0 -127 52 -225t146 -152.5t217 -54.5q120 0 214.5 55.5t147.5 154t53 222.5v893h146v-898q0 -161 -72 -288t-200 -198.5t-290 -71.5q-166 0 -294 73z" />
    <glyph glyph-name="Uacute" unicode="&#xda;" horiz-adv-x="1476" 
d="M176 0zM444 51q-128 73 -198 200t-70 285v898h148v-893q0 -127 52 -225t146 -152.5t217 -54.5q120 0 214.5 55.5t147.5 154t53 222.5v893h146v-898q0 -161 -72 -288t-200 -198.5t-290 -71.5q-166 0 -294 73zM555 1658l374 120v-129l-374 -110v119z" />
    <glyph glyph-name="Ucircumflex" unicode="&#xdb;" horiz-adv-x="1476" 
d="M176 0zM444 51q-128 73 -198 200t-70 285v898h148v-893q0 -127 52 -225t146 -152.5t217 -54.5q120 0 214.5 55.5t147.5 154t53 222.5v893h146v-898q0 -161 -72 -288t-200 -198.5t-290 -71.5q-166 0 -294 73zM464 1649l281 145l280 -145v-115l-280 132l-281 -132v115z" />
    <glyph glyph-name="Udieresis" unicode="&#xdc;" horiz-adv-x="1476" 
d="M176 0zM444 51q-128 73 -198 200t-70 285v898h148v-893q0 -127 52 -225t146 -152.5t217 -54.5q120 0 214.5 55.5t147.5 154t53 222.5v893h146v-898q0 -161 -72 -288t-200 -198.5t-290 -71.5q-166 0 -294 73zM526.5 1580.5q-24.5 24.5 -24.5 61.5q0 38 24.5 62.5
t63.5 24.5t63.5 -24.5t24.5 -62.5q0 -37 -24.5 -61.5t-63.5 -24.5t-63.5 24.5zM832.5 1580.5q-24.5 24.5 -24.5 61.5q0 38 24 62.5t63 24.5t63.5 -24.5t24.5 -62.5q0 -37 -24.5 -61.5t-62.5 -24.5q-39 0 -63.5 24.5z" />
    <glyph glyph-name="Ugrave" unicode="&#xd9;" horiz-adv-x="1476" 
d="M176 0zM444 51q-128 73 -198 200t-70 285v898h148v-893q0 -127 52 -225t146 -152.5t217 -54.5q120 0 214.5 55.5t147.5 154t53 222.5v893h146v-898q0 -161 -72 -288t-200 -198.5t-290 -71.5q-166 0 -294 73zM536 1649v129l374 -120v-119z" />
    <glyph glyph-name="Uhungarumlaut" unicode="&#x170;" horiz-adv-x="1476" 
d="M176 0zM444 51q-128 73 -198 200t-70 285v898h148v-893q0 -127 52 -225t146 -152.5t217 -54.5q120 0 214.5 55.5t147.5 154t53 222.5v893h146v-898q0 -161 -72 -288t-200 -198.5t-290 -71.5q-166 0 -294 73zM722 1748h144l-164 -204h-128zM1008 1748h154l-221 -204h-124z
" />
    <glyph glyph-name="Umacron" unicode="&#x16a;" horiz-adv-x="1476" 
d="M176 0zM444 51q-128 73 -198 200t-70 285v898h148v-893q0 -127 52 -225t146 -152.5t217 -54.5q120 0 214.5 55.5t147.5 154t53 222.5v893h146v-898q0 -161 -72 -288t-200 -198.5t-290 -71.5q-166 0 -294 73zM495 1688h498v-113h-498v113z" />
    <glyph glyph-name="Uogonek" unicode="&#x172;" horiz-adv-x="1476" 
d="M1300 1434v-898q0 -132 -49 -242t-138 -186t-208 -108q-92 -45 -155 -103.5t-63 -128.5q0 -43 27 -68.5t84 -25.5q41 0 77 10t60.5 22t24.5 13v-95q0 -2 -22.5 -15.5t-63 -25t-97.5 -11.5q-96 0 -153.5 46.5t-57.5 128.5q0 73 44 133t114 98q-162 3 -286.5 77t-193 200
t-68.5 281v898h148v-893q0 -127 52 -225t146 -152.5t217 -54.5q120 0 214.5 55.5t147.5 154t53 222.5v893h146z" />
    <glyph glyph-name="Uring" unicode="&#x16e;" horiz-adv-x="1476" 
d="M176 0zM444 51q-128 73 -198 200t-70 285v898h148v-893q0 -127 52 -225t146 -152.5t217 -54.5q120 0 214.5 55.5t147.5 154t53 222.5v893h146v-898q0 -161 -72 -288t-200 -198.5t-290 -71.5q-166 0 -294 73zM643 1516q-46 23 -71.5 64.5t-25.5 95.5q0 56 25.5 98.5
t71.5 66t104 23.5q87 0 141 -51.5t54 -136.5q0 -54 -24.5 -95.5t-69 -64.5t-101.5 -23q-58 0 -104 23zM815 1608q27 27 27 70t-27 70.5t-69 27.5q-43 0 -71 -27.5t-28 -70.5t28 -70t71 -27q42 0 69 27z" />
    <glyph glyph-name="V" unicode="V" horiz-adv-x="1440" 
d="M70 1434h162l483 -1245l501 1245h154l-585 -1434h-148z" />
    <glyph glyph-name="W" unicode="W" horiz-adv-x="2119" 
d="M79 1434h161l337 -1219l423 1219h111l416 -1219l357 1219h156l-438 -1434h-146l-404 1179l-412 -1179h-150z" />
    <glyph glyph-name="Wacute" unicode="&#x1e82;" horiz-adv-x="2119" 
d="M79 0zM79 1434h161l337 -1219l423 1219h111l416 -1219l357 1219h156l-438 -1434h-146l-404 1179l-412 -1179h-150zM868 1658l374 120v-129l-374 -110v119z" />
    <glyph glyph-name="Wcircumflex" unicode="&#x174;" horiz-adv-x="2119" 
d="M79 0zM79 1434h161l337 -1219l423 1219h111l416 -1219l357 1219h156l-438 -1434h-146l-404 1179l-412 -1179h-150zM777 1649l281 145l280 -145v-115l-280 132l-281 -132v115z" />
    <glyph glyph-name="Wdieresis" unicode="&#x1e84;" horiz-adv-x="2119" 
d="M79 0zM79 1434h161l337 -1219l423 1219h111l416 -1219l357 1219h156l-438 -1434h-146l-404 1179l-412 -1179h-150zM839.5 1580.5q-24.5 24.5 -24.5 61.5q0 38 24.5 62.5t63.5 24.5t63.5 -24.5t24.5 -62.5q0 -37 -24.5 -61.5t-63.5 -24.5t-63.5 24.5zM1145.5 1580.5
q-24.5 24.5 -24.5 61.5q0 38 24 62.5t63 24.5t63.5 -24.5t24.5 -62.5q0 -37 -24.5 -61.5t-62.5 -24.5q-39 0 -63.5 24.5z" />
    <glyph glyph-name="Wgrave" unicode="&#x1e80;" horiz-adv-x="2119" 
d="M79 0zM79 1434h161l337 -1219l423 1219h111l416 -1219l357 1219h156l-438 -1434h-146l-404 1179l-412 -1179h-150zM849 1649v129l374 -120v-119z" />
    <glyph glyph-name="X" unicode="X" horiz-adv-x="1363" 
d="M577 726l-471 708h177l400 -621l403 621h169l-471 -708l490 -726h-171l-426 640l-420 -640h-169z" />
    <glyph glyph-name="Y" unicode="Y" horiz-adv-x="1401" 
d="M626 617l-556 817h170l465 -694l459 694h168l-556 -815v-619h-150v617z" />
    <glyph glyph-name="Yacute" unicode="&#xdd;" horiz-adv-x="1401" 
d="M70 0zM626 617l-556 817h170l465 -694l459 694h168l-556 -815v-619h-150v617zM513 1658l374 120v-129l-374 -110v119z" />
    <glyph glyph-name="Ycircumflex" unicode="&#x176;" horiz-adv-x="1401" 
d="M70 0zM626 617l-556 817h170l465 -694l459 694h168l-556 -815v-619h-150v617zM422 1649l281 145l280 -145v-115l-280 132l-281 -132v115z" />
    <glyph glyph-name="Ydieresis" unicode="&#x178;" horiz-adv-x="1401" 
d="M70 0zM626 617l-556 817h170l465 -694l459 694h168l-556 -815v-619h-150v617zM484.5 1580.5q-24.5 24.5 -24.5 61.5q0 38 24.5 62.5t63.5 24.5t63.5 -24.5t24.5 -62.5q0 -37 -24.5 -61.5t-63.5 -24.5t-63.5 24.5zM790.5 1580.5q-24.5 24.5 -24.5 61.5q0 38 24 62.5
t63 24.5t63.5 -24.5t24.5 -62.5q0 -37 -24.5 -61.5t-62.5 -24.5q-39 0 -63.5 24.5z" />
    <glyph glyph-name="Ygrave" unicode="&#x1ef2;" horiz-adv-x="1401" 
d="M70 0zM626 617l-556 817h170l465 -694l459 694h168l-556 -815v-619h-150v617zM494 1649v129l374 -120v-119z" />
    <glyph glyph-name="Z" unicode="Z" horiz-adv-x="1257" 
d="M101 112l833 1193h-804v129h996v-114l-831 -1192h861v-128h-1055v112z" />
    <glyph glyph-name="Zacute" unicode="&#x179;" horiz-adv-x="1257" 
d="M101 0zM101 112l833 1193h-804v129h996v-114l-831 -1192h861v-128h-1055v112zM437 1658l374 120v-129l-374 -110v119z" />
    <glyph glyph-name="Zcaron" unicode="&#x17d;" horiz-adv-x="1257" 
d="M101 0zM101 112l833 1193h-804v129h996v-114l-831 -1192h861v-128h-1055v112zM346 1671v115l281 -133l280 133v-115l-280 -146z" />
    <glyph glyph-name="Zdotaccent" unicode="&#x17b;" horiz-adv-x="1257" 
d="M101 0zM101 112l833 1193h-804v129h996v-114l-831 -1192h861v-128h-1055v112zM558.5 1579.5q-25.5 24.5 -25.5 61.5q0 38 25.5 63t65.5 25q41 0 65.5 -24.5t24.5 -63.5q0 -37 -25 -61.5t-65 -24.5t-65.5 24.5z" />
    <glyph glyph-name="a" unicode="a" horiz-adv-x="1181" 
d="M1034 928v-928h-137v105q-55 -52 -134 -89.5t-181 -37.5q-138 0 -245.5 64t-167.5 175t-60 246q0 136 60.5 247t168.5 174.5t244 63.5q90 0 172.5 -35t142.5 -92v107h137zM773.5 141.5q73.5 42.5 123.5 104.5v435q-51 62 -124 104.5t-174 42.5q-100 0 -178.5 -47
t-122.5 -130t-44 -187q0 -105 44 -188t122.5 -130t178.5 -47q101 0 174.5 42.5z" />
    <glyph glyph-name="aacute" unicode="&#xe1;" horiz-adv-x="1181" 
d="M109 0zM1034 928v-928h-137v105q-55 -52 -134 -89.5t-181 -37.5q-138 0 -245.5 64t-167.5 175t-60 246q0 136 60.5 247t168.5 174.5t244 63.5q90 0 172.5 -35t142.5 -92v107h137zM773.5 141.5q73.5 42.5 123.5 104.5v435q-51 62 -124 104.5t-174 42.5q-100 0 -178.5 -47
t-122.5 -130t-44 -187q0 -105 44 -188t122.5 -130t178.5 -47q101 0 174.5 42.5zM429 1226l374 120v-129l-374 -110v119z" />
    <glyph glyph-name="abreve" unicode="&#x103;" horiz-adv-x="1181" 
d="M109 0zM1034 928v-928h-137v105q-55 -52 -134 -89.5t-181 -37.5q-138 0 -245.5 64t-167.5 175t-60 246q0 136 60.5 247t168.5 174.5t244 63.5q90 0 172.5 -35t142.5 -92v107h137zM773.5 141.5q73.5 42.5 123.5 104.5v435q-51 62 -124 104.5t-174 42.5q-100 0 -178.5 -47
t-122.5 -130t-44 -187q0 -105 44 -188t122.5 -130t178.5 -47q101 0 174.5 42.5zM461 1142.5q-66 29.5 -103.5 64t-37.5 39.5v122q0 -5 40 -43.5t106.5 -71t152.5 -32.5t152 32.5t106 71t40 43.5v-122q0 -5 -38.5 -39.5t-105 -64t-157.5 -29.5q-89 0 -155 29.5z" />
    <glyph glyph-name="acircumflex" unicode="&#xe2;" horiz-adv-x="1181" 
d="M109 0zM1034 928v-928h-137v105q-55 -52 -134 -89.5t-181 -37.5q-138 0 -245.5 64t-167.5 175t-60 246q0 136 60.5 247t168.5 174.5t244 63.5q90 0 172.5 -35t142.5 -92v107h137zM773.5 141.5q73.5 42.5 123.5 104.5v435q-51 62 -124 104.5t-174 42.5q-100 0 -178.5 -47
t-122.5 -130t-44 -187q0 -105 44 -188t122.5 -130t178.5 -47q101 0 174.5 42.5zM338 1217l281 145l280 -145v-115l-280 132l-281 -132v115z" />
    <glyph glyph-name="adieresis" unicode="&#xe4;" horiz-adv-x="1181" 
d="M109 0zM1034 928v-928h-137v105q-55 -52 -134 -89.5t-181 -37.5q-138 0 -245.5 64t-167.5 175t-60 246q0 136 60.5 247t168.5 174.5t244 63.5q90 0 172.5 -35t142.5 -92v107h137zM773.5 141.5q73.5 42.5 123.5 104.5v435q-51 62 -124 104.5t-174 42.5q-100 0 -178.5 -47
t-122.5 -130t-44 -187q0 -105 44 -188t122.5 -130t178.5 -47q101 0 174.5 42.5zM400.5 1148.5q-24.5 24.5 -24.5 61.5q0 38 24.5 62.5t63.5 24.5t63.5 -24.5t24.5 -62.5q0 -37 -24.5 -61.5t-63.5 -24.5t-63.5 24.5zM706.5 1148.5q-24.5 24.5 -24.5 61.5q0 38 24 62.5
t63 24.5t63.5 -24.5t24.5 -62.5q0 -37 -24.5 -61.5t-62.5 -24.5q-39 0 -63.5 24.5z" />
    <glyph glyph-name="agrave" unicode="&#xe0;" horiz-adv-x="1181" 
d="M109 0zM1034 928v-928h-137v105q-55 -52 -134 -89.5t-181 -37.5q-138 0 -245.5 64t-167.5 175t-60 246q0 136 60.5 247t168.5 174.5t244 63.5q90 0 172.5 -35t142.5 -92v107h137zM773.5 141.5q73.5 42.5 123.5 104.5v435q-51 62 -124 104.5t-174 42.5q-100 0 -178.5 -47
t-122.5 -130t-44 -187q0 -105 44 -188t122.5 -130t178.5 -47q101 0 174.5 42.5zM410 1217v129l374 -120v-119z" />
    <glyph glyph-name="amacron" unicode="&#x101;" horiz-adv-x="1181" 
d="M109 0zM1034 928v-928h-137v105q-55 -52 -134 -89.5t-181 -37.5q-138 0 -245.5 64t-167.5 175t-60 246q0 136 60.5 247t168.5 174.5t244 63.5q90 0 172.5 -35t142.5 -92v107h137zM773.5 141.5q73.5 42.5 123.5 104.5v435q-51 62 -124 104.5t-174 42.5q-100 0 -178.5 -47
t-122.5 -130t-44 -187q0 -105 44 -188t122.5 -130t178.5 -47q101 0 174.5 42.5zM369 1256h498v-113h-498v113z" />
    <glyph glyph-name="aogonek" unicode="&#x105;" horiz-adv-x="1181" 
d="M999 -318q36 10 60.5 22t24.5 13v-95q0 -2 -22.5 -15.5t-63 -25t-97.5 -11.5q-96 0 -153.5 46.5t-57.5 128.5q0 87 61 154t149 101h-3v105q-55 -52 -134 -89.5t-181 -37.5q-138 0 -245.5 64t-167.5 175t-60 246q0 136 60.5 247t168.5 174.5t244 63.5q90 0 172.5 -35
t142.5 -92v107h137v-928q-93 -44 -158 -103.5t-65 -130.5q0 -43 27 -68.5t84 -25.5q41 0 77 10zM773.5 141.5q73.5 42.5 123.5 104.5v435q-51 62 -124 104.5t-174 42.5q-100 0 -178.5 -47t-122.5 -130t-44 -187q0 -105 44 -188t122.5 -130t178.5 -47q101 0 174.5 42.5z" />
    <glyph glyph-name="aring" unicode="&#xe5;" horiz-adv-x="1181" 
d="M109 0zM1034 928v-928h-137v105q-55 -52 -134 -89.5t-181 -37.5q-138 0 -245.5 64t-167.5 175t-60 246q0 136 60.5 247t168.5 174.5t244 63.5q90 0 172.5 -35t142.5 -92v107h137zM773.5 141.5q73.5 42.5 123.5 104.5v435q-51 62 -124 104.5t-174 42.5q-100 0 -178.5 -47
t-122.5 -130t-44 -187q0 -105 44 -188t122.5 -130t178.5 -47q101 0 174.5 42.5zM517 1084q-46 23 -71.5 64.5t-25.5 95.5q0 56 25.5 98.5t71.5 66t104 23.5q87 0 141 -51.5t54 -136.5q0 -54 -24.5 -95.5t-69 -64.5t-101.5 -23q-58 0 -104 23zM689 1176q27 27 27 70t-27 70.5
t-69 27.5q-43 0 -71 -27.5t-28 -70.5t28 -70t71 -27q42 0 69 27z" />
    <glyph glyph-name="atilde" unicode="&#xe3;" horiz-adv-x="1181" 
d="M109 0zM1034 928v-928h-137v105q-55 -52 -134 -89.5t-181 -37.5q-138 0 -245.5 64t-167.5 175t-60 246q0 136 60.5 247t168.5 174.5t244 63.5q90 0 172.5 -35t142.5 -92v107h137zM773.5 141.5q73.5 42.5 123.5 104.5v435q-51 62 -124 104.5t-174 42.5q-100 0 -178.5 -47
t-122.5 -130t-44 -187q0 -105 44 -188t122.5 -130t178.5 -47q101 0 174.5 42.5zM676 1121.5q-35 12.5 -78 37.5q-37 21 -63.5 31.5t-62.5 10.5q-42 0 -76 -18t-55 -39t-21 -24v122q0 3 21.5 22t57.5 35.5t82 16.5q51 0 87 -13t79 -38q37 -21 63 -31t59 -10q44 0 76.5 17.5
t51 37.5t18.5 23v-119q0 -3 -19 -22t-53.5 -35.5t-81.5 -16.5q-50 0 -85 12.5z" />
    <glyph glyph-name="ae" unicode="&#xe6;" horiz-adv-x="1933" 
d="M1833 415h-787q9 -96 55.5 -166.5t124.5 -108.5t180 -38q98 0 167 27t107 58.5t38 36.5l73 -84q0 -7 -46.5 -48.5t-133 -77.5t-208.5 -36q-121 0 -216.5 43t-159.5 121v-142h-132v103q-56 -52 -134 -88.5t-179 -36.5q-138 0 -245.5 64t-167.5 175t-60 246q0 136 60.5 247
t168.5 174.5t244 63.5q90 0 171.5 -34.5t141.5 -90.5v105h132v-139q60 76 148 117.5t196 41.5q140 0 244.5 -63t161 -173.5t56.5 -248.5v-48zM1691 526q-9 92 -50 162.5t-110 109.5t-161 39q-86 0 -155.5 -38.5t-113.5 -109t-55 -163.5h645zM772 140.5q73 41.5 123 102.5
v440q-50 61 -123 103t-173 42t-178.5 -46.5t-122.5 -129t-44 -188.5q0 -107 44 -190t122.5 -129t178.5 -46t173 41.5z" />
    <glyph glyph-name="b" unicode="b" horiz-adv-x="1181" 
d="M843.5 884q108.5 -64 169 -174.5t60.5 -245.5q0 -138 -61.5 -249t-170 -174t-244.5 -63q-102 0 -180 37t-133 90v-105h-137v1434h137v-613q55 53 133 90t180 37q138 0 246.5 -64zM759 145q79 46 123.5 129t44.5 190q0 106 -44.5 188.5t-123.5 129t-179 46.5t-173.5 -42.5
t-122.5 -103.5v-437q49 -61 122.5 -103.5t173.5 -42.5t179 46z" />
    <glyph glyph-name="c" unicode="c" horiz-adv-x="1001" 
d="M342 40.5q-110 63.5 -171.5 174.5t-61.5 249q0 137 61.5 247.5t171.5 173.5t249 63q98 0 169.5 -21t112 -45.5t40.5 -28.5l-64 -108q0 3 -31.5 23t-86.5 37t-130 17q-101 0 -179.5 -45t-122 -126.5t-43.5 -186.5q0 -106 43.5 -187.5t121.5 -126t180 -44.5q75 0 130 16.5
t86.5 36t31.5 22.5l64 -107q0 -4 -40.5 -29t-112 -46.5t-169.5 -21.5q-139 0 -249 63.5z" />
    <glyph glyph-name="cacute" unicode="&#x107;" horiz-adv-x="1001" 
d="M109 0zM342 40.5q-110 63.5 -171.5 174.5t-61.5 249q0 137 61.5 247.5t171.5 173.5t249 63q98 0 169.5 -21t112 -45.5t40.5 -28.5l-64 -108q0 3 -31.5 23t-86.5 37t-130 17q-101 0 -179.5 -45t-122 -126.5t-43.5 -186.5q0 -106 43.5 -187.5t121.5 -126t180 -44.5
q75 0 130 16.5t86.5 36t31.5 22.5l64 -107q0 -4 -40.5 -29t-112 -46.5t-169.5 -21.5q-139 0 -249 63.5zM402 1226l374 120v-129l-374 -110v119z" />
    <glyph glyph-name="ccaron" unicode="&#x10d;" horiz-adv-x="1001" 
d="M109 0zM342 40.5q-110 63.5 -171.5 174.5t-61.5 249q0 137 61.5 247.5t171.5 173.5t249 63q98 0 169.5 -21t112 -45.5t40.5 -28.5l-64 -108q0 3 -31.5 23t-86.5 37t-130 17q-101 0 -179.5 -45t-122 -126.5t-43.5 -186.5q0 -106 43.5 -187.5t121.5 -126t180 -44.5
q75 0 130 16.5t86.5 36t31.5 22.5l64 -107q0 -4 -40.5 -29t-112 -46.5t-169.5 -21.5q-139 0 -249 63.5zM311 1239v115l281 -133l280 133v-115l-280 -146z" />
    <glyph glyph-name="ccedilla" unicode="&#xe7;" horiz-adv-x="1001" 
d="M877.5 48q-35.5 -23 -98.5 -44.5t-149 -25.5l-53 -81l49 -8q86 -13 132 -46.5t46 -101.5q0 -79 -64.5 -125t-170.5 -46q-64 0 -116 13t-84.5 28t-32.5 17v101q0 -2 35.5 -19.5t87 -32t107.5 -14.5q59 0 92.5 19.5t33.5 54.5t-29.5 50t-99.5 25l-123 18l99 149
q-126 12 -223.5 77.5t-152 172t-54.5 235.5q0 137 61.5 247.5t171.5 173.5t249 63q98 0 169.5 -21t112 -45.5t40.5 -28.5l-64 -108q0 3 -31.5 23t-86.5 37t-130 17q-101 0 -179.5 -45t-122 -126.5t-43.5 -186.5q0 -106 43.5 -187.5t121.5 -126t180 -44.5q75 0 130 16.5
t86.5 36t31.5 22.5l64 -107q0 -3 -35.5 -26z" />
    <glyph glyph-name="cdotaccent" unicode="&#x10b;" horiz-adv-x="1001" 
d="M109 0zM342 40.5q-110 63.5 -171.5 174.5t-61.5 249q0 137 61.5 247.5t171.5 173.5t249 63q98 0 169.5 -21t112 -45.5t40.5 -28.5l-64 -108q0 3 -31.5 23t-86.5 37t-130 17q-101 0 -179.5 -45t-122 -126.5t-43.5 -186.5q0 -106 43.5 -187.5t121.5 -126t180 -44.5
q75 0 130 16.5t86.5 36t31.5 22.5l64 -107q0 -4 -40.5 -29t-112 -46.5t-169.5 -21.5q-139 0 -249 63.5zM523.5 1147.5q-25.5 24.5 -25.5 61.5q0 38 25.5 63t65.5 25q41 0 65.5 -24.5t24.5 -63.5q0 -37 -25 -61.5t-65 -24.5t-65.5 24.5z" />
    <glyph glyph-name="d" unicode="d" horiz-adv-x="1201" 
d="M1052 1434v-1434h-138v123q-55 -57 -137.5 -100t-194.5 -43q-135 0 -243 62.5t-169 172.5t-61 248q0 135 60 246t167.5 175t245.5 64q112 0 194.5 -43.5t137.5 -100.5v630h138zM788 150q78 50 126 118v390q-48 69 -126 119.5t-189 50.5q-100 0 -178.5 -46.5t-122.5 -129
t-44 -188.5q0 -107 44 -189.5t122.5 -128.5t178.5 -46q111 0 189 50z" />
    <glyph glyph-name="eth" unicode="&#xf0;" horiz-adv-x="1189" 
d="M992.5 911q88.5 -173 88.5 -387q0 -157 -61.5 -281t-173 -193.5t-253.5 -69.5q-140 0 -250.5 62t-172 172.5t-61.5 249.5q0 136 60.5 246t169 173t245.5 63q94 0 167.5 -30t127.5 -75q-77 174 -233 325l-383 -166v107l302 133q-115 96 -268 183q-6 4 -11 6.5t-8 4.5h209
q2 -2 6.5 -4.5t10.5 -6.5q53 -34 91.5 -61t90.5 -70l368 162v-111l-287 -124q137 -135 225.5 -308zM782 151.5q80 52.5 123 148t43 219.5q0 51 -6 97q-39 73 -123.5 143.5t-222.5 70.5q-99 0 -177.5 -46.5t-122 -129.5t-43.5 -190q0 -108 43 -190.5t120.5 -128.5t178.5 -46
q107 0 187 52.5z" />
    <glyph glyph-name="dcaron" unicode="&#x10f;" horiz-adv-x="1251" 
d="M109 0zM1052 1434v-1434h-138v123q-55 -57 -137.5 -100t-194.5 -43q-135 0 -243 62.5t-169 172.5t-61 248q0 135 60 246t167.5 175t245.5 64q112 0 194.5 -43.5t137.5 -100.5v630h138zM788 150q78 50 126 118v390q-48 69 -126 119.5t-189 50.5q-100 0 -178.5 -46.5
t-122.5 -129t-44 -188.5q0 -107 44 -189.5t122.5 -128.5t178.5 -46q111 0 189 50zM1148 1434h115l-48 -406h-67v406z" />
    <glyph glyph-name="dcroat" unicode="&#x111;" horiz-adv-x="1201" 
d="M1179 1120h-127v-1120h-138v123q-55 -57 -137.5 -100t-194.5 -43q-135 0 -243 62.5t-169 172.5t-61 248q0 135 60 246t167.5 175t245.5 64q112 0 194.5 -43.5t137.5 -100.5v316h-563v111h563v203h138v-203h127v-111zM788 150q78 50 126 118v390q-48 69 -126 119.5
t-189 50.5q-100 0 -178.5 -46.5t-122.5 -129t-44 -188.5q0 -107 44 -189.5t122.5 -128.5t178.5 -46q111 0 189 50z" />
    <glyph glyph-name="e" unicode="e" horiz-adv-x="1140" 
d="M1041 412h-788q10 -96 56 -165.5t124 -107t181 -37.5q98 0 167 27t107 58.5t38 36.5l72 -84q0 -7 -46.5 -48.5t-133 -77.5t-208.5 -36q-149 0 -263 62t-176 172.5t-62 251.5q0 138 60 248t166.5 173t242.5 63q140 0 245 -63t161.5 -173.5t56.5 -248.5v-51zM899 524
q-9 92 -50 162.5t-110.5 110t-161.5 39.5q-86 0 -156 -39t-113.5 -109.5t-54.5 -163.5h646z" />
    <glyph glyph-name="eacute" unicode="&#xe9;" horiz-adv-x="1140" 
d="M109 0zM1041 412h-788q10 -96 56 -165.5t124 -107t181 -37.5q98 0 167 27t107 58.5t38 36.5l72 -84q0 -7 -46.5 -48.5t-133 -77.5t-208.5 -36q-149 0 -263 62t-176 172.5t-62 251.5q0 138 60 248t166.5 173t242.5 63q140 0 245 -63t161.5 -173.5t56.5 -248.5v-51z
M899 524q-9 92 -50 162.5t-110.5 110t-161.5 39.5q-86 0 -156 -39t-113.5 -109.5t-54.5 -163.5h646zM394 1226l374 120v-129l-374 -110v119z" />
    <glyph glyph-name="ecaron" unicode="&#x11b;" horiz-adv-x="1140" 
d="M109 0zM1041 412h-788q10 -96 56 -165.5t124 -107t181 -37.5q98 0 167 27t107 58.5t38 36.5l72 -84q0 -7 -46.5 -48.5t-133 -77.5t-208.5 -36q-149 0 -263 62t-176 172.5t-62 251.5q0 138 60 248t166.5 173t242.5 63q140 0 245 -63t161.5 -173.5t56.5 -248.5v-51z
M899 524q-9 92 -50 162.5t-110.5 110t-161.5 39.5q-86 0 -156 -39t-113.5 -109.5t-54.5 -163.5h646zM303 1239v115l281 -133l280 133v-115l-280 -146z" />
    <glyph glyph-name="ecircumflex" unicode="&#xea;" horiz-adv-x="1140" 
d="M109 0zM1041 412h-788q10 -96 56 -165.5t124 -107t181 -37.5q98 0 167 27t107 58.5t38 36.5l72 -84q0 -7 -46.5 -48.5t-133 -77.5t-208.5 -36q-149 0 -263 62t-176 172.5t-62 251.5q0 138 60 248t166.5 173t242.5 63q140 0 245 -63t161.5 -173.5t56.5 -248.5v-51z
M899 524q-9 92 -50 162.5t-110.5 110t-161.5 39.5q-86 0 -156 -39t-113.5 -109.5t-54.5 -163.5h646zM303 1217l281 145l280 -145v-115l-280 132l-281 -132v115z" />
    <glyph glyph-name="edieresis" unicode="&#xeb;" horiz-adv-x="1140" 
d="M109 0zM1041 412h-788q10 -96 56 -165.5t124 -107t181 -37.5q98 0 167 27t107 58.5t38 36.5l72 -84q0 -7 -46.5 -48.5t-133 -77.5t-208.5 -36q-149 0 -263 62t-176 172.5t-62 251.5q0 138 60 248t166.5 173t242.5 63q140 0 245 -63t161.5 -173.5t56.5 -248.5v-51z
M899 524q-9 92 -50 162.5t-110.5 110t-161.5 39.5q-86 0 -156 -39t-113.5 -109.5t-54.5 -163.5h646zM365.5 1148.5q-24.5 24.5 -24.5 61.5q0 38 24.5 62.5t63.5 24.5t63.5 -24.5t24.5 -62.5q0 -37 -24.5 -61.5t-63.5 -24.5t-63.5 24.5zM671.5 1148.5q-24.5 24.5 -24.5 61.5
q0 38 24 62.5t63 24.5t63.5 -24.5t24.5 -62.5q0 -37 -24.5 -61.5t-62.5 -24.5q-39 0 -63.5 24.5z" />
    <glyph glyph-name="edotaccent" unicode="&#x117;" horiz-adv-x="1140" 
d="M109 0zM1041 412h-788q10 -96 56 -165.5t124 -107t181 -37.5q98 0 167 27t107 58.5t38 36.5l72 -84q0 -7 -46.5 -48.5t-133 -77.5t-208.5 -36q-149 0 -263 62t-176 172.5t-62 251.5q0 138 60 248t166.5 173t242.5 63q140 0 245 -63t161.5 -173.5t56.5 -248.5v-51z
M899 524q-9 92 -50 162.5t-110.5 110t-161.5 39.5q-86 0 -156 -39t-113.5 -109.5t-54.5 -163.5h646zM515.5 1147.5q-25.5 24.5 -25.5 61.5q0 38 25.5 63t65.5 25q41 0 65.5 -24.5t24.5 -63.5q0 -37 -25 -61.5t-65 -24.5t-65.5 24.5z" />
    <glyph glyph-name="egrave" unicode="&#xe8;" horiz-adv-x="1140" 
d="M109 0zM1041 412h-788q10 -96 56 -165.5t124 -107t181 -37.5q98 0 167 27t107 58.5t38 36.5l72 -84q0 -7 -46.5 -48.5t-133 -77.5t-208.5 -36q-149 0 -263 62t-176 172.5t-62 251.5q0 138 60 248t166.5 173t242.5 63q140 0 245 -63t161.5 -173.5t56.5 -248.5v-51z
M899 524q-9 92 -50 162.5t-110.5 110t-161.5 39.5q-86 0 -156 -39t-113.5 -109.5t-54.5 -163.5h646zM375 1217v129l374 -120v-119z" />
    <glyph glyph-name="emacron" unicode="&#x113;" horiz-adv-x="1140" 
d="M109 0zM1041 412h-788q10 -96 56 -165.5t124 -107t181 -37.5q98 0 167 27t107 58.5t38 36.5l72 -84q0 -7 -46.5 -48.5t-133 -77.5t-208.5 -36q-149 0 -263 62t-176 172.5t-62 251.5q0 138 60 248t166.5 173t242.5 63q140 0 245 -63t161.5 -173.5t56.5 -248.5v-51z
M899 524q-9 92 -50 162.5t-110.5 110t-161.5 39.5q-86 0 -156 -39t-113.5 -109.5t-54.5 -163.5h646zM334 1256h498v-113h-498v113z" />
    <glyph glyph-name="eogonek" unicode="&#x119;" horiz-adv-x="1140" 
d="M1041 412h-788q10 -96 56 -165.5t124 -107t181 -37.5q98 0 167 27t107 58.5t38 36.5l72 -84q0 -3 -25.5 -29t-72 -56.5t-111.5 -50.5l1 -1q-93 -44 -158 -103.5t-65 -130.5q0 -43 27 -68.5t84 -25.5q41 0 77 10t60.5 22t24.5 13v-95q0 -2 -22.5 -15.5t-63 -25
t-97.5 -11.5q-96 0 -153.5 46.5t-57.5 128.5q0 73 43.5 132.5t112.5 97.5q-147 1 -258.5 63.5t-173 172.5t-61.5 250q0 138 60 248t166.5 173t242.5 63q140 0 245 -63t161.5 -173.5t56.5 -248.5v-51zM899 524q-9 92 -50 162.5t-110.5 110t-161.5 39.5q-86 0 -156 -39
t-113.5 -109.5t-54.5 -163.5h646z" />
    <glyph glyph-name="f" unicode="f" horiz-adv-x="837" 
d="M404 928h364v-118h-364v-810h-138v810h-186v118h186v166q0 115 39.5 196t111.5 122.5t168 41.5q65 0 111.5 -12t72.5 -25.5t26 -15.5l-37 -111q0 1 -22 12t-58 20.5t-80 9.5q-91 0 -142.5 -61t-51.5 -182v-161z" />
    <glyph glyph-name="g" unicode="g" horiz-adv-x="1168" 
d="M1021 928v-920q0 -133 -54.5 -231.5t-158.5 -152.5t-247 -54q-125 0 -213.5 36t-137 78t-48.5 49l78 89q0 -5 39 -38t109.5 -61.5t168.5 -28.5q152 0 238.5 81.5t86.5 237.5v119q-54 -49 -130 -83.5t-175 -34.5q-135 0 -241.5 60t-166.5 166.5t-60 239.5q0 130 59.5 237
t166 169t242.5 62q99 0 175.5 -34.5t129.5 -84.5v99h139zM761.5 174q71.5 40 120.5 98v418q-49 59 -120.5 99t-167.5 40q-99 0 -176 -44.5t-119.5 -124t-42.5 -180.5t42.5 -179.5t119.5 -122.5t176 -44q96 0 167.5 40z" />
    <glyph glyph-name="gbreve" unicode="&#x11f;" horiz-adv-x="1168" 
d="M109 0zM1021 928v-920q0 -133 -54.5 -231.5t-158.5 -152.5t-247 -54q-125 0 -213.5 36t-137 78t-48.5 49l78 89q0 -5 39 -38t109.5 -61.5t168.5 -28.5q152 0 238.5 81.5t86.5 237.5v119q-54 -49 -130 -83.5t-175 -34.5q-135 0 -241.5 60t-166.5 166.5t-60 239.5
q0 130 59.5 237t166 169t242.5 62q99 0 175.5 -34.5t129.5 -84.5v99h139zM761.5 174q71.5 40 120.5 98v418q-49 59 -120.5 99t-167.5 40q-99 0 -176 -44.5t-119.5 -124t-42.5 -180.5t42.5 -179.5t119.5 -122.5t176 -44q96 0 167.5 40zM441 1142.5q-66 29.5 -103.5 64
t-37.5 39.5v122q0 -5 40 -43.5t106.5 -71t152.5 -32.5t152 32.5t106 71t40 43.5v-122q0 -5 -38.5 -39.5t-105 -64t-157.5 -29.5q-89 0 -155 29.5z" />
    <glyph glyph-name="gcommaaccent" unicode="&#x123;" horiz-adv-x="1168" 
d="M109 0zM1021 928v-920q0 -133 -54.5 -231.5t-158.5 -152.5t-247 -54q-125 0 -213.5 36t-137 78t-48.5 49l78 89q0 -5 39 -38t109.5 -61.5t168.5 -28.5q152 0 238.5 81.5t86.5 237.5v119q-54 -49 -130 -83.5t-175 -34.5q-135 0 -241.5 60t-166.5 166.5t-60 239.5
q0 130 59.5 237t166 169t242.5 62q99 0 175.5 -34.5t129.5 -84.5v99h139zM761.5 174q71.5 40 120.5 98v418q-49 59 -120.5 99t-167.5 40q-99 0 -176 -44.5t-119.5 -124t-42.5 -180.5t42.5 -179.5t119.5 -122.5t176 -44q96 0 167.5 40zM613 1373h129l-78 -324h-138z" />
    <glyph glyph-name="gdotaccent" unicode="&#x121;" horiz-adv-x="1168" 
d="M109 0zM1021 928v-920q0 -133 -54.5 -231.5t-158.5 -152.5t-247 -54q-125 0 -213.5 36t-137 78t-48.5 49l78 89q0 -5 39 -38t109.5 -61.5t168.5 -28.5q152 0 238.5 81.5t86.5 237.5v119q-54 -49 -130 -83.5t-175 -34.5q-135 0 -241.5 60t-166.5 166.5t-60 239.5
q0 130 59.5 237t166 169t242.5 62q99 0 175.5 -34.5t129.5 -84.5v99h139zM761.5 174q71.5 40 120.5 98v418q-49 59 -120.5 99t-167.5 40q-99 0 -176 -44.5t-119.5 -124t-42.5 -180.5t42.5 -179.5t119.5 -122.5t176 -44q96 0 167.5 40zM530.5 1147.5q-25.5 24.5 -25.5 61.5
q0 38 25.5 63t65.5 25q41 0 65.5 -24.5t24.5 -63.5q0 -37 -25 -61.5t-65 -24.5t-65.5 24.5z" />
    <glyph glyph-name="h" unicode="h" horiz-adv-x="1133" 
d="M819 898.5q86 -49.5 130.5 -136.5t44.5 -200v-562h-137v549q0 85 -32.5 147t-93 95.5t-142.5 33.5q-107 0 -182.5 -51t-122.5 -120v-654h-137v1434h137v-631q54 58 135 101.5t192 43.5q122 0 208 -49.5z" />
    <glyph glyph-name="hbar" unicode="&#x127;" horiz-adv-x="1133" 
d="M819 898.5q86 -49.5 130.5 -136.5t44.5 -200v-562h-137v549q0 85 -32.5 147t-93 95.5t-142.5 33.5q-107 0 -182.5 -51t-122.5 -120v-654h-137v1120h-127v111h127v203h137v-203h564v-111h-564v-317q54 58 135 101.5t192 43.5q122 0 208 -49.5z" />
    <glyph glyph-name="i" unicode="i" horiz-adv-x="435" 
d="M152.5 1147.5q-25.5 24.5 -25.5 61.5q0 38 25 63t65 25q41 0 65.5 -24.5t24.5 -63.5q0 -37 -24.5 -61.5t-64.5 -24.5t-65.5 24.5zM147 928h140v-928h-140v928z" />
    <glyph glyph-name="dotlessi" unicode="&#x131;" horiz-adv-x="435" 
d="M147 928h140v-928h-140v928z" />
    <glyph glyph-name="iacute" unicode="&#xed;" horiz-adv-x="435" 
d="M29 0zM147 928h140v-928h-140v928zM29 1226l374 120v-129l-374 -110v119z" />
    <glyph glyph-name="icircumflex" unicode="&#xee;" horiz-adv-x="435" 
d="M0 0zM147 928h140v-928h-140v928zM-62 1217l281 145l280 -145v-115l-280 132l-281 -132v115z" />
    <glyph glyph-name="idieresis" unicode="&#xef;" horiz-adv-x="435" 
d="M0 0zM147 928h140v-928h-140v928zM0.5 1148.5q-24.5 24.5 -24.5 61.5q0 38 24.5 62.5t63.5 24.5t63.5 -24.5t24.5 -62.5q0 -37 -24.5 -61.5t-63.5 -24.5t-63.5 24.5zM306.5 1148.5q-24.5 24.5 -24.5 61.5q0 38 24 62.5t63 24.5t63.5 -24.5t24.5 -62.5q0 -37 -24.5 -61.5
t-62.5 -24.5q-39 0 -63.5 24.5z" />
    <glyph glyph-name="i.loclTRK" horiz-adv-x="435" 
d="M125 0zM147 928h140v-928h-140v928zM150.5 1147.5q-25.5 24.5 -25.5 61.5q0 38 25.5 63t65.5 25q41 0 65.5 -24.5t24.5 -63.5q0 -37 -25 -61.5t-65 -24.5t-65.5 24.5z" />
    <glyph glyph-name="igrave" unicode="&#xec;" horiz-adv-x="435" 
d="M10 0zM147 928h140v-928h-140v928zM10 1217v129l374 -120v-119z" />
    <glyph glyph-name="imacron" unicode="&#x12b;" horiz-adv-x="435" 
d="M0 0zM147 928h140v-928h-140v928zM-31 1256h498v-113h-498v113z" />
    <glyph glyph-name="iogonek" unicode="&#x12f;" horiz-adv-x="435" 
d="M150.5 1147.5q-25.5 24.5 -25.5 61.5q0 38 25.5 63t65.5 25q41 0 65.5 -24.5t24.5 -63.5q0 -37 -25 -61.5t-65 -24.5t-65.5 24.5zM252 -318q36 10 60.5 22t24.5 13v-95q0 -2 -22.5 -15.5t-63 -25t-97.5 -11.5q-96 0 -153.5 46.5t-57.5 128.5q0 87 61 154t149 101h-6v928
h140v-928q-93 -44 -158 -103.5t-65 -130.5q0 -43 27 -68.5t84 -25.5q41 0 77 10z" />
    <glyph glyph-name="j" unicode="j" horiz-adv-x="436" 
d="M153 1147.5q-25 24.5 -25 61.5q0 39 25 63.5t65 24.5q41 0 66 -24.5t25 -63.5q0 -37 -25 -61.5t-65 -24.5q-41 0 -66 24.5zM-59.5 -428.5q-15.5 1.5 -20.5 2.5l12 117q3 0 12 -1t22 -1q182 0 182 229v1010h140v-1011q0 -172 -85.5 -259.5t-230.5 -87.5q-16 0 -31.5 1.5z
" />
    <glyph glyph-name="k" unicode="k" horiz-adv-x="1014" 
d="M752 0l-468 423v-423h-137v1434h137v-931l468 425h184l-519 -458l527 -470h-192z" />
    <glyph glyph-name="kcommaaccent" unicode="&#x137;" horiz-adv-x="1014" 
d="M147 0zM752 0l-468 423v-423h-137v1434h137v-931l468 425h184l-519 -458l527 -470h-192zM443 -90h137l-88 -340h-130z" />
    <glyph glyph-name="l" unicode="l" horiz-adv-x="435" 
d="M147 1434h141v-1434h-141v1434z" />
    <glyph glyph-name="lacute" unicode="&#x13a;" horiz-adv-x="435" 
d="M30 0zM147 1434h141v-1434h-141v1434zM30 1658l374 120v-129l-374 -110v119z" />
    <glyph glyph-name="lcaron" unicode="&#x13e;" horiz-adv-x="485" 
d="M147 0zM147 1434h141v-1434h-141v1434zM384 1434h115l-48 -406h-67v406z" />
    <glyph glyph-name="lcommaaccent" unicode="&#x13c;" horiz-adv-x="435" 
d="M68 0zM147 1434h141v-1434h-141v1434zM149 -90h137l-88 -340h-130z" />
    <glyph glyph-name="ldot" unicode="&#x140;" horiz-adv-x="476" 
d="M147 1434h141v-1434h-141v1434zM387 510q-25 25 -25 62q0 39 25 64t65 25t64.5 -25t24.5 -64q0 -37 -25 -62t-64 -25q-40 0 -65 25z" />
    <glyph glyph-name="lslash" unicode="&#x142;" horiz-adv-x="483" 
d="M451 838l-140 -100v-738h-141v637l-138 -99v136l138 101v659h141v-555l140 103v-144z" />
    <glyph glyph-name="m" unicode="m" horiz-adv-x="1735" 
d="M1436 901q80 -47 120.5 -130t40.5 -191v-580h-137v570q0 120 -63.5 188.5t-177.5 68.5q-100 0 -171 -47t-116 -111q8 -45 8 -89v-580h-136v570q0 120 -64 188.5t-178 68.5q-99 0 -167.5 -46t-111.5 -109v-672h-136v928h136v-117q49 55 123.5 96t177.5 41q115 0 195 -47
t121 -132q40 57 125 118t216 61q115 0 195 -47z" />
    <glyph glyph-name="n" unicode="n" horiz-adv-x="1133" 
d="M819 898.5q86 -49.5 130.5 -136.5t44.5 -200v-562h-141v551q0 129 -70.5 202.5t-193.5 73.5q-107 0 -182.5 -51t-122.5 -120v-656h-137v928h137v-125q54 58 135 101.5t192 43.5q122 0 208 -49.5z" />
    <glyph glyph-name="nacute" unicode="&#x144;" horiz-adv-x="1133" 
d="M147 0zM819 898.5q86 -49.5 130.5 -136.5t44.5 -200v-562h-141v551q0 129 -70.5 202.5t-193.5 73.5q-107 0 -182.5 -51t-122.5 -120v-656h-137v928h137v-125q54 58 135 101.5t192 43.5q122 0 208 -49.5zM394 1226l374 120v-129l-374 -110v119z" />
    <glyph glyph-name="ncaron" unicode="&#x148;" horiz-adv-x="1133" 
d="M147 0zM819 898.5q86 -49.5 130.5 -136.5t44.5 -200v-562h-141v551q0 129 -70.5 202.5t-193.5 73.5q-107 0 -182.5 -51t-122.5 -120v-656h-137v928h137v-125q54 58 135 101.5t192 43.5q122 0 208 -49.5zM303 1239v115l281 -133l280 133v-115l-280 -146z" />
    <glyph glyph-name="ncommaaccent" unicode="&#x146;" horiz-adv-x="1133" 
d="M147 0zM819 898.5q86 -49.5 130.5 -136.5t44.5 -200v-562h-141v551q0 129 -70.5 202.5t-193.5 73.5q-107 0 -182.5 -51t-122.5 -120v-656h-137v928h137v-125q54 58 135 101.5t192 43.5q122 0 208 -49.5zM507 -90h137l-88 -340h-130z" />
    <glyph glyph-name="eng" unicode="&#x14b;" horiz-adv-x="1132" 
d="M819 898.5q86 -49.5 130.5 -136.5t44.5 -200v-647q0 -171 -85 -258t-229 -87q-16 0 -31.5 1.5t-20.5 2.5l12 116q3 0 12 -1t22 -1q181 0 181 229v634q0 128 -71 202t-195 74q-107 0 -182.5 -51t-122.5 -120v-656h-137v928h137v-125q54 58 135 101.5t192 43.5
q122 0 208 -49.5z" />
    <glyph glyph-name="ntilde" unicode="&#xf1;" horiz-adv-x="1133" 
d="M147 0zM819 898.5q86 -49.5 130.5 -136.5t44.5 -200v-562h-141v551q0 129 -70.5 202.5t-193.5 73.5q-107 0 -182.5 -51t-122.5 -120v-656h-137v928h137v-125q54 58 135 101.5t192 43.5q122 0 208 -49.5zM641 1121.5q-35 12.5 -78 37.5q-37 21 -63.5 31.5t-62.5 10.5
q-42 0 -76 -18t-55 -39t-21 -24v122q0 3 21.5 22t57.5 35.5t82 16.5q51 0 87 -13t79 -38q37 -21 63 -31t59 -10q44 0 76.5 17.5t51 37.5t18.5 23v-119q0 -3 -19 -22t-53.5 -35.5t-81.5 -16.5q-50 0 -85 12.5z" />
    <glyph glyph-name="o" unicode="o" horiz-adv-x="1190" 
d="M342 42q-111 64 -172 174.5t-61 246.5q0 139 63 249.5t174 173t249 62.5q142 0 253 -63t172.5 -173t61.5 -246q0 -139 -63 -250.5t-174 -174.5t-250 -63q-142 0 -253 64zM773.5 143.5q78.5 46.5 122 130t43.5 189.5q0 107 -44 190t-122 129.5t-178 46.5
q-101 0 -179 -46.5t-121.5 -129.5t-43.5 -190t43.5 -190t121.5 -129.5t179 -46.5q100 0 178.5 46.5z" />
    <glyph glyph-name="oacute" unicode="&#xf3;" horiz-adv-x="1190" 
d="M109 0zM342 42q-111 64 -172 174.5t-61 246.5q0 139 63 249.5t174 173t249 62.5q142 0 253 -63t172.5 -173t61.5 -246q0 -139 -63 -250.5t-174 -174.5t-250 -63q-142 0 -253 64zM773.5 143.5q78.5 46.5 122 130t43.5 189.5q0 107 -44 190t-122 129.5t-178 46.5
q-101 0 -179 -46.5t-121.5 -129.5t-43.5 -190t43.5 -190t121.5 -129.5t179 -46.5q100 0 178.5 46.5zM408 1226l374 120v-129l-374 -110v119z" />
    <glyph glyph-name="ocircumflex" unicode="&#xf4;" horiz-adv-x="1190" 
d="M109 0zM342 42q-111 64 -172 174.5t-61 246.5q0 139 63 249.5t174 173t249 62.5q142 0 253 -63t172.5 -173t61.5 -246q0 -139 -63 -250.5t-174 -174.5t-250 -63q-142 0 -253 64zM773.5 143.5q78.5 46.5 122 130t43.5 189.5q0 107 -44 190t-122 129.5t-178 46.5
q-101 0 -179 -46.5t-121.5 -129.5t-43.5 -190t43.5 -190t121.5 -129.5t179 -46.5q100 0 178.5 46.5zM317 1217l281 145l280 -145v-115l-280 132l-281 -132v115z" />
    <glyph glyph-name="odieresis" unicode="&#xf6;" horiz-adv-x="1190" 
d="M109 0zM342 42q-111 64 -172 174.5t-61 246.5q0 139 63 249.5t174 173t249 62.5q142 0 253 -63t172.5 -173t61.5 -246q0 -139 -63 -250.5t-174 -174.5t-250 -63q-142 0 -253 64zM773.5 143.5q78.5 46.5 122 130t43.5 189.5q0 107 -44 190t-122 129.5t-178 46.5
q-101 0 -179 -46.5t-121.5 -129.5t-43.5 -190t43.5 -190t121.5 -129.5t179 -46.5q100 0 178.5 46.5zM379.5 1148.5q-24.5 24.5 -24.5 61.5q0 38 24.5 62.5t63.5 24.5t63.5 -24.5t24.5 -62.5q0 -37 -24.5 -61.5t-63.5 -24.5t-63.5 24.5zM685.5 1148.5q-24.5 24.5 -24.5 61.5
q0 38 24 62.5t63 24.5t63.5 -24.5t24.5 -62.5q0 -37 -24.5 -61.5t-62.5 -24.5q-39 0 -63.5 24.5z" />
    <glyph glyph-name="ograve" unicode="&#xf2;" horiz-adv-x="1190" 
d="M109 0zM342 42q-111 64 -172 174.5t-61 246.5q0 139 63 249.5t174 173t249 62.5q142 0 253 -63t172.5 -173t61.5 -246q0 -139 -63 -250.5t-174 -174.5t-250 -63q-142 0 -253 64zM773.5 143.5q78.5 46.5 122 130t43.5 189.5q0 107 -44 190t-122 129.5t-178 46.5
q-101 0 -179 -46.5t-121.5 -129.5t-43.5 -190t43.5 -190t121.5 -129.5t179 -46.5q100 0 178.5 46.5zM389 1217v129l374 -120v-119z" />
    <glyph glyph-name="ohungarumlaut" unicode="&#x151;" horiz-adv-x="1190" 
d="M109 0zM342 42q-111 64 -172 174.5t-61 246.5q0 139 63 249.5t174 173t249 62.5q142 0 253 -63t172.5 -173t61.5 -246q0 -139 -63 -250.5t-174 -174.5t-250 -63q-142 0 -253 64zM773.5 143.5q78.5 46.5 122 130t43.5 189.5q0 107 -44 190t-122 129.5t-178 46.5
q-101 0 -179 -46.5t-121.5 -129.5t-43.5 -190t43.5 -190t121.5 -129.5t179 -46.5q100 0 178.5 46.5zM575 1316h144l-164 -204h-128zM861 1316h154l-221 -204h-124z" />
    <glyph glyph-name="omacron" unicode="&#x14d;" horiz-adv-x="1190" 
d="M109 0zM342 42q-111 64 -172 174.5t-61 246.5q0 139 63 249.5t174 173t249 62.5q142 0 253 -63t172.5 -173t61.5 -246q0 -139 -63 -250.5t-174 -174.5t-250 -63q-142 0 -253 64zM773.5 143.5q78.5 46.5 122 130t43.5 189.5q0 107 -44 190t-122 129.5t-178 46.5
q-101 0 -179 -46.5t-121.5 -129.5t-43.5 -190t43.5 -190t121.5 -129.5t179 -46.5q100 0 178.5 46.5zM348 1256h498v-113h-498v113z" />
    <glyph glyph-name="oslash" unicode="&#xf8;" horiz-adv-x="1190" 
d="M1027.5 698q54.5 -105 54.5 -232q0 -139 -63 -250.5t-174 -174.5t-250 -63q-92 0 -174 28l-77 -145h-124l102 193q-100 64 -156.5 171.5t-56.5 237.5q0 139 63 249.5t174 173t249 62.5q98 0 183 -31l81 152h124l-107 -202q97 -64 151.5 -169zM285.5 292
q34.5 -76 96.5 -125l339 640q-61 22 -126 22q-101 0 -179 -46.5t-121.5 -129.5t-43.5 -190q0 -95 34.5 -171zM773.5 143.5q78.5 46.5 122 130t43.5 189.5q0 91 -32 166t-91 124l-338 -638q54 -18 117 -18q100 0 178.5 46.5z" />
    <glyph glyph-name="otilde" unicode="&#xf5;" horiz-adv-x="1190" 
d="M109 0zM342 42q-111 64 -172 174.5t-61 246.5q0 139 63 249.5t174 173t249 62.5q142 0 253 -63t172.5 -173t61.5 -246q0 -139 -63 -250.5t-174 -174.5t-250 -63q-142 0 -253 64zM773.5 143.5q78.5 46.5 122 130t43.5 189.5q0 107 -44 190t-122 129.5t-178 46.5
q-101 0 -179 -46.5t-121.5 -129.5t-43.5 -190t43.5 -190t121.5 -129.5t179 -46.5q100 0 178.5 46.5zM655 1121.5q-35 12.5 -78 37.5q-37 21 -63.5 31.5t-62.5 10.5q-42 0 -76 -18t-55 -39t-21 -24v122q0 3 21.5 22t57.5 35.5t82 16.5q51 0 87 -13t79 -38q37 -21 63 -31
t59 -10q44 0 76.5 17.5t51 37.5t18.5 23v-119q0 -3 -19 -22t-53.5 -35.5t-81.5 -16.5q-50 0 -85 12.5z" />
    <glyph glyph-name="oe" unicode="&#x153;" horiz-adv-x="1977" 
d="M1877 414l-787 1q9 -96 55 -167t124 -109t181 -38q98 0 167 27.5t107 59t38 36.5l73 -84q0 -7 -46.5 -48.5t-133 -77.5t-208.5 -36q-152 0 -264.5 65t-170.5 180q-59 -114 -168 -179.5t-249 -65.5q-142 0 -253 64t-172 174.5t-61 246.5q0 139 63 249.5t174 173t249 62.5
q143 0 251.5 -64.5t165.5 -177.5q57 113 162 177.5t241 64.5q140 0 244.5 -63t161 -173.5t56.5 -248.5v-49zM1735 524q-9 92 -50 162.5t-110 109.5t-161 39q-86 0 -156 -39t-113.5 -109.5t-54.5 -162.5h645zM773.5 143.5q78.5 46.5 122 130t43.5 189.5t-44 189t-122 129.5
t-178 46.5q-101 0 -179 -46.5t-121.5 -129.5t-43.5 -189q0 -107 43.5 -190t121.5 -129.5t179 -46.5q100 0 178.5 46.5z" />
    <glyph glyph-name="p" unicode="p" horiz-adv-x="1181" 
d="M845 884q108 -64 168 -174.5t60 -245.5q0 -138 -61.5 -249t-169.5 -174t-243 -63q-101 0 -179 36.5t-134 88.5v-511h-139v1336h139v-105q56 52 134 88.5t179 36.5q138 0 246 -64zM760.5 145q78.5 46 122.5 129t44 190q0 106 -44 188.5t-122.5 129t-178.5 46.5t-173 -42
t-123 -103v-440q50 -61 123 -102.5t173 -41.5t178.5 46z" />
    <glyph glyph-name="thorn" unicode="&#xfe;" horiz-adv-x="1178" 
d="M845 884q108 -64 168 -174.5t60 -245.5q0 -138 -61.5 -249t-169.5 -174t-243 -63q-101 0 -179 36.5t-134 88.5v-511h-139v1842h139v-611q56 52 134 88.5t179 36.5q138 0 246 -64zM760.5 145q78.5 46 122.5 129t44 190q0 106 -44 188.5t-122.5 129t-178.5 46.5t-173 -42
t-123 -103v-440q50 -61 123 -102.5t173 -41.5t178.5 46z" />
    <glyph glyph-name="q" unicode="q" horiz-adv-x="1181" 
d="M1034 928v-1336h-139v511q-56 -52 -134 -88.5t-179 -36.5q-135 0 -243 63t-169 173.5t-61 248.5q0 135 60 246t167.5 175t245.5 64q101 0 179 -36.5t134 -88.5v105h139zM772 140.5q73 41.5 123 102.5v440q-50 61 -123 103t-173 42t-178.5 -46.5t-122.5 -129t-44 -188.5
q0 -107 44 -190t122.5 -129t178.5 -46t173 41.5z" />
    <glyph glyph-name="r" unicode="r" horiz-adv-x="717" 
d="M632 944.5q19 -3.5 24 -5.5l-14 -128q-4 1 -20.5 3.5t-38.5 2.5q-105 0 -178.5 -58.5t-119.5 -137.5v-621h-138v928h138v-150q50 68 125.5 119t177.5 51q25 0 44 -3.5z" />
    <glyph glyph-name="racute" unicode="&#x155;" horiz-adv-x="717" 
d="M147 0zM632 944.5q19 -3.5 24 -5.5l-14 -128q-4 1 -20.5 3.5t-38.5 2.5q-105 0 -178.5 -58.5t-119.5 -137.5v-621h-138v928h138v-150q50 68 125.5 119t177.5 51q25 0 44 -3.5zM214 1226l374 120v-129l-374 -110v119z" />
    <glyph glyph-name="rcaron" unicode="&#x159;" horiz-adv-x="717" 
d="M123 0zM632 944.5q19 -3.5 24 -5.5l-14 -128q-4 1 -20.5 3.5t-38.5 2.5q-105 0 -178.5 -58.5t-119.5 -137.5v-621h-138v928h138v-150q50 68 125.5 119t177.5 51q25 0 44 -3.5zM123 1239v115l281 -133l280 133v-115l-280 -146z" />
    <glyph glyph-name="rcommaaccent" unicode="&#x157;" horiz-adv-x="717" 
d="M66 0zM632 944.5q19 -3.5 24 -5.5l-14 -128q-4 1 -20.5 3.5t-38.5 2.5q-105 0 -178.5 -58.5t-119.5 -137.5v-621h-138v928h138v-150q50 68 125.5 119t177.5 51q25 0 44 -3.5zM147 -90h137l-88 -340h-130z" />
    <glyph glyph-name="s" unicode="s" horiz-adv-x="853" 
d="M252.5 3q-73.5 23 -114 49.5t-40.5 30.5l59 101q0 -3 33 -25.5t91 -42t138 -19.5q85 0 137 40.5t52 115.5q0 44 -19.5 72.5t-58 47t-103.5 35.5l-41 10q-82 20 -138.5 49.5t-90 80.5t-33.5 130q0 77 39 138.5t110.5 96.5t164.5 35q90 0 158 -21t107.5 -45.5t39.5 -27.5
l-58 -102q0 3 -31 23t-84 37.5t-124 17.5q-83 0 -129.5 -38.5t-46.5 -109.5q0 -45 20.5 -73t58.5 -45.5t104 -35.5l39 -9q82 -20 138 -49.5t90 -81t34 -131.5q0 -81 -40 -143.5t-114.5 -98t-172.5 -35.5q-101 0 -174.5 23z" />
    <glyph glyph-name="sacute" unicode="&#x15b;" horiz-adv-x="853" 
d="M98 0zM252.5 3q-73.5 23 -114 49.5t-40.5 30.5l59 101q0 -3 33 -25.5t91 -42t138 -19.5q85 0 137 40.5t52 115.5q0 44 -19.5 72.5t-58 47t-103.5 35.5l-41 10q-82 20 -138.5 49.5t-90 80.5t-33.5 130q0 77 39 138.5t110.5 96.5t164.5 35q90 0 158 -21t107.5 -45.5
t39.5 -27.5l-58 -102q0 3 -31 23t-84 37.5t-124 17.5q-83 0 -129.5 -38.5t-46.5 -109.5q0 -45 20.5 -73t58.5 -45.5t104 -35.5l39 -9q82 -20 138 -49.5t90 -81t34 -131.5q0 -81 -40 -143.5t-114.5 -98t-172.5 -35.5q-101 0 -174.5 23zM255 1226l374 120v-129l-374 -110v119z
" />
    <glyph glyph-name="scaron" unicode="&#x161;" horiz-adv-x="853" 
d="M98 0zM252.5 3q-73.5 23 -114 49.5t-40.5 30.5l59 101q0 -3 33 -25.5t91 -42t138 -19.5q85 0 137 40.5t52 115.5q0 44 -19.5 72.5t-58 47t-103.5 35.5l-41 10q-82 20 -138.5 49.5t-90 80.5t-33.5 130q0 77 39 138.5t110.5 96.5t164.5 35q90 0 158 -21t107.5 -45.5
t39.5 -27.5l-58 -102q0 3 -31 23t-84 37.5t-124 17.5q-83 0 -129.5 -38.5t-46.5 -109.5q0 -45 20.5 -73t58.5 -45.5t104 -35.5l39 -9q82 -20 138 -49.5t90 -81t34 -131.5q0 -81 -40 -143.5t-114.5 -98t-172.5 -35.5q-101 0 -174.5 23zM164 1239v115l281 -133l280 133v-115
l-280 -146z" />
    <glyph glyph-name="scedilla" unicode="&#x15f;" horiz-adv-x="853" 
d="M720.5 125q-33.5 -59 -95.5 -96t-146 -46l-56 -86l49 -8q86 -13 132 -46.5t46 -101.5q0 -79 -64.5 -125t-170.5 -46q-64 0 -116 13t-84.5 28t-32.5 17v101q0 -2 35.5 -19.5t87 -32t107.5 -14.5q59 0 92.5 19.5t33.5 54.5t-29.5 50t-99.5 25l-123 18l100 151
q-88 5 -152 27.5t-100 47t-36 27.5l59 101q0 -3 33 -25.5t91 -42t138 -19.5q85 0 137 40.5t52 115.5q0 44 -19.5 72.5t-58 47t-103.5 35.5l-41 10q-82 20 -138.5 49.5t-90 80.5t-33.5 130q0 77 39 138.5t110.5 96.5t164.5 35q90 0 158 -21t107.5 -45.5t39.5 -27.5l-58 -102
q0 3 -31 23t-84 37.5t-124 17.5q-83 0 -129.5 -38.5t-46.5 -109.5q0 -45 20.5 -73t58.5 -45.5t104 -35.5l39 -9q82 -20 138 -49.5t90 -81t34 -131.5q0 -73 -33.5 -132z" />
    <glyph glyph-name="scommaaccent" unicode="&#x219;" horiz-adv-x="853" 
d="M98 0zM252.5 3q-73.5 23 -114 49.5t-40.5 30.5l59 101q0 -3 33 -25.5t91 -42t138 -19.5q85 0 137 40.5t52 115.5q0 44 -19.5 72.5t-58 47t-103.5 35.5l-41 10q-82 20 -138.5 49.5t-90 80.5t-33.5 130q0 77 39 138.5t110.5 96.5t164.5 35q90 0 158 -21t107.5 -45.5
t39.5 -27.5l-58 -102q0 3 -31 23t-84 37.5t-124 17.5q-83 0 -129.5 -38.5t-46.5 -109.5q0 -45 20.5 -73t58.5 -45.5t104 -35.5l39 -9q82 -20 138 -49.5t90 -81t34 -131.5q0 -81 -40 -143.5t-114.5 -98t-172.5 -35.5q-101 0 -174.5 23zM372 -90h137l-88 -340h-130z" />
    <glyph glyph-name="germandbls" unicode="&#xdf;" horiz-adv-x="1180" 
d="M551.5 -9q-44.5 11 -71 24t-26.5 15l35 111q0 -1 23 -11.5t58.5 -19.5t77.5 -9q83 0 147 33.5t100 97t36 150.5q0 129 -88 194t-228 65h-89v116h89q77 0 139.5 36t98.5 103t36 154q0 85 -36 149.5t-101.5 100.5t-152.5 36q-147 0 -231 -91t-84 -266v-981h-137v981
q0 140 54.5 247.5t157 167.5t243.5 60q128 0 223.5 -49t147.5 -138.5t52 -207.5q0 -167 -82.5 -245t-152.5 -106q45 -9 104 -34.5t118.5 -97.5t59.5 -196q0 -123 -54.5 -213.5t-149 -138.5t-213.5 -48q-59 0 -103.5 11z" />
    <glyph glyph-name="t" unicode="t" horiz-adv-x="819" 
d="M776 34q0 -2 -27 -16t-74.5 -26t-111.5 -12q-149 0 -232 86.5t-83 258.5v486h-177v117h177v355h138v-355h364v-117h-364v-472q0 -120 50 -177t142 -57q44 0 80 9.5t59 21t23 12.5z" />
    <glyph glyph-name="tbar" unicode="&#x167;" horiz-adv-x="819" 
d="M776 34q0 -2 -27 -16t-74.5 -26t-111.5 -12q-149 0 -232 86.5t-83 258.5v188h-177v103h177v195h-177v117h177v355h138v-355h364v-117h-364v-195h356v-103h-356v-174q0 -120 50 -177t142 -57q44 0 80 9.5t59 21t23 12.5z" />
    <glyph glyph-name="tcaron" unicode="&#x165;" horiz-adv-x="819" 
d="M71 0zM776 34q0 -2 -27 -16t-74.5 -26t-111.5 -12q-149 0 -232 86.5t-83 258.5v486h-177v117h177v355h138v-355h364v-117h-364v-472q0 -120 50 -177t142 -57q44 0 80 9.5t59 21t23 12.5zM506 1434h115l-48 -406h-67v406z" />
    <glyph glyph-name="tcommaaccent" unicode="&#x163;" horiz-adv-x="819" 
d="M687 -157.5q46 -33.5 46 -101.5q0 -79 -64.5 -125t-170.5 -46q-64 0 -116 13t-84.5 28t-32.5 17v101q0 -2 35.5 -19.5t87 -32t107.5 -14.5q59 0 92.5 19t33.5 55q0 35 -29.5 50t-99.5 25l-123 18l106 159q-109 23 -168 107t-59 229v486h-177v117h177v355h138v-355h364
v-117h-364v-472q0 -120 50 -177t142 -57q44 0 80 9.5t59 21t23 12.5l36 -114q0 -2 -27 -16t-74.5 -26t-111.5 -12h-3l-54 -83l49 -8q86 -13 132 -46.5z" />
    <glyph glyph-name="uni021B" unicode="&#x21b;" horiz-adv-x="819" 
d="M71 0zM776 34q0 -2 -27 -16t-74.5 -26t-111.5 -12q-149 0 -232 86.5t-83 258.5v486h-177v117h177v355h138v-355h364v-117h-364v-472q0 -120 50 -177t142 -57q44 0 80 9.5t59 21t23 12.5zM455 -90h137l-88 -340h-130z" />
    <glyph glyph-name="u" unicode="u" horiz-adv-x="1134" 
d="M987 928v-928h-139v123q-54 -57 -135.5 -100t-191.5 -43q-122 0 -208 49.5t-130.5 136.5t-44.5 200v562h141v-552q0 -128 71 -201.5t194 -73.5q106 0 181.5 50t122.5 118v659h139z" />
    <glyph glyph-name="uacute" unicode="&#xfa;" horiz-adv-x="1134" 
d="M138 0zM987 928v-928h-139v123q-54 -57 -135.5 -100t-191.5 -43q-122 0 -208 49.5t-130.5 136.5t-44.5 200v562h141v-552q0 -128 71 -201.5t194 -73.5q106 0 181.5 50t122.5 118v659h139zM380 1226l374 120v-129l-374 -110v119z" />
    <glyph glyph-name="ucircumflex" unicode="&#xfb;" horiz-adv-x="1134" 
d="M138 0zM987 928v-928h-139v123q-54 -57 -135.5 -100t-191.5 -43q-122 0 -208 49.5t-130.5 136.5t-44.5 200v562h141v-552q0 -128 71 -201.5t194 -73.5q106 0 181.5 50t122.5 118v659h139zM289 1217l281 145l280 -145v-115l-280 132l-281 -132v115z" />
    <glyph glyph-name="udieresis" unicode="&#xfc;" horiz-adv-x="1134" 
d="M138 0zM987 928v-928h-139v123q-54 -57 -135.5 -100t-191.5 -43q-122 0 -208 49.5t-130.5 136.5t-44.5 200v562h141v-552q0 -128 71 -201.5t194 -73.5q106 0 181.5 50t122.5 118v659h139zM351.5 1148.5q-24.5 24.5 -24.5 61.5q0 38 24.5 62.5t63.5 24.5t63.5 -24.5
t24.5 -62.5q0 -37 -24.5 -61.5t-63.5 -24.5t-63.5 24.5zM657.5 1148.5q-24.5 24.5 -24.5 61.5q0 38 24 62.5t63 24.5t63.5 -24.5t24.5 -62.5q0 -37 -24.5 -61.5t-62.5 -24.5q-39 0 -63.5 24.5z" />
    <glyph glyph-name="ugrave" unicode="&#xf9;" horiz-adv-x="1134" 
d="M138 0zM987 928v-928h-139v123q-54 -57 -135.5 -100t-191.5 -43q-122 0 -208 49.5t-130.5 136.5t-44.5 200v562h141v-552q0 -128 71 -201.5t194 -73.5q106 0 181.5 50t122.5 118v659h139zM361 1217v129l374 -120v-119z" />
    <glyph glyph-name="uhungarumlaut" unicode="&#x171;" horiz-adv-x="1134" 
d="M138 0zM987 928v-928h-139v123q-54 -57 -135.5 -100t-191.5 -43q-122 0 -208 49.5t-130.5 136.5t-44.5 200v562h141v-552q0 -128 71 -201.5t194 -73.5q106 0 181.5 50t122.5 118v659h139zM547 1316h144l-164 -204h-128zM833 1316h154l-221 -204h-124z" />
    <glyph glyph-name="umacron" unicode="&#x16b;" horiz-adv-x="1134" 
d="M138 0zM987 928v-928h-139v123q-54 -57 -135.5 -100t-191.5 -43q-122 0 -208 49.5t-130.5 136.5t-44.5 200v562h141v-552q0 -128 71 -201.5t194 -73.5q106 0 181.5 50t122.5 118v659h139zM320 1256h498v-113h-498v113z" />
    <glyph glyph-name="uogonek" unicode="&#x173;" horiz-adv-x="1134" 
d="M952 -318q36 10 60.5 22t24.5 13v-95q0 -2 -22.5 -15.5t-63 -25t-97.5 -11.5q-96 0 -153.5 46.5t-57.5 128.5q0 87 61 154t149 101h-5v123q-54 -57 -135.5 -100t-191.5 -43q-122 0 -208 49.5t-130.5 136.5t-44.5 200v562h141v-552q0 -128 71 -201.5t194 -73.5
q106 0 181.5 50t122.5 118v659h139v-928q-93 -44 -158 -103.5t-65 -130.5q0 -43 27 -68.5t84 -25.5q41 0 77 10z" />
    <glyph glyph-name="uring" unicode="&#x16f;" horiz-adv-x="1134" 
d="M138 0zM987 928v-928h-139v123q-54 -57 -135.5 -100t-191.5 -43q-122 0 -208 49.5t-130.5 136.5t-44.5 200v562h141v-552q0 -128 71 -201.5t194 -73.5q106 0 181.5 50t122.5 118v659h139zM468 1084q-46 23 -71.5 64.5t-25.5 95.5q0 56 25.5 98.5t71.5 66t104 23.5
q87 0 141 -51.5t54 -136.5q0 -54 -24.5 -95.5t-69 -64.5t-101.5 -23q-58 0 -104 23zM640 1176q27 27 27 70t-27 70.5t-69 27.5q-43 0 -71 -27.5t-28 -70.5t28 -70t71 -27q42 0 69 27z" />
    <glyph glyph-name="v" unicode="v" horiz-adv-x="1035" 
d="M59 928h151l307 -757l316 757h142l-398 -928h-130z" />
    <glyph glyph-name="w" unicode="w" horiz-adv-x="1537" 
d="M59 928h149l243 -729l265 729h102l259 -729l257 729h144l-340 -928h-123l-253 699l-258 -699h-125z" />
    <glyph glyph-name="wacute" unicode="&#x1e83;" horiz-adv-x="1537" 
d="M59 0zM59 928h149l243 -729l265 729h102l259 -729l257 729h144l-340 -928h-123l-253 699l-258 -699h-125zM580 1226l374 120v-129l-374 -110v119z" />
    <glyph glyph-name="wcircumflex" unicode="&#x175;" horiz-adv-x="1537" 
d="M59 0zM59 928h149l243 -729l265 729h102l259 -729l257 729h144l-340 -928h-123l-253 699l-258 -699h-125zM489 1217l281 145l280 -145v-115l-280 132l-281 -132v115z" />
    <glyph glyph-name="wdieresis" unicode="&#x1e85;" horiz-adv-x="1537" 
d="M59 0zM59 928h149l243 -729l265 729h102l259 -729l257 729h144l-340 -928h-123l-253 699l-258 -699h-125zM551.5 1148.5q-24.5 24.5 -24.5 61.5q0 38 24.5 62.5t63.5 24.5t63.5 -24.5t24.5 -62.5q0 -37 -24.5 -61.5t-63.5 -24.5t-63.5 24.5zM857.5 1148.5
q-24.5 24.5 -24.5 61.5q0 38 24 62.5t63 24.5t63.5 -24.5t24.5 -62.5q0 -37 -24.5 -61.5t-62.5 -24.5q-39 0 -63.5 24.5z" />
    <glyph glyph-name="wgrave" unicode="&#x1e81;" horiz-adv-x="1537" 
d="M59 0zM59 928h149l243 -729l265 729h102l259 -729l257 729h144l-340 -928h-123l-253 699l-258 -699h-125zM561 1217v129l374 -120v-119z" />
    <glyph glyph-name="x" unicode="x" horiz-adv-x="975" 
d="M393 463l-323 465h166l252 -380l255 380h160l-321 -464l324 -464h-162l-260 381l-255 -381h-160z" />
    <glyph glyph-name="y" unicode="y" horiz-adv-x="1035" 
d="M67 -305q109 0 195 61.5t136 169.5l50 109l-387 893h152l315 -746l306 746h141l-430 -1015q-69 -168 -189.5 -255.5t-288.5 -87.5v125z" />
    <glyph glyph-name="yacute" unicode="&#xfd;" horiz-adv-x="1035" 
d="M61 0zM67 -305q109 0 195 61.5t136 169.5l50 109l-387 893h152l315 -746l306 746h141l-430 -1015q-69 -168 -189.5 -255.5t-288.5 -87.5v125zM339 1226l374 120v-129l-374 -110v119z" />
    <glyph glyph-name="ycircumflex" unicode="&#x177;" horiz-adv-x="1035" 
d="M61 0zM67 -305q109 0 195 61.5t136 169.5l50 109l-387 893h152l315 -746l306 746h141l-430 -1015q-69 -168 -189.5 -255.5t-288.5 -87.5v125zM248 1217l281 145l280 -145v-115l-280 132l-281 -132v115z" />
    <glyph glyph-name="ydieresis" unicode="&#xff;" horiz-adv-x="1035" 
d="M61 0zM67 -305q109 0 195 61.5t136 169.5l50 109l-387 893h152l315 -746l306 746h141l-430 -1015q-69 -168 -189.5 -255.5t-288.5 -87.5v125zM310.5 1148.5q-24.5 24.5 -24.5 61.5q0 38 24.5 62.5t63.5 24.5t63.5 -24.5t24.5 -62.5q0 -37 -24.5 -61.5t-63.5 -24.5
t-63.5 24.5zM616.5 1148.5q-24.5 24.5 -24.5 61.5q0 38 24 62.5t63 24.5t63.5 -24.5t24.5 -62.5q0 -37 -24.5 -61.5t-62.5 -24.5q-39 0 -63.5 24.5z" />
    <glyph glyph-name="ygrave" unicode="&#x1ef3;" horiz-adv-x="1035" 
d="M61 0zM67 -305q109 0 195 61.5t136 169.5l50 109l-387 893h152l315 -746l306 746h141l-430 -1015q-69 -168 -189.5 -255.5t-288.5 -87.5v125zM320 1217v129l374 -120v-119z" />
    <glyph glyph-name="z" unicode="z" horiz-adv-x="977" 
d="M92 100l576 711h-555v117h740v-100l-576 -708h608v-120h-793v100z" />
    <glyph glyph-name="zacute" unicode="&#x17a;" horiz-adv-x="977" 
d="M92 0zM92 100l576 711h-555v117h740v-100l-576 -708h608v-120h-793v100zM300 1226l374 120v-129l-374 -110v119z" />
    <glyph glyph-name="zcaron" unicode="&#x17e;" horiz-adv-x="977" 
d="M92 0zM92 100l576 711h-555v117h740v-100l-576 -708h608v-120h-793v100zM209 1239v115l281 -133l280 133v-115l-280 -146z" />
    <glyph glyph-name="zdotaccent" unicode="&#x17c;" horiz-adv-x="977" 
d="M92 0zM92 100l576 711h-555v117h740v-100l-576 -708h608v-120h-793v100zM421.5 1147.5q-25.5 24.5 -25.5 61.5q0 38 25.5 63t65.5 25q41 0 65.5 -24.5t24.5 -63.5q0 -37 -25 -61.5t-65 -24.5t-65.5 24.5z" />
    <glyph glyph-name="ordfeminine" unicode="&#xaa;" horiz-adv-x="867" 
d="M726 1434v-600h-107v56q-85 -71 -190 -71q-85 0 -153.5 41t-107.5 113t-39 161q0 90 39 162t107.5 113t153.5 41q105 0 190 -71v55h107zM619 985v299q-78 68 -174 68q-59 0 -105.5 -26.5t-72.5 -76t-26 -114.5t26 -114.5t72.5 -76.5t105.5 -27q96 0 174 68z" />
    <glyph glyph-name="ordmasculine" unicode="&#xba;" horiz-adv-x="886" 
d="M281.5 865.5q-71.5 40.5 -112 112.5t-40.5 162q0 89 41 160.5t112.5 112.5t160.5 41q90 0 161.5 -40.5t112 -111.5t40.5 -160q0 -90 -41 -162.5t-112.5 -113.5t-160.5 -41q-90 0 -161.5 40.5zM548.5 949.5q46.5 27.5 72.5 77t26 113.5q0 63 -26 112t-72.5 76.5
t-105.5 27.5t-105.5 -27.5t-72.5 -76.5t-26 -112q0 -64 26 -113.5t72.5 -77t105.5 -27.5t105.5 27.5z" />
    <glyph glyph-name="afii10017" unicode="&#x410;" horiz-adv-x="1481" 
d="M70 0zM1052 499h-624l-208 -499h-150l606 1434h148l587 -1434h-159zM1002 624l-257 638l-265 -638h522z" />
    <glyph glyph-name="afii10018" unicode="&#x411;" horiz-adv-x="1235" 
d="M917 748.5q101 -50.5 155.5 -140t54.5 -204.5q0 -122 -58.5 -213.5t-160.5 -141t-229 -49.5h-484v1434h833v-132h-684v-503h336q136 0 237 -50.5zM833.5 156q69.5 35 107 98t37.5 145q0 128 -78.5 202.5t-230.5 74.5h-325v-555h327q93 0 162.5 35z" />
    <glyph glyph-name="afii10019" unicode="&#x412;" horiz-adv-x="1273" 
d="M195 0zM1066.5 622.5q79.5 -91.5 79.5 -228.5q0 -113 -55 -202.5t-158 -140.5t-241 -51h-497v1434h442q131 0 227 -45.5t147 -127.5t51 -191q0 -112 -55.5 -194.5t-152.5 -127.5q133 -34 212.5 -125.5zM345 1311v-519h283q88 0 153.5 34t101 95t35.5 139q0 121 -73 186
t-220 65h-280zM915.5 197q80.5 73 80.5 201q0 82 -38.5 145t-109.5 97.5t-164 34.5h-339v-551h338q152 0 232.5 73z" />
    <glyph glyph-name="afii10020" unicode="&#x413;" horiz-adv-x="1147" 
d="M195 1434h852v-133h-703v-1301h-149v1434z" />
    <glyph glyph-name="afii10052" unicode="&#x403;" horiz-adv-x="1147" 
d="M195 0zM195 1434h852v-133h-703v-1301h-149v1434zM455 1658l374 120v-129l-374 -110v119z" />
    <glyph glyph-name="afii10050" unicode="&#x490;" horiz-adv-x="1151" 
d="M195 1434h715v331h130l12 -462h-708v-1303h-149v1434z" />
    <glyph glyph-name="afii10021" unicode="&#x414;" horiz-adv-x="1659" 
d="M1571 129l-11 -461h-131v332h-1209v-332h-130l-11 461h70q93 0 148 58t62 183l59 1064h960v-1305h193zM1228 129v1176h-670l-51 -934q-9 -159 -87 -242h808z" />
    <glyph glyph-name="afii10022" unicode="&#x415;" horiz-adv-x="1216" 
d="M1088 132v-132h-893v1434h873v-132h-723v-505h617v-127h-617v-538h743z" />
    <glyph glyph-name="afii10023" unicode="&#x401;" horiz-adv-x="1216" 
d="M195 0zM1088 132v-132h-893v1434h873v-132h-723v-505h617v-127h-617v-538h743zM421.5 1580.5q-24.5 24.5 -24.5 61.5q0 38 24.5 62.5t63.5 24.5t63.5 -24.5t24.5 -62.5q0 -37 -24.5 -61.5t-63.5 -24.5t-63.5 24.5zM727.5 1580.5q-24.5 24.5 -24.5 61.5q0 38 24 62.5
t63 24.5t63.5 -24.5t24.5 -62.5q0 -37 -24.5 -61.5t-62.5 -24.5q-39 0 -63.5 24.5z" />
    <glyph glyph-name="afii10024" unicode="&#x416;" horiz-adv-x="1897" 
d="M1642 0l-618 669v-669h-151v671l-618 -671h-185l675 733l-659 701h180l607 -661v661h151v-659l606 659h181l-659 -701l675 -733h-185z" />
    <glyph glyph-name="afii10025" unicode="&#x417;" horiz-adv-x="1251" 
d="M1048.5 618q75.5 -90 75.5 -224q0 -127 -67.5 -221t-183.5 -144t-260 -50q-145 0 -251 41.5t-168 101t-86 119.5l101 76q20 -43 66.5 -91t130.5 -84t203 -36q105 0 187.5 32.5t130 98t47.5 162.5q0 82 -37.5 144.5t-107 97t-162.5 34.5h-342v116h303q89 0 155 34t102 95
t36 140q0 80 -34.5 142t-103 97.5t-165.5 35.5q-162 0 -249 -67.5t-123 -146.5l-100 74q25 61 82 120t156.5 100t239.5 41q135 0 234.5 -50t152.5 -137t53 -196q0 -115 -59 -200t-160 -128q128 -37 203.5 -127z" />
    <glyph glyph-name="afii10026" unicode="&#x418;" horiz-adv-x="1560" 
d="M1365 0h-140v1210l-888 -1210h-142v1434h140v-1207l886 1207h144v-1434z" />
    <glyph glyph-name="afii10027" unicode="&#x419;" horiz-adv-x="1560" 
d="M195 0zM1365 0h-140v1210l-888 -1210h-142v1434h140v-1207l886 1207h144v-1434zM638 1574.5q-66 29.5 -103.5 64t-37.5 39.5v122q0 -5 40 -43.5t106.5 -71t152.5 -32.5t152 32.5t106 71t40 43.5v-122q0 -5 -38.5 -39.5t-105 -64t-157.5 -29.5q-89 0 -155 29.5z" />
    <glyph glyph-name="afii10028" unicode="&#x41a;" horiz-adv-x="1262" 
d="M1004 0l-661 674v-674h-148v1434h148v-664l649 664h183l-698 -701l715 -733h-188z" />
    <glyph glyph-name="afii10061" unicode="&#x40c;" horiz-adv-x="1262" 
d="M195 0zM1004 0l-661 674v-674h-148v1434h148v-664l649 664h183l-698 -701l715 -733h-188zM436 1658l374 120v-129l-374 -110v119z" />
    <glyph glyph-name="afii10029" unicode="&#x41b;" horiz-adv-x="1515" 
d="M91 123q93 0 148.5 59.5t61.5 185.5l59 1066h961v-1434h-151v1305h-669l-51 -944q-9 -180 -101 -270.5t-241 -90.5h-17v123z" />
    <glyph glyph-name="afii10030" unicode="&#x41c;" horiz-adv-x="1720" 
d="M195 0zM1526 0h-142v1267l-479 -882h-113l-460 882v-1267h-137v1434h195l464 -888l478 888h194v-1434z" />
    <glyph glyph-name="afii10031" unicode="&#x41d;" horiz-adv-x="1519" 
d="M195 0zM1324 1434v-1434h-150v671h-829v-671h-150v1434h150v-632h829v632h150z" />
    <glyph glyph-name="afii10032" unicode="&#x41e;" horiz-adv-x="1685" 
d="M127 0zM469.5 76.5q-162.5 96.5 -252.5 264.5t-90 375q0 211 92.5 379t255.5 263.5t367 95.5q209 0 372 -96t253.5 -264t90.5 -375q0 -211 -92.5 -379.5t-255.5 -264t-368 -95.5q-210 0 -372.5 96.5zM1132.5 192.5q128.5 76.5 200.5 213.5t72 312q0 174 -72.5 311
t-200.5 214t-290 77q-163 0 -291 -77t-199.5 -214t-71.5 -311q0 -175 71.5 -312t199.5 -213.5t291 -76.5q162 0 290.5 76.5z" />
    <glyph glyph-name="afii10033" unicode="&#x41f;" horiz-adv-x="1500" 
d="M195 1434h1111v-1434h-151v1311h-810v-1311h-150v1434z" />
    <glyph glyph-name="afii10034" unicode="&#x420;" horiz-adv-x="1235" 
d="M195 0zM917 1383.5q101 -50.5 155.5 -140.5t54.5 -206q0 -123 -58.5 -216t-160.5 -143.5t-229 -50.5h-334v-627h-150v1434h485q136 0 237 -50.5zM829 788q70 35 107.5 98t37.5 146q0 128 -79 200.5t-231 72.5h-319v-552h321q93 0 163 35z" />
    <glyph glyph-name="afii10035" unicode="&#x421;" horiz-adv-x="1326" 
d="M127 0zM467.5 76.5q-162.5 96.5 -251.5 265t-89 375.5q0 211 91.5 379t253.5 263t367 95q113 0 197.5 -21t133.5 -45.5t49 -28.5l-58 -122q0 3 -40.5 23t-110.5 37.5t-166 17.5q-164 0 -292.5 -76t-200 -211.5t-71.5 -308.5q0 -175 71.5 -311.5t200 -212.5t293.5 -76
q95 0 165.5 17.5t111 37.5t40.5 23l58 -121q0 -4 -49 -28.5t-133.5 -46t-197.5 -21.5q-210 0 -372.5 96.5z" />
    <glyph glyph-name="afii10036" unicode="&#x422;" horiz-adv-x="1262" 
d="M110 0zM554 1299h-444v135h1042v-135h-445v-1299h-153v1299z" />
    <glyph glyph-name="afii10037" unicode="&#x423;" horiz-adv-x="1193" 
d="M138 109q109 0 201.5 58t138.5 159l56 118l-464 990h162l384 -846l356 846h151l-491 -1127q-141 -329 -494 -329v131z" />
    <glyph glyph-name="afii10062" unicode="&#x40e;" horiz-adv-x="1193" 
d="M70 0zM138 109q109 0 201.5 58t138.5 159l56 118l-464 990h162l384 -846l356 846h151l-491 -1127q-141 -329 -494 -329v131zM453 1648.5q-66 29.5 -103.5 64t-37.5 39.5v122q0 -5 40 -43.5t106.5 -71t152.5 -32.5t152 32.5t106 71t40 43.5v-122q0 -5 -38.5 -39.5
t-105 -64t-157.5 -29.5q-89 0 -155 29.5z" />
    <glyph glyph-name="afii10038" unicode="&#x424;" horiz-adv-x="1723" 
d="M1523.5 430q-81.5 -124 -232.5 -196.5t-355 -79.5v-154h-150v154q-208 7 -359 81t-230 198t-79 281q0 159 81.5 283t232.5 197t354 80v160h150v-160q208 -7 359.5 -81t230.5 -198.5t79 -281.5q0 -159 -81.5 -283zM1214.5 339.5q116.5 54.5 177.5 150t61 223.5
q0 129 -61 225t-177.5 150.5t-278.5 61.5v-872q162 7 278.5 61.5zM332 489q61 -96 176.5 -150.5t277.5 -61.5v873q-162 -7 -277.5 -61.5t-176.5 -150t-61 -224.5t61 -225z" />
    <glyph glyph-name="afii10039" unicode="&#x425;" horiz-adv-x="1363" 
d="M88 0zM577 726l-471 708h177l400 -621l403 621h169l-471 -708l490 -726h-171l-426 640l-420 -640h-169z" />
    <glyph glyph-name="afii10041" unicode="&#x427;" horiz-adv-x="1294" 
d="M1100 1434v-1434h-150v692q-63 -66 -156 -115t-217 -49q-140 0 -237 56t-145 154t-48 226v470h151v-453q0 -98 36.5 -169.5t104.5 -110t162 -38.5q120 0 206.5 56.5t142.5 134.5v580h150z" />
    <glyph glyph-name="afii10040" unicode="&#x426;" horiz-adv-x="1588" 
d="M1500 129l-12 -461h-130v332h-1163v1434h150v-1305h810v1305h151v-1305h194z" />
    <glyph glyph-name="afii10042" unicode="&#x428;" horiz-adv-x="2125" 
d="M195 1434h151v-1305h642v1305h151v-1305h641v1305h151v-1434h-1736v1434z" />
    <glyph glyph-name="afii10043" unicode="&#x429;" horiz-adv-x="2213" 
d="M2125 129l-11 -461h-131v332h-1788v1434h151v-1305h642v1305h151v-1305h641v1305h151v-1305h194z" />
    <glyph glyph-name="afii10145" unicode="&#x40f;" horiz-adv-x="1500" 
d="M1306 0h-507l-8 -332h-126l-7 332h-463v1434h150v-1305h810v1305h151v-1434z" />
    <glyph glyph-name="afii10049" unicode="&#x42f;" horiz-adv-x="1246" 
d="M1069 0h-149v634h-259l-406 -634h-164l419 645q-110 13 -195 63t-133 133t-48 191q0 117 54.5 208t155.5 142.5t236 51.5h489v-1434zM920 754v559l-326 -1q-153 0 -232.5 -74.5t-79.5 -204.5q0 -82 38.5 -145.5t109 -98.5t164.5 -35h326z" />
    <glyph glyph-name="afii10046" unicode="&#x42c;" horiz-adv-x="1235" 
d="M917 752.5q101 -50.5 155.5 -140.5t54.5 -206q0 -122 -58.5 -214.5t-160.5 -142t-229 -49.5h-484v1434h149v-631h336q136 0 237 -50.5zM833.5 158q69.5 35 107 98t37.5 145q0 129 -78.5 203.5t-230.5 74.5h-325v-556h327q93 0 162.5 35z" />
    <glyph glyph-name="afii10044" unicode="&#x42a;" horiz-adv-x="1405" 
d="M1116 752.5q101 -50.5 155.5 -140.5t54.5 -206q0 -122 -58.5 -214.5t-160.5 -142t-229 -49.5h-484v1301h-294v133h443v-631h336q136 0 237 -50.5zM1032.5 158q69.5 35 107 98t37.5 145q0 129 -78.5 203.5t-230.5 74.5h-325v-556h327q93 0 162.5 35z" />
    <glyph glyph-name="afii10045" unicode="&#x42b;" horiz-adv-x="1775" 
d="M195 0zM917 752.5q101 -50.5 155.5 -140.5t54.5 -206q0 -122 -58.5 -214.5t-160.5 -142t-229 -49.5h-484v1434h149v-631h336q136 0 237 -50.5zM833.5 158q69.5 35 107 98t37.5 145q0 129 -78.5 203.5t-230.5 74.5h-325v-556h327q93 0 162.5 35zM1430 1434h150v-1434h-150
v1434z" />
    <glyph glyph-name="afii10058" unicode="&#x409;" horiz-adv-x="2174" 
d="M1856 752.5q101 -50.5 155 -140.5t54 -206q0 -122 -58.5 -214.5t-160 -142t-229.5 -49.5h-485v1305h-631l-51 -944q-9 -180 -101 -270.5t-241 -90.5h-17v123q93 0 148.5 59.5t61.5 185.5l59 1066h921v-631h338q136 0 237 -50.5zM1771.5 158q69.5 35 107.5 98t38 145
q0 129 -79 203.5t-231 74.5h-326v-556h328q93 0 162.5 35z" />
    <glyph glyph-name="afii10059" unicode="&#x40a;" horiz-adv-x="2216" 
d="M1897 752.5q101 -50.5 155.5 -140.5t54.5 -206q0 -122 -58.5 -214.5t-160.5 -142t-229 -49.5h-485v669h-829v-669h-150v1434h150v-634h829v634h150v-631h337q135 0 236 -50.5zM1813 158q70 35 107.5 98t37.5 145q0 129 -79 203.5t-231 74.5h-324v-556h326q93 0 163 35z
" />
    <glyph glyph-name="afii10054" unicode="&#x405;" horiz-adv-x="1165" 
d="M117 0zM341 16.5q-104 36.5 -164 79t-60 48.5l66 114q0 -6 50.5 -43.5t139 -69.5t207.5 -32q145 0 229.5 70.5t84.5 203.5q0 79 -37.5 130.5t-103 82t-163.5 53.5l-59 14q-110 26 -190.5 67t-131 117.5t-50.5 197.5q0 119 55.5 211t157.5 143t237 51q128 0 223 -31.5
t150 -68t55 -41.5l-59 -111q0 4 -47 35.5t-128 58.5t-189 27q-147 0 -224.5 -71t-77.5 -199q0 -78 36 -129.5t98.5 -81.5t154.5 -51l60 -14q114 -27 197.5 -68.5t136.5 -119t53 -198.5q0 -122 -56 -215t-160.5 -144.5t-245.5 -51.5t-245 36.5z" />
    <glyph glyph-name="afii10053" unicode="&#x404;" horiz-adv-x="1326" 
d="M1010 135.5q70 17.5 110.5 37.5t40.5 23l58 -121q0 -4 -49 -28.5t-133.5 -45.5t-197.5 -21q-209 0 -371 94.5t-251.5 260.5t-89.5 374q0 211 91 381t253.5 267t368.5 97q113 0 197.5 -21.5t133.5 -46t49 -28.5l-58 -122q0 3 -40.5 23t-111 37.5t-165.5 17.5
q-150 0 -271 -65t-197 -181.5t-94 -267.5h700v-127h-704q8 -165 81.5 -290.5t199 -195t284.5 -69.5q96 0 166 17.5z" />
    <glyph glyph-name="afii10047" unicode="&#x42d;" horiz-adv-x="1326" 
d="M859 1359q162 -95 251 -261t89 -373q0 -211 -91.5 -381t-254 -267t-366.5 -97q-113 0 -197.5 21t-133.5 45.5t-49 28.5l58 121q0 -3 40.5 -23t110.5 -37.5t166 -17.5q155 0 279.5 70.5t199 195.5t85.5 285h-703v127h701q-15 155 -90 272t-197.5 181.5t-275.5 64.5
q-95 0 -165.5 -17.5t-111 -37.5t-40.5 -23l-58 122q0 4 49 28.5t133.5 46t197.5 21.5q211 0 373 -95z" />
    <glyph glyph-name="afii10055" unicode="&#x406;" horiz-adv-x="540" 
d="M195 0zM195 1434h150v-1434h-150v1434z" />
    <glyph glyph-name="afii10056" unicode="&#x407;" horiz-adv-x="540" 
d="M29 0zM195 1434h150v-1434h-150v1434zM53.5 1580.5q-24.5 24.5 -24.5 61.5q0 38 24.5 62.5t63.5 24.5t63.5 -24.5t24.5 -62.5q0 -37 -24.5 -61.5t-63.5 -24.5t-63.5 24.5zM359.5 1580.5q-24.5 24.5 -24.5 61.5q0 38 24 62.5t63 24.5t63.5 -24.5t24.5 -62.5
q0 -37 -24.5 -61.5t-62.5 -24.5q-39 0 -63.5 24.5z" />
    <glyph glyph-name="afii10057" unicode="&#x408;" horiz-adv-x="671" 
d="M73 0zM99.5 -19q-20.5 3 -26.5 4l13 128q4 -1 17 -2.5t27 -1.5q93 0 144.5 58t51.5 183v1084h150v-1091q0 -182 -91 -273.5t-244 -91.5q-21 0 -41.5 3z" />
    <glyph glyph-name="afii10060" unicode="&#x40b;" horiz-adv-x="1656" 
d="M1318 848.5q96 -55.5 143.5 -154t47.5 -226.5v-466h-151l2 449q0 98 -37 170t-105.5 110.5t-162.5 38.5q-122 0 -208 -56.5t-140 -134.5v-579h-153v1299h-444v135h1042v-135h-445v-559q62 66 155.5 115t219.5 49q140 0 236 -55.5z" />
    <glyph glyph-name="afii10048" unicode="&#x42e;" horiz-adv-x="1963" 
d="M1596 1365q118 -89 178.5 -254.5t60.5 -393.5q0 -232 -62 -397.5t-181 -252.5t-286 -87q-164 0 -280.5 83t-178.5 237t-68 368h-436v-668h-148v1434h148v-635h437q11 207 76.5 354t180 224t271.5 77q170 0 288 -89zM1514.5 178.5q85.5 72.5 129 209.5t43.5 329
q0 191 -43.5 327.5t-128.5 209t-208 72.5q-124 0 -209.5 -72.5t-128.5 -209t-43 -327.5q0 -291 97 -451t283 -160q123 0 208.5 72.5z" />
    <glyph glyph-name="afii10051" unicode="&#x402;" horiz-adv-x="1639" 
d="M1328.5 848q99.5 -56 150.5 -154.5t51 -225.5q0 -141 -60.5 -251t-168.5 -172t-244 -62q-72 0 -125.5 14t-84 30t-30.5 18l42 117q0 -2 26 -15t68.5 -24t96.5 -11q98 0 172.5 44t115.5 123.5t41 183.5q0 94 -39 164.5t-110 108.5t-166 38q-127 0 -215 -59.5t-142 -139.5
v-575h-153v1299h-444v135h1042v-135h-445v-566q60 67 155 119t226 52q141 0 240.5 -56z" />
    <glyph glyph-name="afii10146" unicode="&#x462;" horiz-adv-x="1336" 
d="M1046 752.5q101 -50.5 155.5 -140.5t54.5 -206q0 -122 -58.5 -214.5t-160.5 -142t-229 -49.5h-484v1085h-226v122h226v227h149v-227h389v-122h-389v-282h336q136 0 237 -50.5zM962.5 158q69.5 35 107 98t37.5 145q0 129 -78.5 203.5t-230.5 74.5h-325v-556h327
q93 0 162.5 35z" />
    <glyph glyph-name="afii10147" unicode="&#x472;" horiz-adv-x="1685" 
d="M1214 1358q163 -96 253.5 -264t90.5 -375q0 -211 -92.5 -379.5t-255.5 -264t-368 -95.5q-210 0 -372.5 96.5t-252.5 264.5t-90 375q0 211 92.5 379t255.5 263.5t367 95.5q209 0 372 -96zM568.5 1253q-121.5 -67 -196 -187t-89.5 -275q116 67 270 67q97 0 165 -16t156 -49
q79 -30 139 -45t142 -15q80 0 141.5 19.5t104.5 47.5q-17 153 -92.5 271t-196.5 183.5t-270 65.5q-152 0 -273.5 -67zM1122.5 187q124.5 71 198.5 198t83 291q-105 -65 -260 -65q-98 0 -165.5 16.5t-153.5 48.5q-79 30 -139 45t-143 15q-82 0 -147.5 -22t-113.5 -53
q12 -160 86 -284t197 -192.5t277 -68.5q156 0 280.5 71z" />
    <glyph glyph-name="afii10148" unicode="&#x474;" horiz-adv-x="1440" 
d="M70 1434h162l483 -1245l437 1167q26 78 107 78h128v-132h-104l-498 -1302h-148z" />
    <glyph glyph-name="uni0492" unicode="&#x492;" horiz-adv-x="1233" 
d="M458 1301v-500h394v-126h-394v-675h-149v675h-211v126h211v633h852v-133h-703z" />
    <glyph glyph-name="uni0496" unicode="&#x496;" horiz-adv-x="1976" 
d="M1934 129l-12 -461h-129v332h-151l-618 669v-669h-151v671l-618 -671h-185l675 733l-659 701h180l607 -661v661h151v-659l606 659h181l-659 -701l556 -604h226z" />
    <glyph glyph-name="uni049A" unicode="&#x49a;" horiz-adv-x="1310" 
d="M1268 129l-12 -461h-129v332h-123l-661 674v-674h-148v1434h148v-664l649 664h183l-698 -701l589 -604h202z" />
    <glyph glyph-name="uni04A2" unicode="&#x4a2;" horiz-adv-x="1581" 
d="M1493 129l-11 -461h-129v332h-179v671h-829v-671h-150v1434h150v-632h829v632h150v-1305h169z" />
    <glyph glyph-name="uni04AE" unicode="&#x4ae;" horiz-adv-x="1401" 
d="M70 0zM626 617l-556 817h170l465 -694l459 694h168l-556 -815v-619h-150v617z" />
    <glyph glyph-name="uni04B0" unicode="&#x4b0;" horiz-adv-x="1401" 
d="M776 506h342v-126h-342v-380h-150v380h-335v126h335v111l-556 817h170l465 -694l459 694h168l-556 -815v-113z" />
    <glyph glyph-name="uni04B2" unicode="&#x4b2;" horiz-adv-x="1435" 
d="M1393 129l-11 -461h-129v332h-150l-426 640l-420 -640h-169l489 726l-471 708h177l400 -621l403 621h169l-471 -708l403 -597h206z" />
    <glyph glyph-name="uni04B6" unicode="&#x4b6;" horiz-adv-x="1386" 
d="M1298 129l-12 -461h-128v332h-208v692q-63 -66 -156 -115t-217 -49q-140 0 -237 56t-145 154t-48 226v470h151v-453q0 -98 36.5 -169.5t104.5 -110t162 -38.5q120 0 206.5 56.5t142.5 134.5v580h150v-1305h198z" />
    <glyph glyph-name="uni04BA" unicode="&#x4ba;" horiz-adv-x="1194" 
d="M886.5 898.5q88.5 -49.5 134.5 -136.5t46 -200v-562h-149v544q0 84 -33.5 146.5t-94.5 95.5t-141 33q-108 0 -183 -49.5t-123 -117.5v-652h-148v1434h148v-631q52 57 135 101t196 44q124 0 212.5 -49.5z" />
    <glyph glyph-name="uni04C0" unicode="&#x4c0;" horiz-adv-x="540" 
d="M195 0zM195 1434h150v-1434h-150v1434z" />
    <glyph glyph-name="uni04D8" unicode="&#x4d8;" horiz-adv-x="1516" 
d="M1058.5 1359q155.5 -95 243 -261.5t87.5 -372.5q0 -212 -79.5 -382t-224.5 -266.5t-334 -96.5q-203 0 -345.5 89t-215.5 254t-73 393v78l1118 -1q-15 155 -88 273t-190 182.5t-258 64.5q-108 0 -185 -20t-119.5 -43.5t-42.5 -27.5l-58 123q0 4 51.5 32.5t143 52.5
t216.5 24q198 0 353.5 -95zM999 184.5q107 70.5 168 196.5t70 289h-967q2 -179 60 -304t165.5 -188.5t255.5 -63.5q141 0 248 70.5z" />
    <glyph glyph-name="uni04E2" unicode="&#x4e2;" horiz-adv-x="1560" 
d="M195 0zM1365 0h-140v1210l-888 -1210h-142v1434h140v-1207l886 1207h144v-1434zM546 1688h498v-113h-498v113z" />
    <glyph glyph-name="uni04E8" unicode="&#x4e8;" horiz-adv-x="1685" 
d="M1214 1358q163 -96 253.5 -264t90.5 -375q0 -211 -92.5 -379.5t-255.5 -264t-368 -95.5q-210 0 -372.5 96.5t-252.5 264.5t-90 375q0 211 92.5 379t255.5 263.5t367 95.5q209 0 372 -96zM568.5 1253q-121.5 -67 -196 -187t-89.5 -275h1119q-15 155 -90.5 275t-197.5 187
t-272 67q-152 0 -273.5 -67zM1119.5 185q123.5 69 198 193.5t85.5 285.5h-1121q11 -161 85 -285.5t197 -193.5t278 -69q154 0 277.5 69z" />
    <glyph glyph-name="uni04EE" unicode="&#x4ee;" horiz-adv-x="1193" 
d="M70 0zM138 109q109 0 201.5 58t138.5 159l56 118l-464 990h162l384 -846l356 846h151l-491 -1127q-141 -329 -494 -329v131zM361 1762h498v-113h-498v113z" />
    <glyph glyph-name="afii10065" unicode="&#x430;" horiz-adv-x="1181" 
d="M109 0zM1034 928v-928h-137v105q-55 -52 -134 -89.5t-181 -37.5q-138 0 -245.5 64t-167.5 175t-60 246q0 136 60.5 247t168.5 174.5t244 63.5q90 0 172.5 -35t142.5 -92v107h137zM773.5 141.5q73.5 42.5 123.5 104.5v435q-51 62 -124 104.5t-174 42.5q-100 0 -178.5 -47
t-122.5 -130t-44 -187q0 -105 44 -188t122.5 -130t178.5 -47q101 0 174.5 42.5z" />
    <glyph glyph-name="afii10066" unicode="&#x431;" horiz-adv-x="1190" 
d="M850 885q110 -63 171 -173t61 -246q0 -139 -63 -250.5t-174 -174.5t-250 -63q-143 0 -253.5 63t-171.5 174.5t-61 253.5q0 316 81.5 533t225.5 324.5t331 107.5h111q40 0 72 7.5t51.5 16.5t19.5 10v-120q0 -1 -20 -10.5t-52.5 -17.5t-72.5 -7l-97 2q-180 3 -305 -121.5
t-176 -367.5q62 59 144 90.5t177 31.5q141 0 251 -63zM773.5 143.5q78.5 46.5 122 130t43.5 189.5t-44 189t-122 129.5t-178 46.5q-101 0 -179 -46.5t-121.5 -129.5t-43.5 -189q0 -107 43.5 -190t121.5 -129.5t179 -46.5q100 0 178.5 46.5z" />
    <glyph glyph-name="afii10067" unicode="&#x432;" horiz-adv-x="1036" 
d="M887 397.5q41 -55.5 41 -132.5q0 -80 -44 -140t-123 -92.5t-183 -32.5h-431v928h441q94 0 163 -29.5t106 -84.5t37 -130q0 -67 -32 -119t-92 -84q76 -28 117 -83.5zM284 825v-300h292q84 0 133 39.5t49 109.5q0 75 -46 113t-138 38h-290zM730.5 146.5
q56.5 42.5 56.5 123.5q0 73 -50.5 113.5t-135.5 40.5h-317v-320h285q105 0 161.5 42.5z" />
    <glyph glyph-name="afii10068" unicode="&#x433;" horiz-adv-x="822" 
d="M284 809v-809h-137v928h604v-119h-467z" />
    <glyph glyph-name="afii10100" unicode="&#x453;" horiz-adv-x="822" 
d="M147 0zM284 809v-809h-137v928h604v-119h-467zM278 1226l374 120v-129l-374 -110v119z" />
    <glyph glyph-name="afii10098" unicode="&#x491;" horiz-adv-x="822" 
d="M147 928h465v332h128l11 -450h-467v-810h-137v928z" />
    <glyph glyph-name="afii10069" unicode="&#x434;" horiz-adv-x="1350" 
d="M1280 120l-11 -452h-127v332h-943v-332h-127l-12 452h129q59 0 95.5 35.5t40.5 106.5l36 666h705v-808h214zM930 120v695h-435l-32 -551q-4 -85 -44 -144h511z" />
    <glyph glyph-name="afii10070" unicode="&#x435;" horiz-adv-x="1140" 
d="M1041 412h-788q10 -96 56 -165.5t124 -107t181 -37.5q98 0 167 27t107 58.5t38 36.5l72 -84q0 -7 -46.5 -48.5t-133 -77.5t-208.5 -36q-149 0 -263 62t-176 172.5t-62 251.5q0 138 60 248t166.5 173t242.5 63q140 0 245 -63t161.5 -173.5t56.5 -248.5v-51zM899 524
q-9 92 -50 162.5t-110.5 110t-161.5 39.5q-86 0 -156 -39t-113.5 -109.5t-54.5 -163.5h646z" />
    <glyph glyph-name="afii10071" unicode="&#x451;" horiz-adv-x="1140" 
d="M109 0zM1041 412h-788q10 -96 56 -165.5t124 -107t181 -37.5q98 0 167 27t107 58.5t38 36.5l72 -84q0 -7 -46.5 -48.5t-133 -77.5t-208.5 -36q-149 0 -263 62t-176 172.5t-62 251.5q0 138 60 248t166.5 173t242.5 63q140 0 245 -63t161.5 -173.5t56.5 -248.5v-51z
M899 524q-9 92 -50 162.5t-110.5 110t-161.5 39.5q-86 0 -156 -39t-113.5 -109.5t-54.5 -163.5h646zM365.5 1148.5q-24.5 24.5 -24.5 61.5q0 38 24.5 62.5t63.5 24.5t63.5 -24.5t24.5 -62.5q0 -37 -24.5 -61.5t-63.5 -24.5t-63.5 24.5zM671.5 1148.5q-24.5 24.5 -24.5 61.5
q0 38 24 62.5t63 24.5t63.5 -24.5t24.5 -62.5q0 -37 -24.5 -61.5t-62.5 -24.5q-39 0 -63.5 24.5z" />
    <glyph glyph-name="afii10072" unicode="&#x436;" horiz-adv-x="1508" 
d="M1253 0l-431 421v-421h-136v421l-430 -421h-187l491 470l-482 458h178l430 -423v423h136v-423l431 423h178l-483 -458l491 -470h-186z" />
    <glyph glyph-name="afii10073" unicode="&#x437;" horiz-adv-x="921" 
d="M769 398.5q43 -57.5 43 -136.5q0 -80 -46 -144t-128.5 -100.5t-188.5 -36.5q-131 0 -225.5 50.5t-125.5 133.5l92 62q25 -64 91.5 -101.5t160.5 -37.5q111 0 170.5 46.5t59.5 128.5q0 74 -51 118t-140 44h-236v98h209q87 0 138.5 44t51.5 116q0 76 -50.5 118.5
t-146.5 42.5q-109 0 -161 -46t-70 -95l-92 64q28 81 117.5 131t214.5 50q97 0 169.5 -32t112 -90t39.5 -133q0 -67 -34 -121.5t-95 -87.5q78 -28 121 -85.5z" />
    <glyph glyph-name="afii10074" unicode="&#x438;" 
d="M995 0h-138v749l-564 -749h-146v928h138v-750l564 750h146v-928z" />
    <glyph glyph-name="afii10075" unicode="&#x439;" 
d="M147 0zM995 0h-138v749l-564 -749h-146v928h138v-750l564 750h146v-928zM420 1142.5q-66 29.5 -103.5 64t-37.5 39.5v122q0 -5 40 -43.5t106.5 -71t152.5 -32.5t152 32.5t106 71t40 43.5v-122q0 -5 -38.5 -39.5t-105 -64t-157.5 -29.5q-89 0 -155 29.5z" />
    <glyph glyph-name="afii10076" unicode="&#x43a;" horiz-adv-x="1014" 
d="M752 0l-468 425v-425h-137v928h137v-427l468 427h184l-519 -458l527 -470h-192z" />
    <glyph glyph-name="afii10109" unicode="&#x45c;" horiz-adv-x="1014" 
d="M147 0zM752 0l-468 425v-425h-137v928h137v-427l468 427h184l-519 -458l527 -470h-192zM319 1226l374 120v-129l-374 -110v119z" />
    <glyph glyph-name="afii10077" unicode="&#x43b;" horiz-adv-x="1116" 
d="M91 109q59 0 95.5 36.5t40.5 107.5l37 675h705v-928h-137v815h-437l-31 -573q-7 -117 -70.5 -179.5t-160.5 -62.5h-42v109z" />
    <glyph glyph-name="afii10078" unicode="&#x43c;" horiz-adv-x="1295" 
d="M1147 0h-132v787l-296 -787h-157l-282 788v-788h-133v928h214l286 -799l294 799h206v-928z" />
    <glyph glyph-name="afii10079" unicode="&#x43d;" horiz-adv-x="1131" 
d="M983 928v-928h-137v418h-562v-418h-137v928h137v-392h562v392h137z" />
    <glyph glyph-name="afii10080" unicode="&#x43e;" horiz-adv-x="1190" 
d="M109 0zM342 42q-111 64 -172 174.5t-61 246.5q0 139 63 249.5t174 173t249 62.5q142 0 253 -63t172.5 -173t61.5 -246q0 -139 -63 -250.5t-174 -174.5t-250 -63q-142 0 -253 64zM773.5 143.5q78.5 46.5 122 130t43.5 189.5q0 107 -44 190t-122 129.5t-178 46.5
q-101 0 -179 -46.5t-121.5 -129.5t-43.5 -190t43.5 -190t121.5 -129.5t179 -46.5q100 0 178.5 46.5z" />
    <glyph glyph-name="afii10081" unicode="&#x43f;" horiz-adv-x="1131" 
d="M983 0h-137v810h-562v-810h-137v928h836v-928z" />
    <glyph glyph-name="afii10082" unicode="&#x440;" horiz-adv-x="1181" 
d="M147 0zM845 884q108 -64 168 -174.5t60 -245.5q0 -138 -61.5 -249t-169.5 -174t-243 -63q-101 0 -179 36.5t-134 88.5v-511h-139v1336h139v-105q56 52 134 88.5t179 36.5q138 0 246 -64zM760.5 145q78.5 46 122.5 129t44 190q0 106 -44 188.5t-122.5 129t-178.5 46.5
t-173 -42t-123 -103v-440q50 -61 123 -102.5t173 -41.5t178.5 46z" />
    <glyph glyph-name="afii10083" unicode="&#x441;" horiz-adv-x="1001" 
d="M109 0zM342 40.5q-110 63.5 -171.5 174.5t-61.5 249q0 137 61.5 247.5t171.5 173.5t249 63q98 0 169.5 -21t112 -45.5t40.5 -28.5l-64 -108q0 3 -31.5 23t-86.5 37t-130 17q-101 0 -179.5 -45t-122 -126.5t-43.5 -186.5q0 -106 43.5 -187.5t121.5 -126t180 -44.5
q75 0 130 16.5t86.5 36t31.5 22.5l64 -107q0 -4 -40.5 -29t-112 -46.5t-169.5 -21.5q-139 0 -249 63.5z" />
    <glyph glyph-name="afii10084" unicode="&#x442;" horiz-adv-x="920" 
d="M849 808h-321v-808h-137v808h-320v120h778v-120z" />
    <glyph glyph-name="afii10085" unicode="&#x443;" horiz-adv-x="1035" 
d="M67 -305q109 0 195 61.5t136 169.5l50 109l-387 893h152l315 -746l306 746h141l-430 -1015q-69 -168 -189.5 -255.5t-288.5 -87.5v125z" />
    <glyph glyph-name="afii10110" unicode="&#x45e;" horiz-adv-x="1035" 
d="M61 0zM67 -305q109 0 195 61.5t136 169.5l50 109l-387 893h152l315 -746l306 746h141l-430 -1015q-69 -168 -189.5 -255.5t-288.5 -87.5v125zM369 1142.5q-66 29.5 -103.5 64t-37.5 39.5v122q0 -5 40 -43.5t106.5 -71t152.5 -32.5t152 32.5t106 71t40 43.5v-122
q0 -5 -38.5 -39.5t-105 -64t-157.5 -29.5q-89 0 -155 29.5z" />
    <glyph glyph-name="afii10086" unicode="&#x444;" horiz-adv-x="1303" 
d="M1133 217q-61 -109 -169 -172.5t-243 -66.5v-388h-138v388q-139 3 -247 67.5t-167.5 174t-59.5 243.5q0 137 61 246.5t169.5 172.5t243.5 66v486h138v-486q139 -3 246.5 -68t167 -174.5t59.5 -243.5q0 -136 -61 -245zM293 276q42 -82 117.5 -129t172.5 -50v731
q-97 -3 -172.5 -50t-117.5 -129t-42 -186q0 -105 42 -187zM893 148.5q75 47.5 116.5 129.5t41.5 185q0 104 -41.5 186t-116.5 129t-172 50v-730q97 3 172 50.5z" />
    <glyph glyph-name="afii10087" unicode="&#x445;" horiz-adv-x="975" 
d="M69 0zM393 463l-323 465h166l252 -380l255 380h160l-321 -464l324 -464h-162l-260 381l-255 -381h-160z" />
    <glyph glyph-name="afii10089" unicode="&#x447;" horiz-adv-x="1134" 
d="M987 928v-928h-137v381q-54 -58 -136 -101.5t-193 -43.5q-121 0 -207.5 49.5t-131 137t-44.5 200.5v305h138v-295q0 -128 71.5 -201.5t196.5 -73.5q108 0 183.5 50t122.5 118v402h137z" />
    <glyph glyph-name="afii10088" unicode="&#x446;" horiz-adv-x="1252" 
d="M1182 120l-11 -452h-128v332h-896v928h137v-808h562v808h137v-808h199z" />
    <glyph glyph-name="afii10090" unicode="&#x448;" horiz-adv-x="1727" 
d="M147 928h137v-808h510v808h136v-808h513v808h137v-928h-1433v928z" />
    <glyph glyph-name="afii10091" unicode="&#x449;" horiz-adv-x="1848" 
d="M1779 120l-12 -452h-127v332h-1493v928h137v-808h510v808h136v-808h513v808h137v-808h199z" />
    <glyph glyph-name="afii10193" unicode="&#x45f;" horiz-adv-x="1131" 
d="M983 0h-343l-9 -332h-121l-10 332h-353v928h137v-808h562v808h137v-928z" />
    <glyph glyph-name="afii10097" unicode="&#x44f;" horiz-adv-x="963" 
d="M816 0h-136v382h-179l-266 -382h-154l279 393q-109 20 -173.5 89t-64.5 170q0 81 39.5 144t110.5 97.5t164 34.5h380v-928zM680 492v325h-234q-88 0 -134.5 -42.5t-46.5 -122.5q0 -75 48.5 -117.5t132.5 -42.5h234z" />
    <glyph glyph-name="afii10094" unicode="&#x44c;" horiz-adv-x="954" 
d="M698 529q71 -35 109 -98.5t38 -147.5q0 -85 -41 -149.5t-112.5 -99t-160.5 -34.5h-384v928h137v-364h248q95 0 166 -35zM652 158q52 47 52 123q0 79 -48.5 125t-144.5 46h-227v-341h227q89 0 141 47z" />
    <glyph glyph-name="afii10092" unicode="&#x44a;" horiz-adv-x="1119" 
d="M864 529q71 -35 109 -98.5t38 -147.5q0 -85 -41 -149.5t-112.5 -99t-160.5 -34.5h-384v812h-242v116h379v-364h248q95 0 166 -35zM818 158q52 47 52 123q0 79 -48.5 125t-144.5 46h-227v-341h227q89 0 141 47z" />
    <glyph glyph-name="afii10093" unicode="&#x44b;" horiz-adv-x="1389" 
d="M147 0zM698 529q71 -35 109 -98.5t38 -147.5q0 -85 -41 -149.5t-112.5 -99t-160.5 -34.5h-384v928h137v-364h248q95 0 166 -35zM652 158q52 47 52 123q0 79 -48.5 125t-144.5 46h-227v-341h227q89 0 141 47zM1101 928h140v-928h-140v928z" />
    <glyph glyph-name="afii10106" unicode="&#x459;" horiz-adv-x="1638" 
d="M1382 529q71 -35 109 -98.5t38 -147.5q0 -85 -41 -149.5t-112.5 -99t-160.5 -34.5h-384v811h-434l-31 -569q-4 -78 -35.5 -132.5t-83 -82t-114.5 -27.5h-42v113q59 0 95.5 36.5t40.5 107.5l37 671h704v-364h248q95 0 166 -35zM1336 158q52 47 52 123q0 79 -48.5 125
t-144.5 46h-227v-341h227q89 0 141 47z" />
    <glyph glyph-name="afii10107" unicode="&#x45a;" horiz-adv-x="1625" 
d="M1368 529q71 -35 109 -98.5t38 -147.5q0 -85 -41 -149.5t-112.5 -99t-160.5 -34.5h-384v417h-533v-417h-137v928h137v-393h533v393h137v-364h248q95 0 166 -35zM1322 158q52 47 52 123q0 79 -48.5 125t-144.5 46h-227v-341h227q89 0 141 47z" />
    <glyph glyph-name="afii10102" unicode="&#x455;" horiz-adv-x="853" 
d="M98 0zM252.5 3q-73.5 23 -114 49.5t-40.5 30.5l59 101q0 -3 33 -25.5t91 -42t138 -19.5q85 0 137 40.5t52 115.5q0 44 -19.5 72.5t-58 47t-103.5 35.5l-41 10q-82 20 -138.5 49.5t-90 80.5t-33.5 130q0 77 39 138.5t110.5 96.5t164.5 35q90 0 158 -21t107.5 -45.5
t39.5 -27.5l-58 -102q0 3 -31 23t-84 37.5t-124 17.5q-83 0 -129.5 -38.5t-46.5 -109.5q0 -45 20.5 -73t58.5 -45.5t104 -35.5l39 -9q82 -20 138 -49.5t90 -81t34 -131.5q0 -81 -40 -143.5t-114.5 -98t-172.5 -35.5q-101 0 -174.5 23z" />
    <glyph glyph-name="afii10101" unicode="&#x454;" horiz-adv-x="1001" 
d="M731 110.5q55 16.5 87 36t32 22.5l63 -95q0 -4 -41 -29t-112.5 -46.5t-169.5 -21.5q-144 0 -253 63t-168.5 173.5t-59.5 249.5q0 138 59.5 248.5t169 173.5t253.5 63q98 0 169.5 -21t112 -45.5t40.5 -28.5l-63 -99q0 3 -31.5 23t-87 37.5t-130.5 17.5q-91 0 -164.5 -37.5
t-119.5 -105.5t-59 -157h514v-115h-517q9 -96 55 -169t121 -113.5t170 -40.5q75 0 130 16.5z" />
    <glyph glyph-name="afii10095" unicode="&#x44d;" horiz-adv-x="1001" 
d="M664.5 886.5q109.5 -61.5 169 -171.5t59.5 -252q0 -138 -60 -248.5t-169.5 -174t-252.5 -63.5q-98 0 -170 21.5t-112.5 46t-40.5 28.5l63 98q0 -3 32 -23t87 -37t130 -17q96 0 173 40t124.5 113t56.5 170h-520v115h517q-14 92 -61.5 159.5t-122.5 104t-167 36.5
q-74 0 -129.5 -17t-87.5 -36.5t-32 -22.5l-63 96q0 4 41 28.5t112.5 46t169.5 21.5q144 0 253.5 -61.5z" />
    <glyph glyph-name="afii10103" unicode="&#x456;" horiz-adv-x="435" 
d="M127 0zM152.5 1147.5q-25.5 24.5 -25.5 61.5q0 38 25 63t65 25q41 0 65.5 -24.5t24.5 -63.5q0 -37 -24.5 -61.5t-64.5 -24.5t-65.5 24.5zM147 928h140v-928h-140v928z" />
    <glyph glyph-name="afii10104" unicode="&#x457;" horiz-adv-x="435" 
d="M0 0zM147 928h140v-928h-140v928zM0.5 1148.5q-24.5 24.5 -24.5 61.5q0 38 24.5 62.5t63.5 24.5t63.5 -24.5t24.5 -62.5q0 -37 -24.5 -61.5t-63.5 -24.5t-63.5 24.5zM306.5 1148.5q-24.5 24.5 -24.5 61.5q0 38 24 62.5t63 24.5t63.5 -24.5t24.5 -62.5q0 -37 -24.5 -61.5
t-62.5 -24.5q-39 0 -63.5 24.5z" />
    <glyph glyph-name="afii10105" unicode="&#x458;" horiz-adv-x="436" 
d="M0 0zM153 1147.5q-25 24.5 -25 61.5q0 39 25 63.5t65 24.5q41 0 66 -24.5t25 -63.5q0 -37 -25 -61.5t-65 -24.5q-41 0 -66 24.5zM-59.5 -428.5q-15.5 1.5 -20.5 2.5l12 117q3 0 12 -1t22 -1q182 0 182 229v1010h140v-1011q0 -172 -85.5 -259.5t-230.5 -87.5
q-16 0 -31.5 1.5z" />
    <glyph glyph-name="afii10108" unicode="&#x45b;" horiz-adv-x="1133" 
d="M20 0zM819 898.5q86 -49.5 130.5 -136.5t44.5 -200v-562h-137v549q0 85 -32.5 147t-93 95.5t-142.5 33.5q-107 0 -182.5 -51t-122.5 -120v-654h-137v1120h-127v111h127v203h137v-203h564v-111h-564v-317q54 58 135 101.5t192 43.5q122 0 208 -49.5z" />
    <glyph glyph-name="afii10096" unicode="&#x44e;" horiz-adv-x="1641" 
d="M1298 885q111 -63 172.5 -173t61.5 -246q0 -139 -63 -250.5t-173.5 -174.5t-249.5 -63q-135 0 -241.5 57t-170 157.5t-73.5 225.5h-277v-418h-137v928h137v-392h280q16 120 82 214t170 146t230 52q141 0 252 -63zM1224.5 143.5q78.5 46.5 122 130t43.5 189.5t-44 189
t-122 129.5t-178 46.5q-101 0 -179 -46.5t-121.5 -129.5t-43.5 -189q0 -107 43.5 -190t121.5 -129.5t179 -46.5q100 0 178.5 46.5z" />
    <glyph glyph-name="afii10099" unicode="&#x452;" horiz-adv-x="1133" 
d="M819 898.5q86 -49.5 130.5 -136.5t44.5 -200v-647q0 -171 -85 -258t-229 -87q-16 0 -31.5 1.5t-20.5 2.5l14 116q3 0 12 -1t22 -1q181 0 181 229v634q0 129 -71.5 202.5t-196.5 73.5q-107 0 -182.5 -51t-122.5 -120v-656h-137v1121h-127v113h127v200h137v-200h563v-113
h-563v-318q54 58 135 101.5t192 43.5q122 0 208 -49.5z" />
    <glyph glyph-name="afii10194" unicode="&#x463;" horiz-adv-x="957" 
d="M702 529q71 -35 109 -98.5t38 -147.5q0 -85 -41 -149.5t-112.5 -99t-160.5 -34.5h-384v923h-127v114h127v397h137v-397h412v-114h-412v-359h248q95 0 166 -35zM656 158q52 47 52 123q0 79 -48.5 125t-144.5 46h-227v-341h227q89 0 141 47z" />
    <glyph glyph-name="afii10195" unicode="&#x473;" horiz-adv-x="1190" 
d="M848 885q111 -63 172.5 -173t61.5 -246q0 -139 -63 -250.5t-174 -174.5t-250 -63q-142 0 -253 64t-172 174.5t-61 246.5q0 139 63 249.5t174 173t249 62.5q142 0 253 -63zM433 792q-72 -37 -118 -104t-59 -155q67 47 156 47q63 0 108.5 -15t106.5 -44q48 -24 82.5 -36
t75.5 -12q86 0 150 53q-12 90 -58.5 159t-119 106.5t-162.5 37.5t-162 -37zM762 137q74 40 120 113t55 167q-64 -51 -156 -51q-63 0 -108.5 14.5t-106.5 44.5q-48 24 -83 36t-77 12q-83 0 -153 -55q9 -95 54.5 -168t120 -113t167.5 -40t167 40z" />
    <glyph glyph-name="afii10196" unicode="&#x475;" horiz-adv-x="1035" 
d="M59 928h151l307 -759l250 686q26 73 102 73h103v-118h-84l-311 -810h-130z" />
    <glyph glyph-name="uni0493" unicode="&#x493;" horiz-adv-x="906" 
d="M368 809v-296h270v-115h-270v-398h-137v398h-160v115h160v415h604v-119h-467z" />
    <glyph glyph-name="uni0497" unicode="&#x497;" horiz-adv-x="1538" 
d="M1500 118l-12 -450h-127v332h-108l-431 421v-421h-136v421l-430 -421h-187l491 470l-482 458h178l430 -423v423h136v-423l431 423h178l-483 -458l368 -352h184z" />
    <glyph glyph-name="uni049B" unicode="&#x49b;" horiz-adv-x="1044" 
d="M1009 118l-12 -450h-127v332h-118l-468 425v-425h-137v928h137v-427l468 427h184l-519 -458l395 -352h197z" />
    <glyph glyph-name="uni04A3" unicode="&#x4a3;" horiz-adv-x="1161" 
d="M1130 118l-12 -450h-127v332h-145v418h-562v-418h-137v928h137v-392h562v392h137v-810h147z" />
    <glyph glyph-name="uni04AF" unicode="&#x4af;" horiz-adv-x="1035" 
d="M445 17l-386 911h151l307 -756l316 756h142l-393 -904v-434h-137v427z" />
    <glyph glyph-name="uni04B1" unicode="&#x4b1;" horiz-adv-x="1035" 
d="M582 -80h218v-116h-218v-214h-137v214h-214v116h214v97l-386 911h151l307 -756l316 756h142l-393 -904v-104z" />
    <glyph glyph-name="uni04B3" unicode="&#x4b3;" horiz-adv-x="1005" 
d="M1016 118l-12 -450h-127v332h-133l-260 381l-255 -381h-160l324 463l-323 465h166l252 -380l255 380h160l-321 -464l242 -346h192z" />
    <glyph glyph-name="uni04B7" unicode="&#x4b7;" horiz-adv-x="1184" 
d="M1110 118l-12 -450h-127v332h-121v381q-54 -58 -136 -101.5t-193 -43.5q-121 0 -207.5 49.5t-131 137t-44.5 200.5v305h138v-295q0 -128 71.5 -201.5t196.5 -73.5q108 0 183.5 50t122.5 118v402h137v-810h123z" />
    <glyph glyph-name="uni04BB" unicode="&#x4bb;" horiz-adv-x="1133" 
d="M147 0zM819 898.5q86 -49.5 130.5 -136.5t44.5 -200v-562h-137v549q0 85 -32.5 147t-93 95.5t-142.5 33.5q-107 0 -182.5 -51t-122.5 -120v-654h-137v1434h137v-631q54 58 135 101.5t192 43.5q122 0 208 -49.5z" />
    <glyph glyph-name="uni04CF" unicode="&#x4cf;" horiz-adv-x="435" 
d="M147 0zM147 928h140v-928h-140v928z" />
    <glyph glyph-name="afii10846" unicode="&#x4d9;" horiz-adv-x="1140" 
d="M802 886q114 -62 176.5 -172.5t62.5 -251.5q0 -138 -60 -248t-167 -173t-243 -63q-140 0 -244.5 63t-161 173.5t-56.5 248.5v51h787q-10 97 -56 169t-124 111t-180 39q-98 0 -167.5 -27.5t-107.5 -59t-38 -36.5l-72 76q0 7 46.5 48.5t133 77.5t208.5 36q149 0 263 -62z
M730 130.5q70 39.5 113.5 111.5t52.5 166h-646q9 -93 50 -165t110.5 -112t161.5 -40q88 0 158 39.5z" />
    <glyph glyph-name="uni04E3" unicode="&#x4e3;" 
d="M147 0zM995 0h-138v749l-564 -749h-146v928h138v-750l564 750h146v-928zM328 1256h498v-113h-498v113z" />
    <glyph glyph-name="uni04E9" unicode="&#x4e9;" horiz-adv-x="1190" 
d="M848 885q111 -63 172.5 -173t61.5 -246q0 -139 -63 -250.5t-174 -174.5t-250 -63q-142 0 -253 64t-172 174.5t-61 246.5q0 139 63 249.5t174 173t249 62.5q142 0 253 -63zM431.5 791q-72.5 -38 -118.5 -106.5t-58 -158.5h680q-12 90 -58.5 159t-119 106.5t-162.5 37.5
q-91 0 -163.5 -38zM763.5 138q74.5 41 120 115t53.5 170h-684q8 -96 53 -170t120 -115t169 -41t168.5 41z" />
    <glyph glyph-name="uni04EF" unicode="&#x4ef;" horiz-adv-x="1035" 
d="M61 0zM67 -305q109 0 195 61.5t136 169.5l50 109l-387 893h152l315 -746l306 746h141l-430 -1015q-69 -168 -189.5 -255.5t-288.5 -87.5v125zM277 1256h498v-113h-498v113z" />
    <glyph glyph-name="pi" unicode="&#x3c0;" horiz-adv-x="1393" 
d="M1340 34q0 -2 -27 -16t-74.5 -26t-111.5 -12q-150 0 -233 86.5t-83 258.5v487h-356v-812h-137v812h-246v116h1241v-116h-363v-481q0 -120 50 -177t142 -57q44 0 80 9.5t58.5 21t22.5 12.5z" />
    <glyph glyph-name="zero" unicode="0" 
d="M316 67q-103 89 -155 255t-52 395q0 232 54 397.5t158 252.5t252 87q151 0 254.5 -88.5t155 -254t51.5 -394.5q0 -233 -53.5 -399t-157.5 -253t-252 -87q-152 0 -255 89zM805.5 264.5q79.5 160.5 79.5 452.5q0 291 -79 451t-234 160q-156 0 -235 -159.5t-79 -451.5
q0 -293 78.5 -453t234.5 -160q155 0 234.5 160.5z" />
    <glyph glyph-name="one" unicode="1" horiz-adv-x="743" 
d="M432 1267l-350 -275v157l361 285h134v-1434h-145v1267z" />
    <glyph glyph-name="two" unicode="2" horiz-adv-x="1113" 
d="M116 114l498 523q81 88 127 146.5t74.5 124t28.5 140.5q0 124 -74.5 199t-220.5 75q-252 0 -358 -234l-103 82q25 62 79.5 126t151.5 111t235 47q137 0 236.5 -50.5t152 -139.5t52.5 -205q0 -99 -34 -181.5t-86.5 -149.5t-142.5 -162l-407 -438h697v-128h-906v114z" />
    <glyph glyph-name="three" unicode="3" horiz-adv-x="1146" 
d="M827 821q110 -57 169.5 -156.5t59.5 -226.5q0 -131 -63 -235.5t-175 -164t-253 -59.5q-140 0 -239.5 41.5t-156 101.5t-81.5 121l102 79q35 -79 121 -147.5t249 -68.5q101 0 179.5 42t122 118t43.5 175q0 98 -44.5 171.5t-125 113.5t-186.5 40h-189v67l443 469h-665v132
h856v-108l-424 -445q147 -3 257 -60z" />
    <glyph glyph-name="four" unicode="4" horiz-adv-x="1222" 
d="M1133 377h-241v-377h-141v377h-662v110l626 947h177v-924h241v-133zM751 510v747l-499 -747h499z" />
    <glyph glyph-name="five" unicode="5" horiz-adv-x="1144" 
d="M323.5 20.5q-99.5 41.5 -155.5 101t-82 121.5l102 78q34 -79 120.5 -147.5t247.5 -68.5q102 0 180.5 43t122 121.5t43.5 182.5q0 103 -39 178.5t-113.5 116.5t-178.5 41t-169 -39t-93.5 -83t-28.5 -55h-119l149 823h675v-130h-573l-87 -485q46 42 110 66t142 24
q149 0 256.5 -58t164 -161.5t56.5 -236.5q0 -136 -63 -244t-175 -169t-253 -61q-140 0 -239.5 41.5z" />
    <glyph glyph-name="six" unicode="6" horiz-adv-x="1158" 
d="M328.5 40.5q-111.5 60.5 -174.5 168.5t-63 245q0 141 86 277l444 703h170l-373 -562q6 3 30 10.5t63 15t83 7.5q144 0 251 -57.5t164.5 -160.5t57.5 -236q0 -135 -63 -242t-174 -168t-249 -61q-141 0 -252.5 60.5zM755.5 145q77.5 43 121 122t43.5 182q0 104 -40.5 179.5
t-117.5 115.5t-183 40t-182.5 -40.5t-117 -116t-40.5 -178.5t43.5 -182t120.5 -122t176 -43t176.5 43z" />
    <glyph glyph-name="seven" unicode="7" horiz-adv-x="1071" 
d="M824 1305h-741v129h905v-110l-599 -1324h-159z" />
    <glyph glyph-name="eight" unicode="8" horiz-adv-x="1145" 
d="M981.5 655.5q73.5 -101.5 73.5 -236.5q0 -125 -62.5 -225.5t-173 -157.5t-248.5 -57q-137 0 -247 56.5t-172.5 156t-62.5 224.5q0 135 73.5 237.5t204.5 148.5q-88 43 -137.5 120.5t-49.5 177.5q0 102 48 182.5t136.5 126t207.5 45.5q118 0 206.5 -45t136.5 -125t48 -182
q0 -99 -50 -177.5t-137 -121.5q132 -46 205.5 -147.5zM438.5 1308q-56.5 -30 -86 -85t-29.5 -127q0 -73 31.5 -127.5t87.5 -84t130 -29.5q73 0 129.5 29.5t88.5 84.5t32 127t-30.5 126.5t-87 85t-132.5 30.5q-77 0 -133.5 -30zM745.5 135q76.5 41 119 115.5t42.5 169.5
q0 94 -40 165t-115.5 109.5t-179.5 38.5q-103 0 -178.5 -38.5t-116 -109.5t-40.5 -165q0 -95 42.5 -169t118.5 -115.5t173 -41.5q98 0 174.5 41z" />
    <glyph glyph-name="nine" unicode="9" horiz-adv-x="1158" 
d="M743 560q-6 -3 -30 -11t-62.5 -15.5t-82.5 -7.5q-146 0 -254 58t-165.5 161t-57.5 236q0 135 63 243t174 169t249 61q141 0 252.5 -60t174.5 -168t63 -245q0 -157 -86 -292l-444 -689h-156zM761.5 687.5q76.5 40.5 117 115.5t40.5 178t-43.5 182t-120.5 122.5t-176 43.5
t-176.5 -43.5t-121 -122.5t-43.5 -182t40.5 -178.5t117.5 -115.5t183 -40t182.5 40.5z" />
    <glyph glyph-name="zero.tf" 
d="M109 0zM316 67q-103 89 -155 255t-52 395q0 232 54 397.5t158 252.5t252 87q151 0 254.5 -88.5t155 -254t51.5 -394.5q0 -233 -53.5 -399t-157.5 -253t-252 -87q-152 0 -255 89zM805.5 264.5q79.5 160.5 79.5 452.5q0 291 -79 451t-234 160q-156 0 -235 -159.5
t-79 -451.5q0 -293 78.5 -453t234.5 -160q155 0 234.5 160.5z" />
    <glyph glyph-name="one.tf" 
d="M102 128h437v1137l-351 -271v158l362 282h134v-1306h358v-128h-940v128z" />
    <glyph glyph-name="two.tf" 
d="M97 0zM125 114l498 523q81 88 127 146.5t74.5 124t28.5 140.5q0 124 -74.5 199t-220.5 75q-252 0 -358 -234l-103 82q25 62 79.5 126t151.5 111t235 47q137 0 236.5 -50.5t152 -139.5t52.5 -205q0 -99 -34 -181.5t-86.5 -149.5t-142.5 -162l-407 -438h697v-128h-906v114z
" />
    <glyph glyph-name="three.tf" 
d="M88 0zM827 821q110 -57 169.5 -156.5t59.5 -226.5q0 -131 -63 -235.5t-175 -164t-253 -59.5q-140 0 -239.5 41.5t-156 101.5t-81.5 121l102 79q35 -79 121 -147.5t249 -68.5q101 0 179.5 42t122 118t43.5 175q0 98 -44.5 171.5t-125 113.5t-186.5 40h-189v67l443 469
h-665v132h856v-108l-424 -445q147 -3 257 -60z" />
    <glyph glyph-name="four.tf" 
d="M52 0zM1096 377h-241v-377h-141v377h-662v110l626 947h177v-924h241v-133zM714 510v747l-499 -747h499z" />
    <glyph glyph-name="five.tf" 
d="M87 0zM324.5 20.5q-99.5 41.5 -155.5 101t-82 121.5l102 78q34 -79 120.5 -147.5t247.5 -68.5q102 0 180.5 43t122 121.5t43.5 182.5q0 103 -39 178.5t-113.5 116.5t-178.5 41t-169 -39t-93.5 -83t-28.5 -55h-119l149 823h675v-130h-573l-87 -485q46 42 110 66t142 24
q149 0 256.5 -58t164 -161.5t56.5 -236.5q0 -136 -63 -244t-175 -169t-253 -61q-140 0 -239.5 41.5z" />
    <glyph glyph-name="six.tf" 
d="M91 0zM328.5 40.5q-111.5 60.5 -174.5 168.5t-63 245q0 141 86 277l444 703h170l-373 -562q6 3 30 10.5t63 15t83 7.5q144 0 251 -57.5t164.5 -160.5t57.5 -236q0 -135 -63 -242t-174 -168t-249 -61q-141 0 -252.5 60.5zM755.5 145q77.5 43 121 122t43.5 182
q0 104 -40.5 179.5t-117.5 115.5t-183 40t-182.5 -40.5t-117 -116t-40.5 -178.5t43.5 -182t120.5 -122t176 -43t176.5 43z" />
    <glyph glyph-name="seven.tf" 
d="M138 0zM879 1305h-741v129h905v-110l-599 -1324h-159z" />
    <glyph glyph-name="eight.tf" 
d="M89 0zM981.5 655.5q73.5 -101.5 73.5 -236.5q0 -125 -62.5 -225.5t-173 -157.5t-248.5 -57q-137 0 -247 56.5t-172.5 156t-62.5 224.5q0 135 73.5 237.5t204.5 148.5q-88 43 -137.5 120.5t-49.5 177.5q0 102 48 182.5t136.5 126t207.5 45.5q118 0 206.5 -45t136.5 -125
t48 -182q0 -99 -50 -177.5t-137 -121.5q132 -46 205.5 -147.5zM438.5 1308q-56.5 -30 -86 -85t-29.5 -127q0 -73 31.5 -127.5t87.5 -84t130 -29.5q73 0 129.5 29.5t88.5 84.5t32 127t-30.5 126.5t-87 85t-132.5 30.5q-77 0 -133.5 -30zM745.5 135q76.5 41 119 115.5
t42.5 169.5q0 94 -40 165t-115.5 109.5t-179.5 38.5q-103 0 -178.5 -38.5t-116 -109.5t-40.5 -165q0 -95 42.5 -169t118.5 -115.5t173 -41.5q98 0 174.5 41z" />
    <glyph glyph-name="nine.tf" 
d="M84 0zM736 560q-6 -3 -30 -11t-62.5 -15.5t-82.5 -7.5q-146 0 -254 58t-165.5 161t-57.5 236q0 135 63 243t174 169t249 61q141 0 252.5 -60t174.5 -168t63 -245q0 -157 -86 -292l-444 -689h-156zM754.5 687.5q76.5 40.5 117 115.5t40.5 178t-43.5 182t-120.5 122.5
t-176 43.5t-176.5 -43.5t-121 -122.5t-43.5 -182t40.5 -178.5t117.5 -115.5t183 -40t182.5 40.5z" />
    <glyph glyph-name="zero.dnom" horiz-adv-x="731" 
d="M162.5 77.5q-72.5 97.5 -72.5 270.5q0 114 32.5 196.5t95 126.5t148.5 44q131 0 203 -97t72 -270q0 -174 -72.5 -271t-202.5 -97q-131 0 -203.5 97.5zM486 140.5q42 71.5 42 207.5q0 135 -42.5 206t-119.5 71q-78 0 -120 -70.5t-42 -206.5q0 -138 41.5 -208.5
t119.5 -70.5q79 0 121 71.5z" />
    <glyph glyph-name="one.dnom" horiz-adv-x="731" 
d="M365 568l-196 -149v119l205 156h101v-694h-110v568z" />
    <glyph glyph-name="two.dnom" horiz-adv-x="731" 
d="M100 78l276 233q64 54 93 93.5t29 91.5q0 58 -37.5 91t-107.5 33q-55 0 -95 -21t-62.5 -48.5t-31.5 -50.5l-84 53q28 62 93.5 112t182.5 50q77 0 135.5 -27t90 -75.5t31.5 -111.5q0 -76 -38.5 -132.5t-110.5 -114.5l-194 -158h359v-96h-529v78z" />
    <glyph glyph-name="three.dnom" horiz-adv-x="731" 
d="M178.5 21q-74.5 41 -101.5 111l84 55q21 -50 70 -80t125 -30q78 0 126 38t48 99q0 126 -180 126h-119v55l219 209h-343v90h502v-70l-214 -200q116 -3 183 -56.5t67 -155.5q0 -66 -37 -119t-102.5 -83t-146.5 -30q-106 0 -180.5 41z" />
    <glyph glyph-name="four.dnom" horiz-adv-x="731" 
d="M430 146h-364v72l340 476h133v-454h132v-94h-132v-146h-109v146zM430 240v316l-228 -316h228z" />
    <glyph glyph-name="five.dnom" horiz-adv-x="731" 
d="M173.5 20.5q-76.5 40.5 -104.5 111.5l85 56q26 -51 73.5 -81.5t130.5 -30.5q76 0 120 41.5t44 106.5q0 69 -43.5 105t-124.5 36q-55 0 -95.5 -18.5t-60.5 -52.5h-89l93 400h394v-96h-317l-38 -170q58 29 117 29q85 0 148 -28.5t97 -81.5t34 -123q0 -69 -36 -125
t-99.5 -87.5t-144.5 -31.5q-107 0 -183.5 40.5z" />
    <glyph glyph-name="six.dnom" horiz-adv-x="731" 
d="M520.5 440q61.5 -30 94.5 -85.5t33 -128.5q0 -72 -37 -128t-101.5 -87t-144.5 -31q-81 0 -146.5 30.5t-102.5 87t-37 129.5q0 41 13.5 81t37.5 74l219 312h121l-164 -232q4 3 25.5 5.5t45.5 2.5q82 0 143.5 -30zM488.5 112.5q46.5 40.5 46.5 112.5q0 73 -44.5 112
t-126.5 39q-81 0 -127 -39.5t-46 -111.5t47.5 -112.5t125.5 -40.5t124.5 40.5z" />
    <glyph glyph-name="seven.dnom" horiz-adv-x="731" 
d="M501 600h-398v94h528v-74l-324 -620h-120z" />
    <glyph glyph-name="eight.dnom" horiz-adv-x="731" 
d="M222 8.5q-64 28.5 -100.5 79t-36.5 115.5q0 62 35.5 111t99.5 75q-41 25 -63 62t-22 80q0 55 29.5 96.5t81.5 64.5t120 23q67 0 119.5 -23t81.5 -64.5t29 -95.5q0 -43 -22.5 -80t-62.5 -61q65 -27 100.5 -76t35.5 -111q0 -65 -36.5 -116t-100.5 -79.5t-144 -28.5
t-144 28.5zM455 456q33 26 33 72q0 47 -32.5 72.5t-89.5 25.5q-58 0 -89.5 -25t-31.5 -73q0 -47 32 -72.5t89 -25.5q56 0 89 26zM489 105q46 37 46 100q0 64 -44.5 99t-124.5 35t-124.5 -35t-44.5 -99q0 -62 46 -99.5t123 -37.5t123 37z" />
    <glyph glyph-name="nine.dnom" horiz-adv-x="731" 
d="M511 684.5q65 -30.5 102 -86.5t37 -130q0 -42 -14 -83t-38 -74l-220 -311h-121l166 232q-4 -3 -25 -5.5t-45 -2.5q-82 0 -144 30.5t-95 86t-33 128.5q0 72 37 128t102 87t145 31q81 0 146 -30.5zM492.5 357q45.5 39 45.5 111t-47.5 112.5t-125.5 40.5t-124.5 -40
t-46.5 -113t44.5 -111.5t126.5 -38.5t127.5 39z" />
    <glyph glyph-name="fraction" unicode="&#x2044;" horiz-adv-x="66" 
d="M401 1434h126l-860 -1434h-128z" />
    <glyph glyph-name="onehalf" unicode="&#xbd;" horiz-adv-x="1447" 
d="M1078 1434h126l-858 -1434h-127zM365 1305l-196 -149v119l205 156h101v-694h-110v568zM825 78l276 233q64 54 93 93.5t29 91.5q0 58 -37.5 91t-107.5 33q-55 0 -95 -21t-62.5 -48.5t-31.5 -50.5l-84 53q28 62 93.5 112t182.5 50q77 0 135.5 -27t90 -75.5t31.5 -111.5
q0 -76 -38.5 -132.5t-110.5 -114.5l-194 -158h359v-96h-529v78z" />
    <glyph glyph-name="onequarter" unicode="&#xbc;" horiz-adv-x="1447" 
d="M1127 1434h126l-858 -1434h-128zM365 1305l-196 -149v119l205 156h101v-694h-110v568zM1118 146h-364v72l340 476h133v-454h132v-94h-132v-146h-109v146zM1118 240v316l-228 -316h228z" />
    <glyph glyph-name="threequarters" unicode="&#xbe;" horiz-adv-x="1447" 
d="M1131 1434h126l-858 -1434h-128zM180.5 756q-74.5 41 -101.5 111l84 55q21 -50 70 -80t125 -30q78 0 126 38t48 99q0 126 -180 126h-119v55l219 209h-343v90h502v-70l-214 -200q116 -3 183 -56.5t67 -155.5q0 -66 -37 -119t-102.5 -83t-146.5 -30q-106 0 -180.5 41z
M1118 146h-364v72l340 476h133v-454h132v-94h-132v-146h-109v146zM1118 240v316l-228 -316h228z" />
    <glyph glyph-name="uni00B9" unicode="&#xb9;" horiz-adv-x="731" 
d="M169 737zM365 1305l-196 -149v119l205 156h101v-694h-110v568z" />
    <glyph glyph-name="uni00B2" unicode="&#xb2;" horiz-adv-x="731" 
d="M80 737zM100 815l276 233q64 54 93 93.5t29 91.5q0 58 -37.5 91t-107.5 33q-55 0 -95 -21t-62.5 -48.5t-31.5 -50.5l-84 53q28 62 93.5 112t182.5 50q77 0 135.5 -27t90 -75.5t31.5 -111.5q0 -76 -38.5 -132.5t-110.5 -114.5l-194 -158h359v-96h-529v78z" />
    <glyph glyph-name="uni00B3" unicode="&#xb3;" horiz-adv-x="731" 
d="M77 715zM178.5 756q-74.5 41 -101.5 111l84 55q21 -50 70 -80t125 -30q78 0 126 38t48 99q0 126 -180 126h-119v55l219 209h-343v90h502v-70l-214 -200q116 -3 183 -56.5t67 -155.5q0 -66 -37 -119t-102.5 -83t-146.5 -30q-106 0 -180.5 41z" />
    <glyph glyph-name="cent" unicode="&#xa2;" horiz-adv-x="998" 
d="M913 74q0 -3 -33.5 -24.5t-92.5 -42.5t-139 -28v-306h-122v308q-122 14 -217 80.5t-147.5 171t-52.5 231.5q0 126 52.5 230t147.5 170t217 80v311h122v-309q80 -6 139 -27t92.5 -42t33.5 -24l-64 -108q0 3 -31.5 23t-86.5 37t-130 17q-101 0 -179.5 -45t-122 -126.5
t-43.5 -186.5q0 -106 43.5 -187.5t121.5 -126t180 -44.5q75 0 130 16.5t86.5 36t31.5 22.5z" />
    <glyph glyph-name="dollar" unicode="$" horiz-adv-x="1165" 
d="M1000.5 191q-47.5 -88 -136.5 -142t-210 -66v-310h-122v309q-124 8 -216.5 44t-145.5 74.5t-53 43.5l66 114q0 -6 50.5 -43.5t139 -69.5t207.5 -32q145 0 229.5 70.5t84.5 203.5q0 79 -37.5 130.5t-103 82t-163.5 53.5l-59 14q-110 26 -190.5 67t-131 117.5t-50.5 197.5
q0 107 45.5 193t129.5 139.5t198 67.5v312h122v-308q115 -6 200 -37t134 -64.5t49 -38.5l-59 -111q0 4 -47 35.5t-128 58.5t-189 27q-147 0 -224.5 -71t-77.5 -199q0 -78 36 -129.5t98.5 -81.5t154.5 -51l60 -14q114 -27 197.5 -68.5t136.5 -119t53 -198.5
q0 -112 -47.5 -200z" />
    <glyph glyph-name="Euro" unicode="&#x20ac;" horiz-adv-x="1152" 
d="M891 123q53 17 84 37t31 23l64 -108q0 -4 -40 -28.5t-109 -45.5t-162 -21q-132 0 -234 63.5t-167.5 185.5t-88.5 293h-169v112h158q-2 54 -2 82q0 26 2 74h-158v112h167q23 174 88.5 298t168 189t235.5 65q93 0 162 -21.5t109 -46t40 -28.5l-64 -107q0 3 -31 23t-84 37
t-122 17q-142 0 -232.5 -110.5t-118.5 -315.5h555v-112h-565q-2 -48 -2 -73q0 -29 2 -83h565v-112h-554q29 -200 119 -308t231 -108q69 0 122 17z" />
    <glyph glyph-name="florin" unicode="&#x192;" horiz-adv-x="732" 
d="M651 812h-242v-895q0 -172 -86 -259.5t-231 -87.5q-16 0 -31.5 1.5t-19.5 2.5l11 117q3 0 12.5 -1t22.5 -1q181 0 181 229l-2 894h-186v116h186v179q0 172 85.5 259.5t232.5 87.5q16 0 31.5 -1.5t20.5 -2.5l-12 -117q-3 0 -12 1t-22 1q-184 0 -181 -229v-178h242v-116z
" />
    <glyph glyph-name="sterling" unicode="&#xa3;" horiz-adv-x="1240" 
d="M1165 162q0 -8 -30 -49t-90.5 -77t-151.5 -36h-793v125q211 0 211 243v162h-206v112h206v328q0 156 55.5 264.5t157.5 164t241 55.5q93 0 162.5 -21.5t109.5 -46t40 -28.5l-64 -108q0 3 -31 23t-84 37t-123 17q-155 0 -240 -95t-85 -270v-320h519v-112h-519v-165
q0 -73 -20.5 -125t-35.5 -70.5t-38 -41.5h532q59 0 98.5 25.5t59 55t19.5 34.5z" />
    <glyph glyph-name="yen" unicode="&#xa5;" horiz-adv-x="1161" 
d="M656 637h406v-112h-406v-525h-150v525h-406v112h406v151l-4 5h-402v111h324l-373 530h166l368 -536l362 536h164l-374 -530h324v-111h-403l-2 -3v-153z" />
    <glyph glyph-name="Omega" unicode="&#x2126;" horiz-adv-x="1678" 
d="M131 119h331q-163 131 -248.5 283t-85.5 335q0 203 88.5 366.5t250 257t371.5 93.5t371.5 -93t250.5 -256t90 -366q0 -183 -86.5 -335.5t-249.5 -284.5h332v-119h-527v97q182 122 282 282t100 350q0 172 -72 307t-200 210.5t-291 75.5q-162 0 -290 -76t-199.5 -211
t-71.5 -306q0 -190 99.5 -349.5t281.5 -282.5v-97h-527v119z" />
    <glyph glyph-name="approxequal" unicode="&#x2248;" 
d="M662.5 729.5q-52.5 17.5 -119.5 51.5q-58 29 -97 43t-90 14q-64 0 -114 -25t-80.5 -54t-30.5 -33v134q0 4 30 30.5t81.5 49.5t120.5 23q74 0 128 -17.5t120 -51.5q54 -29 95 -43t92 -14q65 0 112.5 23.5t74.5 51t27 31.5v-130q0 -4 -26.5 -30t-75.5 -48.5t-119 -22.5
q-76 0 -128.5 17.5zM662 452q-53 18 -119 52q-58 29 -97 43t-90 14q-64 0 -114 -25t-80.5 -54t-30.5 -33v133q0 4 30 30.5t81.5 49.5t120.5 23q74 0 128 -17.5t120 -51.5q54 -29 95 -43t92 -14q65 0 112.5 24t74.5 51.5t27 31.5v-130q0 -4 -26.5 -30.5t-75.5 -49t-119 -22.5
q-76 0 -129 18z" />
    <glyph glyph-name="asciitilde" unicode="~" 
d="M662.5 597.5q-52.5 17.5 -119.5 51.5q-58 29 -97 43t-90 14q-64 0 -114 -25t-80.5 -54t-30.5 -33v137q0 4 30 31t81.5 50t120.5 23q75 0 129 -18t119 -52q57 -29 96.5 -43t90.5 -14q65 0 112.5 24t74.5 51.5t27 31.5v-133q0 -4 -26.5 -30.5t-75.5 -49t-119 -22.5
q-76 0 -128.5 17.5z" />
    <glyph glyph-name="divide" unicode="&#xf7;" 
d="M131 334zM131 770h881v-121h-881v121zM507.5 932.5q-25.5 24.5 -25.5 62.5q0 39 25.5 64.5t65.5 25.5q41 0 65.5 -25t24.5 -64q0 -38 -25 -63t-65 -25t-65.5 24.5zM507.5 358.5q-25.5 24.5 -25.5 62.5q0 39 25.5 64.5t65.5 25.5q41 0 65.5 -25t24.5 -64q0 -38 -25 -63
t-65 -25t-65.5 24.5z" />
    <glyph glyph-name="equal" unicode="=" 
d="M131 911h881v-122h-881v122zM131 630h881v-122h-881v122z" />
    <glyph glyph-name="greater" unicode="&#x3e;" 
d="M131 471l718 238l-718 239v129l881 -301v-135l-881 -299v129z" />
    <glyph glyph-name="greaterequal" unicode="&#x2265;" 
d="M131 488l714 230l-714 231v128l881 -293v-133l-881 -290v127zM131 119h881v-119h-881v119z" />
    <glyph glyph-name="Delta" unicode="&#x2206;" horiz-adv-x="1346" 
d="M612 1434h139l516 -1434h-1188zM1085 116l-408 1143l-421 -1143h829z" />
    <glyph glyph-name="infinity" unicode="&#x221e;" horiz-adv-x="1545" 
d="M1266.5 906.5q82.5 -45.5 131.5 -131.5t49 -201t-49 -201t-131.5 -131.5t-181.5 -45.5q-105 0 -187 51.5t-126 140.5q-43 -88 -125.5 -139t-186.5 -51q-99 0 -181.5 45t-131.5 130.5t-49 200.5q0 114 49 200t132 132t181 46q104 0 186.5 -51t126.5 -140q43 89 125 140
t187 51q99 0 181.5 -45.5zM598.5 347q56.5 33 87.5 91.5t31 135.5q0 76 -31 136t-87.5 93.5t-131.5 33.5t-131 -32t-86.5 -91.5t-30.5 -139.5q0 -122 67 -191t181 -69q75 0 131.5 33zM1209 343.5q56 31.5 86.5 90.5t30.5 140t-30.5 140t-86.5 90t-131 31t-131.5 -33
t-87.5 -92t-31 -136q0 -76 31 -135.5t87.5 -93t131.5 -33.5t131 31.5z" />
    <glyph glyph-name="integral" unicode="&#x222b;" horiz-adv-x="697" 
d="M60.5 -428.5q-15.5 1.5 -19.5 2.5l11 117q3 0 12.5 -1t22.5 -1q181 0 181 229l-2 1189q0 172 85.5 259.5t232.5 87.5q16 0 31.5 -1.5t20.5 -2.5l-12 -117q-3 0 -12 1t-22 1q-184 0 -181 -229v-1189q0 -172 -86 -259.5t-231 -87.5q-16 0 -31.5 1.5z" />
    <glyph glyph-name="less" unicode="&#x3c;" 
d="M131 641v135l881 301v-129l-718 -239l718 -238v-129z" />
    <glyph glyph-name="lessequal" unicode="&#x2264;" 
d="M131 651v133l881 293v-128l-714 -231l714 -230v-127zM131 119h881v-119h-881v119z" />
    <glyph glyph-name="logicalnot" unicode="&#xac;" 
d="M890 648h-759v122h881v-552h-122v430z" />
    <glyph glyph-name="mu" unicode="&#xb5;" horiz-adv-x="1142" 
d="M995 928v-928h-139v123q-54 -57 -135 -100t-191 -43q-147 0 -244 83v-469h-139v1334h140v-556q0 -128 71 -201.5t193 -73.5q107 0 182.5 50.5t122.5 118.5v662h139z" />
    <glyph glyph-name="minus" unicode="&#x2212;" 
d="M131 770h881v-121h-881v121z" />
    <glyph glyph-name="multiply" unicode="&#xd7;" 
d="M218 440l268 270l-268 269l84 84l269 -268l270 268l83 -84l-267 -269l268 -270l-84 -84l-270 268l-269 -268z" />
    <glyph glyph-name="notequal" unicode="&#x2260;" 
d="M659 789l-47 -159h400v-122h-435l-74 -251h-121l74 251h-325v122h360l47 159h-407v122h443l66 227h121l-66 -227h317v-122h-353z" />
    <glyph glyph-name="partialdiff" unicode="&#x2202;" horiz-adv-x="1194" 
d="M503 1422q110 -69 233.5 -174t235 -293.5t111.5 -430.5q0 -157 -61.5 -281t-173 -193.5t-253.5 -69.5q-140 0 -250.5 62t-172 172.5t-61.5 249.5q0 136 60.5 246t169 173t245.5 63q167 0 294 -104q-96 216 -266.5 357.5t-319.5 223.5l-18 11h209zM784 151.5
q80 52.5 123 148t43 219.5q0 51 -6 100q-41 73 -125.5 142t-220.5 69q-99 0 -177.5 -46.5t-122 -129.5t-43.5 -190q0 -108 43 -190.5t120.5 -128.5t178.5 -46q107 0 187 52.5z" />
    <glyph glyph-name="percent" unicode="%" horiz-adv-x="1650" 
d="M284 827q-77 43 -121 119.5t-44 172.5t44 172.5t121 119.5t174 43q95 0 171.5 -43t120 -119.5t43.5 -172.5t-43.5 -172.5t-120 -119.5t-171.5 -43q-97 0 -174 43zM1187 1434h160l-876 -1434h-162zM562 936.5q46 26.5 71.5 74t25.5 108.5q0 62 -25.5 110t-71.5 74.5
t-104 26.5q-60 0 -106 -26.5t-71 -74.5t-25 -110t25.5 -109.5t71.5 -73.5t105 -26q58 0 104 26.5zM1022.5 23q-77.5 43 -121 119t-43.5 172t43.5 172.5t121 119.5t174.5 43q95 0 171 -43t119.5 -119.5t43.5 -172.5t-43.5 -172t-119.5 -119t-171 -43q-97 0 -174.5 43z
M1300.5 131.5q45.5 26.5 71.5 74t26 108.5q0 62 -25.5 110t-71.5 74.5t-104 26.5q-60 0 -106 -26.5t-71 -74.5t-25 -110t25.5 -109.5t71.5 -73.5t105 -26q58 0 103.5 26.5z" />
    <glyph glyph-name="perthousand" unicode="&#x2030;" horiz-adv-x="2405" 
d="M284 827q-77 43 -121 119.5t-44 172.5t44 172.5t121 119.5t174 43q95 0 171.5 -43t120 -119.5t43.5 -172.5t-43.5 -172.5t-120 -119.5t-171.5 -43q-97 0 -174 43zM1187 1434h160l-876 -1434h-162zM562 936.5q46 26.5 71.5 74t25.5 108.5q0 62 -25.5 110t-71.5 74.5
t-104 26.5q-60 0 -106 -26.5t-71 -74.5t-25 -110t25.5 -109.5t71.5 -73.5t105 -26q58 0 104 26.5zM1022.5 23q-77.5 43 -121 119t-43.5 172t43.5 172.5t121 119.5t174.5 43q95 0 171 -43t119.5 -119.5t43.5 -172.5t-43.5 -172t-119.5 -119t-171 -43q-97 0 -174.5 43z
M1777 23q-77 43 -121 119t-44 172t43.5 172.5t121 119.5t174.5 43q95 0 171.5 -43t120 -119.5t43.5 -172.5t-43.5 -172t-120 -119t-171.5 -43q-97 0 -174 43zM1300.5 131.5q45.5 26.5 71.5 74t26 108.5q0 62 -25.5 110t-71.5 74.5t-104 26.5q-60 0 -106 -26.5t-71 -74.5
t-25 -110t25.5 -109.5t71.5 -73.5t105 -26q58 0 103.5 26.5zM2055 131.5q46 26.5 71.5 74t25.5 108.5q0 62 -25.5 110t-71.5 74.5t-104 26.5q-60 0 -106 -26.5t-71 -74.5t-25 -110t25.5 -109.5t71.5 -73.5t105 -26q58 0 104 26.5z" />
    <glyph glyph-name="plus" unicode="+" 
d="M511 649h-380v121h380v380h121v-380h380v-121h-380v-380h-121v380z" />
    <glyph glyph-name="plusminus" unicode="&#xb1;" 
d="M511 660h-380v119h380v334h121v-334h380v-119h-380v-335h-121v335zM131 119h881v-119h-881v119z" />
    <glyph glyph-name="product" unicode="&#x220f;" horiz-adv-x="1252" 
d="M324 1307h-215v127h1033v-127h-214v-1307h-143v1307h-319v-1307h-142v1307z" />
    <glyph glyph-name="radical" unicode="&#x221a;" horiz-adv-x="1253" 
d="M229 805h-139v123h244l242 -630l391 1234h275v-121h-170l-492 -1460z" />
    <glyph glyph-name="summation" unicode="&#x2211;" 
d="M609 564l-518 870h910v-122h-677l442 -748l-448 -747h683v-124h-910z" />
    <glyph glyph-name="lozenge" unicode="&#x25ca;" 
d="M86 572l495 506l476 -506l-491 -513zM902 572l-323 344l-336 -344l325 -348z" />
    <glyph glyph-name="bar" unicode="|" horiz-adv-x="544" 
d="M210 1843h125v-2457h-125v2457z" />
    <glyph glyph-name="brokenbar" unicode="&#xa6;" horiz-adv-x="544" 
d="M211 1843h122v-1065h-122v1065zM211 451h122v-1065h-122v1065z" />
    <glyph glyph-name="at" unicode="@" horiz-adv-x="1805" 
d="M1182 203v95q-49 -47 -118 -80t-158 -33q-122 0 -217.5 57t-148.5 155.5t-53 218.5q0 121 53.5 219.5t149 155.5t216.5 57q78 0 150.5 -31t125.5 -81v92h124v-710q79 25 141 85.5t97 149.5t35 196q0 168 -78 303t-223 212.5t-337 77.5q-208 0 -365 -90.5t-242.5 -253.5
t-85.5 -375q0 -214 92 -377t252 -252.5t360 -89.5q148 0 262 46t183.5 100t69.5 61l70 -86q0 -8 -78 -69.5t-210 -114t-304 -52.5q-237 0 -427 106t-298.5 296t-108.5 431q0 236 108 426t297.5 298t422.5 108t407 -93t267 -252t93 -352q0 -165 -73 -291.5t-186.5 -194.5
t-229.5 -68h-35zM1072.5 335q65.5 38 109.5 93v378q-44 55 -109.5 92.5t-153.5 37.5q-89 0 -158 -39.5t-107 -112t-38 -167.5t38 -167.5t107 -112.5t158 -40q88 0 153.5 38z" />
    <glyph glyph-name="ampersand" unicode="&#x26;" horiz-adv-x="1400" 
d="M1155 0l-118 129q-89 -73 -198.5 -111t-234.5 -38h-2q-142 0 -251 46.5t-170 137t-61 218.5q0 154 82.5 250.5t226.5 159.5l-39 43q-50 55 -78.5 122.5t-28.5 133.5q0 102 42.5 180t120 120.5t179.5 42.5q101 0 176 -38.5t115.5 -109t40.5 -163.5q0 -136 -84.5 -219.5
t-236.5 -145.5l403 -443q65 88 99 203.5t34 247.5v62h136v-59q0 -165 -47 -305.5t-134 -245.5l199 -218h-171zM481 1252.5q-53 -57.5 -53 -161.5q0 -52 20 -99.5t52 -84.5l58 -64q86 35 141 69.5t86 83t31 116.5q0 97 -49.5 147.5t-140.5 50.5q-92 0 -145 -57.5zM952 221
l-445 486q-120 -52 -181 -126t-61 -196q0 -138 94 -210t254 -72q199 0 339 118z" />
    <glyph glyph-name="paragraph" unicode="&#xb6;" horiz-adv-x="1409" 
d="M1241 1434v-1680h-131v1561h-175v-1561h-131v876h-209q-127 0 -229 49.5t-160.5 141.5t-58.5 215q0 116 55 206.5t156.5 141t237.5 50.5h645zM804 1315h-198q-153 0 -232.5 -76t-79.5 -207q0 -84 38 -147.5t108 -99t164 -35.5h200v565z" />
    <glyph glyph-name="copyright" unicode="&#xa9;" horiz-adv-x="1900" 
d="M530 -108.5q-187 108.5 -293.5 299t-106.5 427.5q0 238 106 429t293.5 299t420.5 108q232 0 419.5 -108t294 -298.5t106.5 -427.5q0 -238 -106 -429t-293.5 -299.5t-420.5 -108.5t-420 108.5zM1316 -17q158 93 244.5 259t86.5 377q0 213 -87 378.5t-245.5 258
t-365.5 92.5t-365.5 -93.5t-245 -259.5t-86.5 -377q0 -212 87.5 -377.5t246 -258t365.5 -92.5t365 93zM746.5 237.5q-99.5 57.5 -154 158t-54.5 226.5t54.5 227t154 158.5t229.5 57.5q92 0 160.5 -24t108.5 -52t40 -32l-67 -94q0 3 -31 25t-83 40.5t-121 18.5
q-92 0 -163.5 -42t-111 -116t-39.5 -167t39.5 -166.5t111 -115.5t163.5 -42q69 0 121 18.5t83 40.5t31 25l67 -94q0 -4 -40 -32t-108.5 -52t-160.5 -24q-130 0 -229.5 57.5z" />
    <glyph glyph-name="registered" unicode="&#xae;" horiz-adv-x="1900" 
d="M1369.5 1346q187.5 -108 294 -298.5t106.5 -427.5q0 -238 -106 -429t-293.5 -299.5t-420.5 -108.5t-420 108t-293.5 298.5t-106.5 428.5t106 428.5t293.5 299t420.5 108.5q232 0 419.5 -108zM1316 -17.5q158 93.5 244.5 259t86.5 376.5q0 213 -87 378.5t-245.5 258
t-365.5 92.5t-365.5 -93t-245 -259t-86.5 -377q0 -213 87 -378.5t246 -258t366 -92.5t365 93.5zM1278 676.5q-33 -54.5 -92 -87t-136 -39.5l258 -347h-139l-250 339h-135v-339h-120v850h87v2l267 -2q91 -1 157 -33.5t101 -89t35 -129.5q0 -70 -33 -124.5zM1137.5 681
q52.5 42 52.5 115q0 74 -49 114.5t-146 42.5l-211 2v-316h211q90 0 142.5 42z" />
    <glyph glyph-name="section" unicode="&#xa7;" 
d="M957 317.5q-57 -66.5 -150 -93.5q43 -43 66.5 -96t23.5 -121q0 -85 -43 -154t-122 -108.5t-182 -39.5q-90 0 -158 20.5t-107.5 44.5t-39.5 27l58 98q0 -3 31 -22t84 -35.5t123 -16.5q66 0 115 23.5t75 65.5t26 96q0 53 -22 93.5t-63 74t-112 75.5l-182 108
q-129 77 -189 151t-60 175q0 90 56.5 156.5t149.5 94.5q-43 43 -66 95.5t-23 120.5q0 85 43 154t121.5 108.5t182.5 39.5q90 0 157.5 -20.5t107 -44.5t39.5 -27l-57 -98q0 3 -31 22t-84 35.5t-123 16.5q-66 0 -115 -23.5t-75 -65.5t-26 -96q0 -53 22 -93t63.5 -74t111.5 -76
l182 -107q130 -77 189.5 -151.5t59.5 -175.5q0 -90 -57 -156.5zM840 344.5q50 44.5 50 119.5q0 50 -18.5 87.5t-59 71.5t-112.5 76l-190 112q-58 34 -85 52q-74 -6 -123 -50t-49 -120q0 -50 18.5 -87.5t59 -71.5t112.5 -76l189 -112q58 -34 85 -52q73 6 123 50.5z" />
    <glyph glyph-name="trademark" unicode="&#x2122;" horiz-adv-x="1543" 
d="M91 1434h517v-93h-206v-606h-104v606h-207v93zM1413 735h-95v566l-222 -566h-74l-214 567v-567h-93v699h139l206 -552l213 552h140v-699z" />
    <glyph glyph-name="degree" unicode="&#xb0;" horiz-adv-x="865" 
d="M278 890q-70 39 -109.5 107.5t-39.5 154.5q0 87 39.5 156t109.5 107.5t158 38.5q86 0 154.5 -39t107 -107.5t38.5 -155.5q0 -86 -38.5 -154.5t-107 -107.5t-154.5 -39q-88 0 -158 39zM534 978q44 25 68.5 70.5t24.5 103.5q0 59 -24.5 105.5t-68.5 72t-99 25.5
q-88 0 -140.5 -56t-52.5 -147q0 -89 52.5 -144t140.5 -55q55 0 99 25z" />
    <glyph glyph-name="asciicircum" unicode="^" 
d="M504 1434h136l298 -877h-128l-238 714l-240 -714h-128z" />
    <glyph glyph-name="dagger" unicode="&#x2020;" 
d="M511 850h-380v121h380v463h121v-463h380v-121h-380v-1096h-121v1096z" />
    <glyph glyph-name="daggerdbl" unicode="&#x2021;" 
d="M511 214h-380v121h380v518h-380v121h380v460h121v-460h380v-121h-380v-518h380v-121h-380v-460h-121v460z" />
    <glyph glyph-name="numbersign" unicode="#" 
d="M829 844l-29 -252h215v-116h-228l-53 -476h-120l54 476h-252l-53 -476h-120l54 476h-169v116h182l28 252h-210v116h223l54 474h119l-53 -474h251l54 474h119l-53 -474h173v-116h-186zM709 844h-251l-29 -252h252z" />
    <glyph glyph-name="exclam" unicode="!" horiz-adv-x="408" 
d="M134 1434h139l-3 -1010h-133zM138.5 4.5q-25.5 24.5 -25.5 61.5q0 38 25.5 63t65.5 25q41 0 65.5 -24.5t24.5 -63.5q0 -37 -25 -61.5t-65 -24.5t-65.5 24.5z" />
    <glyph glyph-name="exclamdown" unicode="&#xa1;" horiz-adv-x="408" 
d="M269.5 1019.5q25.5 -24.5 25.5 -61.5q0 -38 -25.5 -63t-65.5 -25q-41 0 -65.5 24.5t-24.5 63.5q0 37 25 61.5t65 24.5t65.5 -24.5zM274 -410h-139l3 1010h133z" />
    <glyph glyph-name="asterisk" unicode="*" horiz-adv-x="929" 
d="M220 873l165 215l-256 72l38 115l248 -95l-10 274h119l-12 -276l256 97l32 -112l-254 -77l165 -209l-95 -71l-153 224l-151 -226z" />
    <glyph glyph-name="backslash" unicode="\" horiz-adv-x="815" 
d="M90 1434h132l503 -1434h-132z" />
    <glyph glyph-name="periodcentered" unicode="&#xb7;" horiz-adv-x="416" 
d="M142.5 509q-25.5 25 -25.5 63q0 39 25.5 64.5t65.5 25.5q41 0 65.5 -25t24.5 -65q0 -38 -25 -63t-65 -25t-65.5 25z" />
    <glyph glyph-name="bullet" unicode="&#x2022;" horiz-adv-x="833" 
d="M257 314.5q-70 38.5 -109.5 106.5t-39.5 153t39.5 153t109.5 107t159 39q93 0 163 -38.5t108 -106.5t38 -153t-38 -153.5t-107.5 -107t-162.5 -38.5q-90 0 -160 38.5z" />
    <glyph glyph-name="colon" unicode=":" horiz-adv-x="408" 
d="M113 0zM138.5 800.5q-25.5 24.5 -25.5 62.5q0 39 25.5 64.5t65.5 25.5q41 0 65.5 -25t24.5 -64q0 -38 -25 -63t-65 -25t-65.5 24.5zM138.5 4.5q-25.5 24.5 -25.5 62.5q0 39 25.5 64.5t65.5 25.5q41 0 65.5 -25t24.5 -64q0 -38 -25 -63t-65 -25t-65.5 24.5z" />
    <glyph glyph-name="comma" unicode="," horiz-adv-x="408" 
d="M174 214h143l-152 -447h-133z" />
    <glyph glyph-name="ellipsis" unicode="&#x2026;" horiz-adv-x="1174" 
d="M113 0zM904.5 4.5q-25.5 24.5 -25.5 62.5q0 39 25.5 64.5t65.5 25.5q41 0 65.5 -25t24.5 -64q0 -38 -25 -63t-65 -25t-65.5 24.5zM521.5 4.5q-25.5 24.5 -25.5 62.5q0 39 25.5 64.5t65.5 25.5q41 0 65.5 -25t24.5 -64q0 -38 -25 -63t-65 -25t-65.5 24.5zM138.5 4.5
q-25.5 24.5 -25.5 62.5q0 39 25.5 64.5t65.5 25.5q41 0 65.5 -25t24.5 -64q0 -38 -25 -63t-65 -25t-65.5 24.5z" />
    <glyph glyph-name="period" unicode="." horiz-adv-x="408" 
d="M138.5 4.5q-25.5 24.5 -25.5 62.5q0 39 25.5 64.5t65.5 25.5q41 0 65.5 -25t24.5 -64q0 -38 -25 -63t-65 -25t-65.5 24.5z" />
    <glyph glyph-name="question" unicode="?" horiz-adv-x="815" 
d="M247 570q0 75 23.5 134t57.5 101t90 98q49 50 76.5 83t46.5 75.5t19 94.5q0 83 -50.5 128.5t-134.5 45.5q-71 0 -124 -17.5t-83.5 -37.5t-30.5 -23l-58 107q0 4 39.5 28.5t107 45.5t157.5 21q94 0 168 -36.5t115 -102.5t41 -151q0 -70 -23 -125t-56 -94.5t-88 -92.5
q-54 -52 -85.5 -90t-53 -89t-21.5 -115v-135h-133v147zM246.5 4.5q-25.5 24.5 -25.5 61.5q0 38 25.5 63t65.5 25q41 0 65.5 -24.5t24.5 -63.5q0 -37 -25 -61.5t-65 -24.5t-65.5 24.5z" />
    <glyph glyph-name="questiondown" unicode="&#xbf;" horiz-adv-x="784" 
d="M550.5 1013.5q25.5 -24.5 25.5 -61.5q0 -38 -25.5 -63t-65.5 -25q-41 0 -65.5 24.5t-24.5 63.5q0 37 25 61.5t65 24.5t65.5 -24.5zM550 448q0 -75 -23.5 -134t-57.5 -101t-90 -98q-49 -50 -76.5 -83t-46.5 -75.5t-19 -94.5q0 -83 50.5 -128.5t134.5 -45.5q71 0 124 17.5
t83.5 37.5t30.5 23l58 -107q0 -4 -39.5 -28.5t-107 -45.5t-157.5 -21q-94 0 -168 36.5t-115 102.5t-41 151q0 70 23 125t56 94.5t88 92.5q54 52 85.5 90t53 89t21.5 115v135h133v-147z" />
    <glyph glyph-name="quotesingle" unicode="'" horiz-adv-x="408" 
d="M136 1434h135l-6 -442h-123z" />
    <glyph glyph-name="quotedbl" unicode="&#x22;" horiz-adv-x="706" 
d="M137 1434h131l-5 -442h-120zM435 1434h133l-6 -442h-121z" />
    <glyph glyph-name="semicolon" unicode=";" horiz-adv-x="408" 
d="M153.5 795q-25.5 25 -25.5 63q0 39 25.5 64.5t65.5 25.5t65 -25t25 -64q0 -38 -25 -63.5t-65 -25.5t-65.5 25zM160 214h144l-139 -447h-133z" />
    <glyph glyph-name="slash" unicode="/" horiz-adv-x="815" 
d="M593 1434h132l-503 -1434h-132z" />
    <glyph glyph-name="underscore" unicode="_" horiz-adv-x="1024" 
d="M0 -300h1024v-110h-1024v110z" />
    <glyph glyph-name="braceleft" unicode="{" horiz-adv-x="634" 
d="M254 -212.5q-60 31.5 -92 87t-32 126.5q0 73 21 126.5t60 120.5q32 56 47 92.5t15 79.5q0 84 -48 124.5t-133 40.5v118q85 0 133 40.5t48 124.5q0 43 -15 79.5t-47 92.5q-39 67 -60 120.5t-21 126.5q0 71 32 126.5t92 87t140 31.5h149v-119h-120q-79 0 -113.5 -39
t-34.5 -103q0 -54 16.5 -98t49.5 -105t49.5 -105t16.5 -99q0 -75 -47 -137t-122 -84q75 -22 122 -83t47 -135q0 -55 -16.5 -99.5t-49.5 -105.5t-49.5 -105t-16.5 -98q0 -64 34.5 -103t113.5 -39h120v-119h-149q-80 0 -140 31.5z" />
    <glyph glyph-name="braceright" unicode="}" horiz-adv-x="634" 
d="M91 -125h120q79 0 113.5 39t34.5 103q0 54 -16.5 98t-49.5 105t-49.5 105.5t-16.5 99.5q0 74 47.5 135t121.5 83q-74 22 -121.5 84t-47.5 137q0 55 16.5 99t49.5 105t49.5 105t16.5 98q0 64 -34.5 103t-113.5 39h-120v119h150q80 0 140 -31.5t92 -87.5t32 -126
q0 -73 -21 -126.5t-60 -120.5q-32 -55 -47.5 -91.5t-15.5 -80.5q0 -84 48 -124.5t133 -40.5v-118q-85 0 -133 -40.5t-48 -124.5q0 -44 15.5 -80.5t47.5 -91.5q39 -67 60 -120.5t21 -126.5q0 -70 -32 -126t-92 -87.5t-140 -31.5h-150v119z" />
    <glyph glyph-name="bracketleft" unicode="[" horiz-adv-x="635" 
d="M131 1532h413v-118h-268v-1539h268v-119h-413v1776z" />
    <glyph glyph-name="bracketright" unicode="]" horiz-adv-x="635" 
d="M91 -125h268v1539h-268v118h413v-1776h-413v119z" />
    <glyph glyph-name="parenleft" unicode="(" horiz-adv-x="616" 
d="M290.5 -82.5q-54.5 86.5 -117 279.5t-62.5 446t62 446.5t122.5 289t107.5 151.5h143q-2 -3 -74 -88t-148.5 -314t-76.5 -485q0 -255 65 -449t389 -687t-155 251h-143q-58 73 -112.5 159.5z" />
    <glyph glyph-name="parenright" unicode=")" horiz-adv-x="616" 
d="M143 -154.5q71 84.5 146.5 313.5t75.5 484q0 256 -64 450.5t-896 1480t665 -1043.5h143q47 -56 107.5 -151.5t122.5 -289t62 -446.5t-62.5 -446t-117 -279.5t-112.5 -159.5h-143q2 3 73 87.5z" />
    <glyph glyph-name="endash" unicode="&#x2013;" horiz-adv-x="1024" 
d="M98 635h828v-122h-828v122z" />
    <glyph glyph-name="emdash" unicode="&#x2014;" horiz-adv-x="2048" 
d="M130 635h1788v-122h-1788v122z" />
    <glyph glyph-name="hyphen" unicode="-" horiz-adv-x="796" 
d="M111 636h575v-123h-575v123z" />
    <glyph glyph-name="guilsinglleft" unicode="&#x2039;" horiz-adv-x="735" 
d="M127 574l401 397l80 -81l-316 -316l316 -315l-80 -81z" />
    <glyph glyph-name="guillemotleft" unicode="&#xab;" horiz-adv-x="1107" 
d="M127 574l389 397l82 -79l-312 -318l312 -317l-82 -79zM514 574l389 397l82 -79l-312 -318l312 -317l-82 -79z" />
    <glyph glyph-name="guilsinglright" unicode="&#x203a;" horiz-adv-x="735" 
d="M127 259l316 315l-316 316l81 81l400 -397l-400 -396z" />
    <glyph glyph-name="guillemotright" unicode="&#xbb;" horiz-adv-x="1107" 
d="M127 257l312 317l-312 318l82 79l389 -397l-389 -396zM509 257l312 317l-312 318l81 79l390 -397l-390 -396z" />
    <glyph glyph-name="quoteleft" unicode="&#x2018;" horiz-adv-x="410" 
d="M215 1434h133l-142 -447h-144z" />
    <glyph glyph-name="quotedblleft" unicode="&#x201c;" horiz-adv-x="711" 
d="M62 987zM516 1434h133l-142 -447h-144zM215 1434h133l-142 -447h-144z" />
    <glyph glyph-name="quoteright" unicode="&#x2019;" horiz-adv-x="410" 
d="M205 1434h143l-153 -447h-133z" />
    <glyph glyph-name="quotedblright" unicode="&#x201d;" horiz-adv-x="711" 
d="M62 987zM506 1434h143l-153 -447h-133zM205 1434h143l-153 -447h-133z" />
    <glyph glyph-name="quotesinglbase" unicode="&#x201a;" horiz-adv-x="408" 
d="M174 214h143l-152 -447h-133z" />
    <glyph glyph-name="quotedblbase" unicode="&#x201e;" horiz-adv-x="709" 
d="M32 0zM475 214h143l-152 -447h-133zM174 214h143l-152 -447h-133z" />
    <glyph glyph-name="uni0326" unicode="&#x326;" horiz-adv-x="0" 
d="M-240 -90h137l-88 -340h-130z" />
    <glyph glyph-name="uni0308" unicode="&#x308;" horiz-adv-x="0" 
d="M-558.5 1148.5q-24.5 24.5 -24.5 61.5q0 38 24.5 62.5t63.5 24.5t63.5 -24.5t24.5 -62.5q0 -37 -24.5 -61.5t-63.5 -24.5t-63.5 24.5zM-252.5 1148.5q-24.5 24.5 -24.5 61.5q0 38 24 62.5t63 24.5t63.5 -24.5t24.5 -62.5q0 -37 -24.5 -61.5t-62.5 -24.5q-39 0 -63.5 24.5
z" />
    <glyph glyph-name="gravecomb" unicode="&#x300;" horiz-adv-x="0" 
d="M-476 1217v129l374 -120v-119z" />
    <glyph glyph-name="acutecomb" unicode="&#x301;" horiz-adv-x="0" 
d="M-476 1226l374 120v-129l-374 -110v119z" />
    <glyph glyph-name="uni0306" unicode="&#x306;" horiz-adv-x="0" 
d="M-558 1142.5q-66 29.5 -103.5 64t-37.5 39.5v122q0 -5 40 -43.5t106.5 -71t152.5 -32.5t152 32.5t106 71t40 43.5v-122q0 -5 -38.5 -39.5t-105 -64t-157.5 -29.5q-89 0 -155 29.5z" />
    <glyph glyph-name="uni0304" unicode="&#x304;" horiz-adv-x="0" 
d="M-601 1256h498v-113h-498v113z" />
    <glyph glyph-name="brevecombcy" horiz-adv-x="0" 
d="M-558 1142.5q-66 29.5 -103.5 64t-37.5 39.5v122q0 -5 40 -43.5t106.5 -71t152.5 -32.5t152 32.5t106 71t40 43.5v-122q0 -5 -38.5 -39.5t-105 -64t-157.5 -29.5q-89 0 -155 29.5z" />
    <glyph glyph-name="uni0307" unicode="&#x307;" horiz-adv-x="0" 
d="M-258.5 1147.5q-25.5 24.5 -25.5 61.5q0 38 25.5 63t65.5 25q41 0 65.5 -24.5t24.5 -63.5q0 -37 -25 -61.5t-65 -24.5t-65.5 24.5z" />
    <glyph glyph-name="uni030B" unicode="&#x30b;" horiz-adv-x="0" 
d="M-542 1316h144l-164 -204h-128zM-256 1316h154l-221 -204h-124z" />
    <glyph glyph-name="uni0302" unicode="&#x302;" horiz-adv-x="0" 
d="M-663 1217l281 145l280 -145v-115l-280 132l-281 -132v115z" />
    <glyph glyph-name="uni030C" unicode="&#x30c;" horiz-adv-x="0" 
d="M-663 1239v115l281 -133l280 133v-115l-280 -146z" />
    <glyph glyph-name="uni030A" unicode="&#x30a;" horiz-adv-x="0" 
d="M-402 1084q-46 23 -71.5 64.5t-25.5 95.5q0 56 25.5 98.5t71.5 66t104 23.5q87 0 141 -51.5t54 -136.5q0 -54 -24.5 -95.5t-69 -64.5t-101.5 -23q-58 0 -104 23zM-230 1176q27 27 27 70t-27 70.5t-69 27.5q-43 0 -71 -27.5t-28 -70.5t28 -70t71 -27q42 0 69 27z" />
    <glyph glyph-name="tildecomb" unicode="&#x303;" horiz-adv-x="0" 
d="M-341 1121.5q-35 12.5 -78 37.5q-37 21 -63.5 31.5t-62.5 10.5q-42 0 -76 -18t-55 -39t-21 -24v122q0 3 21.5 22t57.5 35.5t82 16.5q51 0 87 -13t79 -38q37 -21 63 -31t59 -10q44 0 76.5 17.5t51 37.5t18.5 23v-119q0 -3 -19 -22t-53.5 -35.5t-81.5 -16.5q-50 0 -85 12.5
z" />
    <glyph glyph-name="uni0312" unicode="&#x312;" horiz-adv-x="0" 
d="M-232 1373h129l-78 -324h-138z" />
    <glyph glyph-name="uni0327" unicode="&#x327;" horiz-adv-x="0" 
d="M-453 -417q-52 13 -84.5 28t-32.5 17v101q0 -2 35.5 -19.5t87 -32t107.5 -14.5q59 0 92.5 19t33.5 55q0 35 -29.5 50t-99.5 25l-123 18l123 185h91l-77 -118l49 -8q86 -13 132 -46.5t46 -101.5q0 -79 -64.5 -125t-170.5 -46q-64 0 -116 13z" />
    <glyph glyph-name="uni0328" unicode="&#x328;" horiz-adv-x="0" 
d="M-438.5 -383.5q-57.5 46.5 -57.5 128.5q0 65 35 119t90 91.5t117 55.5l83 25l19 -36q-93 -44 -158 -103.5t-65 -130.5q0 -43 27 -68.5t84 -25.5q41 0 77 10t60.5 22t24.5 13v-95q0 -2 -22.5 -15.5t-63 -25t-97.5 -11.5q-96 0 -153.5 46.5z" />
    <glyph glyph-name="uni0335" unicode="&#x335;" horiz-adv-x="0" 
d="M-930 628h828v-111h-828v111z" />
    <glyph glyph-name="uni0336" unicode="&#x336;" horiz-adv-x="0" 
d="M-1489 627h1387v-113h-1387v113z" />
    <glyph glyph-name="uni0337" unicode="&#x337;" horiz-adv-x="0" 
d="M-512 684l410 309v-145l-410 -301v137z" />
    <glyph glyph-name="uni0338" unicode="&#x338;" horiz-adv-x="0" 
d="M-840 561l738 432v-145l-738 -424v137z" />
    <glyph glyph-name="caron.alt" horiz-adv-x="315" 
d="M102 1434h115l-48 -406h-67v406z" />
    <glyph glyph-name="periodcentered.case" horiz-adv-x="416" 
d="M117 607zM142.5 632q-25.5 25 -25.5 63q0 39 25.5 64.5t65.5 25.5q41 0 65.5 -25t24.5 -65q0 -38 -25 -63t-65 -25t-65.5 25z" />
    <glyph glyph-name="bullet.case" horiz-adv-x="833" 
d="M108 399zM257 437.5q-70 38.5 -109.5 106.5t-39.5 153t39.5 153t109.5 107t159 39q93 0 163 -38.5t108 -106.5t38 -153t-38 -153.5t-107.5 -107t-162.5 -38.5q-90 0 -160 38.5z" />
    <glyph glyph-name="exclamdown.case" horiz-adv-x="408" 
d="M114 0zM269.5 1429.5q25.5 -24.5 25.5 -61.5q0 -38 -25.5 -63t-65.5 -25q-41 0 -65.5 24.5t-24.5 63.5q0 37 25 61.5t65 24.5t65.5 -24.5zM274 0h-139l3 1010h133z" />
    <glyph glyph-name="questiondown.case" horiz-adv-x="784" 
d="M90 0zM550.5 1430.5q25.5 -24.5 25.5 -61.5q0 -38 -25.5 -63t-65.5 -25q-41 0 -65.5 24.5t-24.5 63.5q0 37 25 61.5t65 24.5t65.5 -24.5zM550 865q0 -75 -23.5 -134t-57.5 -101t-90 -98q-49 -50 -76.5 -83t-46.5 -75.5t-19 -94.5q0 -83 50.5 -128.5t134.5 -45.5
q71 0 124 17.5t83.5 37.5t30.5 23l58 -107q0 -4 -39.5 -28.5t-107 -45.5t-157.5 -21q-94 0 -168 36.5t-115 102.5t-41 151q0 70 23 125t56 94.5t88 92.5q54 52 85.5 90t53 89t21.5 115v135h133v-147z" />
    <glyph glyph-name="braceleft.case" horiz-adv-x="634" 
d="M92 0zM254 -130.5q-60 31.5 -92 87t-32 126.5q0 73 21 126.5t60 120.5q32 56 47 92.5t15 79.5q0 84 -48 124.5t-133 40.5v118q85 0 133 40.5t48 124.5q0 43 -15 79.5t-47 92.5q-39 67 -60 120.5t-21 126.5q0 71 32 126.5t92 87t140 31.5h149v-119h-120q-79 0 -113.5 -39
t-34.5 -103q0 -54 16.5 -98t49.5 -105t49.5 -105t16.5 -99q0 -75 -47 -137t-122 -84q75 -22 122 -83t47 -135q0 -55 -16.5 -99.5t-49.5 -105.5t-49.5 -105t-16.5 -98q0 -64 34.5 -103t113.5 -39h120v-119h-149q-80 0 -140 31.5z" />
    <glyph glyph-name="braceright.case" horiz-adv-x="634" 
d="M91 0zM91 -43h120q79 0 113.5 39t34.5 103q0 54 -16.5 98t-49.5 105t-49.5 105.5t-16.5 99.5q0 74 47.5 135t121.5 83q-74 22 -121.5 84t-47.5 137q0 55 16.5 99t49.5 105t49.5 105t16.5 98q0 64 -34.5 103t-113.5 39h-120v119h150q80 0 140 -31.5t92 -87.5t32 -126
q0 -73 -21 -126.5t-60 -120.5q-32 -55 -47.5 -91.5t-15.5 -80.5q0 -84 48 -124.5t133 -40.5v-118q-85 0 -133 -40.5t-48 -124.5q0 -44 15.5 -80.5t47.5 -91.5q39 -67 60 -120.5t21 -126.5q0 -70 -32 -126t-92 -87.5t-140 -31.5h-150v119z" />
    <glyph glyph-name="bracketleft.case" horiz-adv-x="635" 
d="M131 0zM131 1614h413v-118h-268v-1539h268v-119h-413v1776z" />
    <glyph glyph-name="bracketright.case" horiz-adv-x="635" 
d="M91 0zM91 -43h268v1539h-268v118h413v-1776h-413v119z" />
    <glyph glyph-name="parenleft.case" horiz-adv-x="616" 
d="M111 0zM290.5 -0.5q-54.5 86.5 -117 279.5t-62.5 446t62 446.5t122.5 289t107.5 151.5h143q-2 -3 -74 -88t-148.5 -314t-76.5 -485q0 -255 65 -449t389 -687t-155 251h-143q-58 73 -112.5 159.5z" />
    <glyph glyph-name="parenright.case" horiz-adv-x="616" 
d="M70 0zM143 -72.5q71 84.5 146.5 313.5t75.5 484q0 256 -64 450.5t-896 1480t665 -1043.5h143q47 -56 107.5 -151.5t122.5 -289t62 -446.5t-62.5 -446t-117 -279.5t-112.5 -159.5h-143q2 3 73 87.5z" />
    <glyph glyph-name="guillemotleft.case" horiz-adv-x="1107" 
d="M127 340zM127 736l389 397l82 -79l-312 -318l312 -317l-82 -79zM514 736l389 397l82 -79l-312 -318l312 -317l-82 -79z" />
    <glyph glyph-name="guillemotright.case" horiz-adv-x="1107" 
d="M127 340zM127 419l312 317l-312 318l82 79l389 -397l-389 -396zM509 419l312 317l-312 318l81 79l390 -397l-390 -396z" />
    <glyph glyph-name="guilsinglleft.case" horiz-adv-x="735" 
d="M127 340zM127 736l401 397l80 -81l-316 -316l316 -315l-80 -81z" />
    <glyph glyph-name="guilsinglright.case" horiz-adv-x="735" 
d="M127 340zM127 421l316 315l-316 316l81 81l400 -397l-400 -396z" />
    <glyph glyph-name="at.case" horiz-adv-x="1805" 
d="M111 0zM1182 305v95q-49 -47 -118 -80t-158 -33q-122 0 -217.5 57t-148.5 155.5t-53 218.5q0 121 53.5 219.5t149 155.5t216.5 57q78 0 150.5 -31t125.5 -81v92h124v-710q79 25 141 85.5t97 149.5t35 196q0 168 -78 303t-223 212.5t-337 77.5q-208 0 -365 -90.5
t-242.5 -253.5t-85.5 -375q0 -214 92 -377t252 -252.5t360 -89.5q148 0 262 46t183.5 100t69.5 61l70 -86q0 -8 -78 -69.5t-210 -114t-304 -52.5q-237 0 -427 106t-298.5 296t-108.5 431q0 236 108 426t297.5 298t422.5 108t407 -93t267 -252t93 -352q0 -165 -73 -291.5
t-186.5 -194.5t-229.5 -68h-35zM1072.5 437q65.5 38 109.5 93v378q-44 55 -109.5 92.5t-153.5 37.5q-89 0 -158 -39.5t-107 -112t-38 -167.5t38 -167.5t107 -112.5t158 -40q88 0 153.5 38z" />
    <glyph glyph-name="uni00A0" unicode="&#xa0;" horiz-adv-x="532" 
 />
    <glyph glyph-name="afii61664" unicode="&#x200c;" horiz-adv-x="0" 
 />
    <glyph glyph-name="uni200A" unicode="&#x200a;" horiz-adv-x="205" 
 />
    <glyph glyph-name="uni2008" unicode="&#x2008;" horiz-adv-x="408" 
 />
    <glyph glyph-name="uni2009" unicode="&#x2009;" horiz-adv-x="410" 
 />
    <glyph glyph-name="uni2002" unicode="&#x2002;" horiz-adv-x="1024" 
 />
    <glyph glyph-name="uni2003" unicode="&#x2003;" horiz-adv-x="2048" 
 />
    <glyph glyph-name="uni2007" unicode="&#x2007;" 
 />
    <glyph glyph-name=".ttfautohint" 
d="M0 0z" />
    </font>
</defs>
</svg>
